<?xml version="1.0" encoding="UTF-8" standalone="no"?>
<!-- Created with Inkscape (http://www.inkscape.org/) -->

<svg
   xmlns:dc="http://purl.org/dc/elements/1.1/"
   xmlns:cc="http://creativecommons.org/ns#"
   xmlns:rdf="http://www.w3.org/1999/02/22-rdf-syntax-ns#"
   xmlns:svg="http://www.w3.org/2000/svg"
   xmlns="http://www.w3.org/2000/svg"
   xmlns:sodipodi="http://sodipodi.sourceforge.net/DTD/sodipodi-0.dtd"
   xmlns:inkscape="http://www.inkscape.org/namespaces/inkscape"
   version="1.1"
   id="svg2"
   xml:space="preserve"
   width="1344"
   height="1344"
   viewBox="0 0 1344 1344"
   sodipodi:docname="4f Ceiling.svg"
   inkscape:version="0.92.5 (0.92.5+68)"><metadata
     id="metadata8"><rdf:RDF><cc:Work
         rdf:about=""><dc:format>image/svg+xml</dc:format><dc:type
           rdf:resource="http://purl.org/dc/dcmitype/StillImage" /><dc:title></dc:title></cc:Work></rdf:RDF></metadata><defs
     id="defs6"><clipPath
       clipPathUnits="userSpaceOnUse"
       id="clipPath22"><path
         d="M 0,1008 H 1008 V 0 H 0 Z"
         id="path20"
         inkscape:connector-curvature="0" /></clipPath><clipPath
       clipPathUnits="userSpaceOnUse"
       id="clipPath46"><path
         d="M 0,1008 H 1008 V 0 H 0 Z"
         id="path44"
         inkscape:connector-curvature="0" /></clipPath></defs><sodipodi:namedview
     pagecolor="#ffffff"
     bordercolor="#666666"
     borderopacity="1"
     objecttolerance="10"
     gridtolerance="10"
     guidetolerance="10"
     inkscape:pageopacity="0"
     inkscape:pageshadow="2"
     inkscape:window-width="1855"
     inkscape:window-height="1056"
     id="namedview4"
     showgrid="false"
     inkscape:zoom="0.70238095"
     inkscape:cx="501.26183"
     inkscape:cy="595.90195"
     inkscape:window-x="65"
     inkscape:window-y="24"
     inkscape:window-maximized="1"
     inkscape:current-layer="g10" /><g
     id="g10"
     inkscape:groupmode="layer"
     inkscape:label="4f Ceiling"
     transform="matrix(1.3333333,0,0,-1.3333333,0,1344)"><text
       transform="matrix(1,0,0,-1,82.2485,46.1514)"
       style="font-variant:normal;font-weight:normal;font-stretch:normal;font-size:12px;font-family:'Myriad Pro';-inkscape-font-specification:MyriadPro-Regular;writing-mode:lr-tb;fill:#000000;fill-opacity:1;fill-rule:nonzero;stroke:none"
       id="text14"><tspan
         x="0 6.816 13.428 17.4 19.944 25.247999 31.836 38.5788 44.230801 46.774799 50.278801 54.082802 60.670799 70.678802 73.222801 79.378799 83.494797 89.650803 95.806801 99.022797 101.5668 107.3508 112.7268 116.9508 122.6028 125.4348 128.2428 133.49879 135.9828 138.52679 145.03081 151.0428 157.05479 163.8828 166.4268 173.25481 179.8428 183.8148 190.47479 193.0188 195.8508 201.6348 205.4628 212.17081 218.1828 220.72681 225.47881 232.13879 237.92281 244.75079 250.7628 253.30679 259.4628 265.6188 269.86679 275.42279 281.5788 287.7348 290.952 293.496 299.28 305.94 312.70801 315.25201 318.06 324.72 331.38 337.392 341.31601 343.85999 347.664 354.25201 360.86401 367.52399 374.29199 380.30399 387.07199 389.616 393.42001 399.43201 404.96399 408.936 414.72 421.38 428.08801 430.92001 436.78799 439.272 441.81601 449.57999 456.40799 463.23599 469.24799 473.11081 476.7948 479.6268 485.63879 489.27481 493.2468 495.7908 498.6228 504.6348 508.60681 512.50677 518.5188 522.44281 527.19482 529.73877 539.74683 546.35883 551.11078 555.08282 557.62677 562.37878 565.18683 575.19482 582.02283 584.8548 590.50677 593.05078 599.87878 605.89081 608.43481 614.20679 617.01477 621.76678 624.57483 631.40277 634.2348 640.24683 642.79077 648.57483 655.2348 662.00281 664.54681 671.13483 677.7948 680.62677 686.27881 688.82281 695.41083 702.02283 705.99481 708.82678 711.63483 718.2948 724.30682 730.95477 733.43878 735.98279 742.81079 745.64282 751.65479 757.43878 762.1908 768.20282 770.74683 776.1228 782.78278 789.37079 795.9588 800.71082 806.72278 809.26678 816.03479 822.04681 828.87482 832.8468 839.50677"
         y="0"
         sodipodi:role="line"
         id="tspan12">Cut copy from 3/16” acrylic. Keep both large shape 12”x12” and inner rounded rectangle. Upper-left letters must simply be visible and only outlined, please choose depth.</tspan></text>
<g
       id="g16"><g
         id="g18"
         clip-path="url(#clipPath22)"><g
           id="g24"
           transform="translate(117.1421,883.7422)"><path
             d="m 0,0 v 8.503 h 4.371 v 3.314 H 0 V 31.225 H -4.564 L -18.495,11.289 V 8.503 h 14.508 l 0,-8.503 z m -14.22,11.817 v 0.097 l 7.638,10.616 c 0.865,1.442 1.634,2.786 2.595,4.612 h 0.144 c -0.096,-1.633 -0.144,-3.267 -0.144,-4.9 V 11.817 Z"
             style="fill:none;stroke:#7c797a;stroke-width:1;stroke-linecap:butt;stroke-linejoin:miter;stroke-miterlimit:4;stroke-dasharray:none;stroke-opacity:1"
             id="path26"
             inkscape:connector-curvature="0" /></g><g
           id="g28"
           transform="translate(130.688,883.7422)"><path
             d="m 0,0 v 20.032 h 5.621 v 3.219 H 0 V 24.5 c 0,3.555 0.913,6.725 4.516,6.725 1.201,0 2.065,-0.24 2.69,-0.528 l 0.576,3.266 C 6.966,34.3 5.668,34.636 4.179,34.636 2.21,34.636 0.096,34.012 -1.489,32.474 -3.459,30.601 -4.18,27.623 -4.18,24.356 V 23.251 H -7.446 V 20.032 H -4.18 V 0 Z"
             style="fill:none;stroke:#7c797a;stroke-width:1;stroke-linecap:butt;stroke-linejoin:miter;stroke-miterlimit:4;stroke-dasharray:none;stroke-opacity:1"
             id="path30"
             inkscape:connector-curvature="0" /></g></g></g><path
       d="m 260.815,793.692 h -72 v 72 h 72 z"
       style="fill:none;stroke:#231f20;stroke-width:1;stroke-linecap:butt;stroke-linejoin:miter;stroke-miterlimit:10;stroke-dasharray:none;stroke-opacity:1"
       id="path32"
       inkscape:connector-curvature="0" /><text
       transform="matrix(1,0,0,-1,198.0259,844.8223)"
       style="font-variant:normal;font-weight:normal;font-stretch:normal;font-size:12px;font-family:'Myriad Pro';-inkscape-font-specification:MyriadPro-Regular;writing-mode:lr-tb;fill:#000000;fill-opacity:1;fill-rule:nonzero;stroke:none"
       id="text38"><tspan
         x="0 6.1560001 9.3719997 11.916 16.667999 23.424 30.035999 35.82 39.624001 45.636002"
         y="0"
         sodipodi:role="line"
         id="tspan34">1” square </tspan><tspan
         x="0 3.8039999 9.816 13.164 19.176001 22.981199 28.9932 35.653198 40.957199"
         y="14.4"
         sodipodi:role="line"
         id="tspan36">reference</tspan></text>
<g
       id="g40"
       style="stroke-width:0.75000002;stroke-miterlimit:10;stroke-dasharray:none"><g
         id="g42"
         clip-path="url(#clipPath46)"
         style="stroke-width:0.75000002;stroke-miterlimit:10;stroke-dasharray:none"><g
           id="g48"
           transform="translate(837.6135,297.4541)"
           style="stroke-width:0.75000002;stroke-miterlimit:10;stroke-dasharray:none"><path
             d="m 0,0 c 0,-12.341 -10.739,-22.347 -23.985,-22.347 h -588.837 c -13.247,0 -23.985,10.006 -23.985,22.347 v 397.786 c 0,12.342 10.738,22.348 23.985,22.348 H -18.985 C -15.377,417.514 -3.757,407.185 0,403.786 Z"
             style="fill:none;stroke:#2c3e99;stroke-width:0.75000002;stroke-linecap:butt;stroke-linejoin:miter;stroke-miterlimit:10;stroke-dasharray:none;stroke-opacity:1"
             id="path50"
             inkscape:connector-curvature="0" /></g><g
           id="g52"
           transform="translate(213.7528,741.675)"
           style="stroke-width:0.75000002;stroke-miterlimit:10;stroke-dasharray:none"><path
             d="m 0,0 c 0,-3.351 -2.719,-6.068 -6.068,-6.068 -3.35,0 -6.067,2.717 -6.067,6.068 0,3.351 2.717,6.067 6.067,6.067 C -2.719,6.067 0,3.351 0,0 Z"
             style="fill:none;stroke:#2c3e99;stroke-width:0.75000002;stroke-linecap:butt;stroke-linejoin:miter;stroke-miterlimit:10;stroke-dasharray:none;stroke-opacity:1"
             id="path54"
             inkscape:connector-curvature="0" /></g><g
           id="g56"
           transform="translate(229.7655,256.3348)"
           style="stroke-width:0.75000002;stroke-miterlimit:10;stroke-dasharray:none"><path
             d="m 0,0 c 0,-3.351 -2.719,-6.065 -6.068,-6.065 -3.35,0 -6.067,2.714 -6.067,6.065 0,3.352 2.717,6.067 6.067,6.067 C -2.719,6.067 0,3.352 0,0 Z"
             style="fill:none;stroke:#2c3e99;stroke-width:0.75000002;stroke-linecap:butt;stroke-linejoin:miter;stroke-miterlimit:10;stroke-dasharray:none;stroke-opacity:1"
             id="path58"
             inkscape:connector-curvature="0" /></g><g
           id="g60"
           transform="translate(835.8475,741.675)"
           style="stroke-width:0.75000002;stroke-miterlimit:10;stroke-dasharray:none"><path
             d="m 0,0 c 0,-3.351 -2.718,-6.067 -6.067,-6.067 -3.351,0 -6.068,2.716 -6.068,6.067 0,3.351 2.717,6.066 6.068,6.066 C -2.718,6.066 0,3.351 0,0 Z"
             style="fill:none;stroke:#2c3e99;stroke-width:0.75000002;stroke-linecap:butt;stroke-linejoin:miter;stroke-miterlimit:10;stroke-dasharray:none;stroke-opacity:1"
             id="path62"
             inkscape:connector-curvature="0" /></g><g
           id="g64"
           transform="translate(375.2545,855.6581)"
           style="stroke-width:0.75000002;stroke-miterlimit:10;stroke-dasharray:none"><path
             d="m 0,0 c 0,-3.351 -2.719,-6.067 -6.068,-6.067 -3.349,0 -6.067,2.716 -6.067,6.067 0,3.35 2.718,6.067 6.067,6.067 C -2.719,6.067 0,3.35 0,0 Z"
             style="fill:none;stroke:#2c3e99;stroke-width:0.75000002;stroke-linecap:butt;stroke-linejoin:miter;stroke-miterlimit:10;stroke-dasharray:none;stroke-opacity:1"
             id="path66"
             inkscape:connector-curvature="0" /></g><g
           id="g68"
           transform="translate(672.6163,852.655)"
           style="stroke-width:0.75000002;stroke-miterlimit:10;stroke-dasharray:none"><path
             d="m 0,0 c 0,-3.285 -2.665,-5.948 -5.949,-5.948 -3.285,0 -5.949,2.663 -5.949,5.948 0,3.285 2.664,5.948 5.949,5.948 C -2.665,5.948 0,3.285 0,0 Z"
             style="fill:none;stroke:#2c3e99;stroke-width:0.75000002;stroke-linecap:butt;stroke-linejoin:miter;stroke-miterlimit:10;stroke-dasharray:none;stroke-opacity:1"
             id="path70"
             inkscape:connector-curvature="0" /></g><g
           id="g72"
           transform="translate(376.3529,130.8631)"
           style="stroke-width:0.75000002;stroke-miterlimit:10;stroke-dasharray:none"><path
             d="m 0,0 c 0,-3.351 -2.719,-6.067 -6.068,-6.067 -3.349,0 -6.067,2.716 -6.067,6.067 0,3.35 2.718,6.065 6.067,6.065 C -2.719,6.065 0,3.35 0,0 Z"
             style="fill:none;stroke:#2c3e99;stroke-width:0.75000002;stroke-linecap:butt;stroke-linejoin:miter;stroke-miterlimit:10;stroke-dasharray:none;stroke-opacity:1"
             id="path74"
             inkscape:connector-curvature="0" /></g><g
           id="g76"
           transform="translate(674.7676,130.9585)"
           style="stroke-width:0.75000002;stroke-miterlimit:10;stroke-dasharray:none"><path
             d="m 0,0 c 0,-3.351 -2.719,-6.067 -6.068,-6.067 -3.351,0 -6.068,2.716 -6.068,6.067 0,3.35 2.717,6.065 6.068,6.065 C -2.719,6.065 0,3.35 0,0 Z"
             style="fill:none;stroke:#2c3e99;stroke-width:0.75000002;stroke-linecap:butt;stroke-linejoin:miter;stroke-miterlimit:10;stroke-dasharray:none;stroke-opacity:1"
             id="path78"
             inkscape:connector-curvature="0" /></g><g
           id="g80"
           transform="translate(816.8323,254.3333)"
           style="stroke-width:0.75000002;stroke-miterlimit:10;stroke-dasharray:none"><path
             d="m 0,0 c 0,-3.35 -2.718,-6.065 -6.067,-6.065 -3.351,0 -6.068,2.715 -6.068,6.065 0,3.352 2.717,6.067 6.068,6.067 C -2.718,6.067 0,3.352 0,0 Z"
             style="fill:none;stroke:#2c3e99;stroke-width:0.75000002;stroke-linecap:butt;stroke-linejoin:miter;stroke-miterlimit:10;stroke-dasharray:none;stroke-opacity:1"
             id="path82"
             inkscape:connector-curvature="0" /></g><path
           d="M 877.987,417.999 H 837.602 V 576.04 h 40.385 z"
           style="fill:none;stroke:#2c3e99;stroke-width:0.75000002;stroke-linecap:butt;stroke-linejoin:miter;stroke-miterlimit:10;stroke-dasharray:none;stroke-opacity:1"
           id="path84"
           inkscape:connector-curvature="0" /><path
           d="M 200.7,417.374 H 160.316 V 576.04 H 200.7 Z"
           style="fill:none;stroke:#2c3e99;stroke-width:0.75000002;stroke-linecap:butt;stroke-linejoin:miter;stroke-miterlimit:10;stroke-dasharray:none;stroke-opacity:1"
           id="path86"
           inkscape:connector-curvature="0" /><path
           d="m 951.21,64.348 h -864 v 864 h 864 z"
           style="fill:none;stroke:#2c3e99;stroke-width:0.75000002;stroke-linecap:butt;stroke-linejoin:miter;stroke-miterlimit:10;stroke-dasharray:none;stroke-opacity:1"
           id="path88"
           inkscape:connector-curvature="0" /><g
           id="g90"
           transform="translate(524.6913,749.4937)"
           style="stroke-width:0.75000002;stroke-miterlimit:10;stroke-dasharray:none"><path
             d="m 0,0 c 0,-3.351 -2.718,-6.067 -6.067,-6.067 -3.351,0 -6.068,2.716 -6.068,6.067 0,3.351 2.717,6.066 6.068,6.066 C -2.718,6.066 0,3.351 0,0 Z"
             style="fill:none;stroke:#2c3e99;stroke-width:0.75000002;stroke-linecap:butt;stroke-linejoin:miter;stroke-miterlimit:10;stroke-dasharray:none;stroke-opacity:1"
             id="path92"
             inkscape:connector-curvature="0" /></g><g
           id="g94"
           transform="translate(185.4306,590.3752)"
           style="stroke-width:0.75000002;stroke-miterlimit:10;stroke-dasharray:none"><path
             d="m 0,0 c 0,-3.351 -2.718,-6.067 -6.067,-6.067 -3.351,0 -6.068,2.716 -6.068,6.067 0,3.351 2.717,6.066 6.068,6.066 C -2.718,6.066 0,3.351 0,0 Z"
             style="fill:none;stroke:#2c3e99;stroke-width:0.75000002;stroke-linecap:butt;stroke-linejoin:miter;stroke-miterlimit:10;stroke-dasharray:none;stroke-opacity:1"
             id="path96"
             inkscape:connector-curvature="0" /></g><g
           id="g98"
           transform="translate(864.1863,593.6095)"
           style="stroke-width:0.75000002;stroke-miterlimit:10;stroke-dasharray:none"><path
             d="m 0,0 c 0,-3.351 -2.718,-6.067 -6.067,-6.067 -3.351,0 -6.068,2.716 -6.068,6.067 0,3.351 2.717,6.066 6.068,6.066 C -2.718,6.066 0,3.351 0,0 Z"
             style="fill:none;stroke:#2c3e99;stroke-width:0.75000002;stroke-linecap:butt;stroke-linejoin:miter;stroke-miterlimit:10;stroke-dasharray:none;stroke-opacity:1"
             id="path100"
             inkscape:connector-curvature="0" /></g><g
           id="g102"
           transform="translate(861.6457,394.3371)"
           style="stroke-width:0.75000002;stroke-miterlimit:10;stroke-dasharray:none"><path
             d="m 0,0 c 0,-3.351 -2.718,-6.067 -6.067,-6.067 -3.351,0 -6.068,2.716 -6.068,6.067 0,3.351 2.717,6.066 6.068,6.066 C -2.718,6.066 0,3.351 0,0 Z"
             style="fill:none;stroke:#2c3e99;stroke-width:0.75000002;stroke-linecap:butt;stroke-linejoin:miter;stroke-miterlimit:10;stroke-dasharray:none;stroke-opacity:1"
             id="path104"
             inkscape:connector-curvature="0" /></g><g
           id="g106"
           transform="translate(524.8334,242.8036)"
           style="stroke-width:0.75000002;stroke-miterlimit:10;stroke-dasharray:none"><path
             d="m 0,0 c 0,-3.351 -2.718,-6.067 -6.067,-6.067 -3.351,0 -6.068,2.716 -6.068,6.067 0,3.351 2.717,6.066 6.068,6.066 C -2.718,6.066 0,3.351 0,0 Z"
             style="fill:none;stroke:#2c3e99;stroke-width:0.75000002;stroke-linecap:butt;stroke-linejoin:miter;stroke-miterlimit:10;stroke-dasharray:none;stroke-opacity:1"
             id="path108"
             inkscape:connector-curvature="0" /></g><g
           id="g110"
           transform="translate(185.4983,397.8806)"
           style="stroke-width:0.75000002;stroke-miterlimit:10;stroke-dasharray:none"><path
             d="m 0,0 c 0,-3.351 -2.718,-6.067 -6.067,-6.067 -3.351,0 -6.068,2.716 -6.068,6.067 0,3.351 2.717,6.066 6.068,6.066 C -2.718,6.066 0,3.351 0,0 Z"
             style="fill:none;stroke:#2c3e99;stroke-width:0.75000002;stroke-linecap:butt;stroke-linejoin:miter;stroke-miterlimit:10;stroke-dasharray:none;stroke-opacity:1"
             id="path112"
             inkscape:connector-curvature="0" /></g><g
           id="g114"
           transform="translate(225.4097,496.6133)"
           style="stroke-width:0.75000002;stroke-miterlimit:10;stroke-dasharray:none"><path
             d="m 0,0 c 0,-4.282 -3.475,-7.755 -7.756,-7.755 -4.281,0 -7.754,3.473 -7.754,7.755 0,4.283 3.473,7.755 7.754,7.755 C -3.475,7.755 0,4.283 0,0 Z"
             style="fill:none;stroke:#2c3e99;stroke-width:0.75000002;stroke-linecap:butt;stroke-linejoin:miter;stroke-miterlimit:10;stroke-dasharray:none;stroke-opacity:1"
             id="path116"
             inkscape:connector-curvature="0" /></g><g
           id="g118"
           transform="translate(228.532,295.4887)"
           style="stroke-width:0.75000002;stroke-miterlimit:10;stroke-dasharray:none"><path
             d="m 0,0 c 0,-4.282 -3.475,-7.755 -7.756,-7.755 -4.281,0 -7.754,3.473 -7.754,7.755 0,4.283 3.473,7.755 7.754,7.755 C -3.475,7.755 0,4.283 0,0 Z"
             style="fill:none;stroke:#2c3e99;stroke-width:0.75000002;stroke-linecap:butt;stroke-linejoin:miter;stroke-miterlimit:10;stroke-dasharray:none;stroke-opacity:1"
             id="path120"
             inkscape:connector-curvature="0" /></g><g
           id="g122"
           transform="translate(378.4027,496.7699)"
           style="stroke-width:0.75000002;stroke-miterlimit:10;stroke-dasharray:none"><path
             d="m 0,0 c 0,-4.282 -3.475,-7.755 -7.756,-7.755 -4.281,0 -7.754,3.473 -7.754,7.755 0,4.283 3.473,7.755 7.754,7.755 C -3.475,7.755 0,4.283 0,0 Z"
             style="fill:none;stroke:#2c3e99;stroke-width:0.75000002;stroke-linecap:butt;stroke-linejoin:miter;stroke-miterlimit:10;stroke-dasharray:none;stroke-opacity:1"
             id="path124"
             inkscape:connector-curvature="0" /></g><g
           id="g126"
           transform="translate(526.9651,496.3477)"
           style="stroke-width:0.75000002;stroke-miterlimit:10;stroke-dasharray:none"><path
             d="m 0,0 c 0,-4.282 -3.475,-7.755 -7.756,-7.755 -4.281,0 -7.754,3.473 -7.754,7.755 0,4.283 3.473,7.755 7.754,7.755 C -3.475,7.755 0,4.283 0,0 Z"
             style="fill:none;stroke:#2c3e99;stroke-width:0.75000002;stroke-linecap:butt;stroke-linejoin:miter;stroke-miterlimit:10;stroke-dasharray:none;stroke-opacity:1"
             id="path128"
             inkscape:connector-curvature="0" /></g><g
           id="g130"
           transform="translate(526.9735,292.3057)"
           style="stroke-width:0.75000002;stroke-miterlimit:10;stroke-dasharray:none"><path
             d="m 0,0 c 0,-4.282 -3.475,-7.755 -7.756,-7.755 -4.281,0 -7.754,3.473 -7.754,7.755 0,4.283 3.473,7.755 7.754,7.755 C -3.475,7.755 0,4.283 0,0 Z"
             style="fill:none;stroke:#2c3e99;stroke-width:0.75000002;stroke-linecap:butt;stroke-linejoin:miter;stroke-miterlimit:10;stroke-dasharray:none;stroke-opacity:1"
             id="path132"
             inkscape:connector-curvature="0" /></g><g
           id="g134"
           transform="translate(824.3958,295.4887)"
           style="stroke-width:0.75000002;stroke-miterlimit:10;stroke-dasharray:none"><path
             d="m 0,0 c 0,-4.282 -3.475,-7.755 -7.756,-7.755 -4.281,0 -7.754,3.473 -7.754,7.755 0,4.283 3.473,7.755 7.754,7.755 C -3.475,7.755 0,4.283 0,0 Z"
             style="fill:none;stroke:#2c3e99;stroke-width:0.75000002;stroke-linecap:butt;stroke-linejoin:miter;stroke-miterlimit:10;stroke-dasharray:none;stroke-opacity:1"
             id="path136"
             inkscape:connector-curvature="0" /></g><g
           id="g138"
           transform="translate(526.9735,697.2758)"
           style="stroke-width:0.75000002;stroke-miterlimit:10;stroke-dasharray:none"><path
             d="m 0,0 c 0,-4.282 -3.475,-7.755 -7.756,-7.755 -4.281,0 -7.754,3.473 -7.754,7.755 0,4.282 3.473,7.755 7.754,7.755 C -3.475,7.755 0,4.282 0,0 Z"
             style="fill:none;stroke:#2c3e99;stroke-width:0.75000002;stroke-linecap:butt;stroke-linejoin:miter;stroke-miterlimit:10;stroke-dasharray:none;stroke-opacity:1"
             id="path140"
             inkscape:connector-curvature="0" /></g><g
           id="g142"
           transform="translate(228.532,695.0991)"
           style="stroke-width:0.75000002;stroke-miterlimit:10;stroke-dasharray:none"><path
             d="m 0,0 c 0,-4.282 -3.475,-7.755 -7.756,-7.755 -4.281,0 -7.754,3.473 -7.754,7.755 0,4.283 3.473,7.755 7.754,7.755 C -3.475,7.755 0,4.283 0,0 Z"
             style="fill:none;stroke:#2c3e99;stroke-width:0.75000002;stroke-linecap:butt;stroke-linejoin:miter;stroke-miterlimit:10;stroke-dasharray:none;stroke-opacity:1"
             id="path144"
             inkscape:connector-curvature="0" /></g><g
           id="g146"
           transform="translate(674.4478,496.7536)"
           style="stroke-width:0.75000002;stroke-miterlimit:10;stroke-dasharray:none"><path
             d="m 0,0 c 0,-4.282 -3.475,-7.755 -7.756,-7.755 -4.281,0 -7.754,3.473 -7.754,7.755 0,4.283 3.473,7.755 7.754,7.755 C -3.475,7.755 0,4.283 0,0 Z"
             style="fill:none;stroke:#2c3e99;stroke-width:0.75000002;stroke-linecap:butt;stroke-linejoin:miter;stroke-miterlimit:10;stroke-dasharray:none;stroke-opacity:1"
             id="path148"
             inkscape:connector-curvature="0" /></g><g
           id="g150"
           transform="translate(829.8802,496.7536)"
           style="stroke-width:0.75000002;stroke-miterlimit:10;stroke-dasharray:none"><path
             d="m 0,0 c 0,-4.282 -3.475,-7.755 -7.756,-7.755 -4.281,0 -7.754,3.473 -7.754,7.755 0,4.283 3.473,7.755 7.754,7.755 C -3.475,7.755 0,4.283 0,0 Z"
             style="fill:none;stroke:#2c3e99;stroke-width:0.75000002;stroke-linecap:butt;stroke-linejoin:miter;stroke-miterlimit:10;stroke-dasharray:none;stroke-opacity:1"
             id="path152"
             inkscape:connector-curvature="0" /></g><g
           id="g154"
           transform="translate(822.1252,695.0991)"
           style="stroke-width:0.75000002;stroke-miterlimit:10;stroke-dasharray:none"><path
             d="m 0,0 c 0,-4.282 -3.475,-7.755 -7.756,-7.755 -4.281,0 -7.754,3.473 -7.754,7.755 0,4.283 3.473,7.755 7.754,7.755 C -3.475,7.755 0,4.283 0,0 Z"
             style="fill:none;stroke:#2c3e99;stroke-width:0.75000002;stroke-linecap:butt;stroke-linejoin:miter;stroke-miterlimit:10;stroke-dasharray:none;stroke-opacity:1"
             id="path156"
             inkscape:connector-curvature="0" /></g></g></g></g></svg>