<?xml version="1.0" encoding="UTF-8" standalone="no"?>
<!-- Created with Inkscape (http://www.inkscape.org/) -->

<svg
   xmlns:dc="http://purl.org/dc/elements/1.1/"
   xmlns:cc="http://creativecommons.org/ns#"
   xmlns:rdf="http://www.w3.org/1999/02/22-rdf-syntax-ns#"
   xmlns:svg="http://www.w3.org/2000/svg"
   xmlns="http://www.w3.org/2000/svg"
   xmlns:sodipodi="http://sodipodi.sourceforge.net/DTD/sodipodi-0.dtd"
   xmlns:inkscape="http://www.inkscape.org/namespaces/inkscape"
   version="1.1"
   id="svg2"
   xml:space="preserve"
   width="1344"
   height="1344"
   viewBox="0 0 1344 1344"
   sodipodi:docname="4f Floor.svg"
   inkscape:version="0.92.5 (0.92.5+68)"><metadata
     id="metadata8"><rdf:RDF><cc:Work
         rdf:about=""><dc:format>image/svg+xml</dc:format><dc:type
           rdf:resource="http://purl.org/dc/dcmitype/StillImage" /><dc:title></dc:title></cc:Work></rdf:RDF></metadata><defs
     id="defs6"><clipPath
       clipPathUnits="userSpaceOnUse"
       id="clipPath32"><path
         d="M 0,1008 H 1008 V 0 H 0 Z"
         id="path30"
         inkscape:connector-curvature="0" /></clipPath><clipPath
       clipPathUnits="userSpaceOnUse"
       id="clipPath72"><path
         d="M 0,1008 H 1008 V 0 H 0 Z"
         id="path70"
         inkscape:connector-curvature="0" /></clipPath></defs><sodipodi:namedview
     pagecolor="#ffffff"
     bordercolor="#666666"
     borderopacity="1"
     objecttolerance="10"
     gridtolerance="10"
     guidetolerance="10"
     inkscape:pageopacity="0"
     inkscape:pageshadow="2"
     inkscape:window-width="1855"
     inkscape:window-height="1056"
     id="namedview4"
     showgrid="false"
     inkscape:zoom="0.70238095"
     inkscape:cx="726.44334"
     inkscape:cy="652.51554"
     inkscape:window-x="65"
     inkscape:window-y="24"
     inkscape:window-maximized="1"
     inkscape:current-layer="g10" /><g
     id="g10"
     inkscape:groupmode="layer"
     inkscape:label="4f Floor"
     transform="matrix(1.3333333,0,0,-1.3333333,0,1344)"><text
       transform="matrix(1,0,0,-1,86.1162,50.2041)"
       style="font-variant:normal;font-weight:normal;font-stretch:normal;font-size:12px;font-family:'Myriad Pro';-inkscape-font-specification:MyriadPro-Regular;writing-mode:lr-tb;fill:#000000;fill-opacity:1;fill-rule:nonzero;stroke:none"
       id="text14"><tspan
         x="0 6.816 13.428 17.4 19.944 23.448 27.252001 33.84 43.848 46.391998 52.548 56.664001 62.82 68.975998 72.192001 74.736 80.112 82.944 88.956001 94.739998 98.664001 101.208 106.992 112.368 116.592 122.244 125.076 127.884 133.14 135.62399 138.168 145.93201 152.75999 159.588 165.60001 169.464 173.14799 175.98 181.992 185.6268 189.5988 192.14281 194.97479 200.9868 204.9588 208.8576 214.8696 218.79359 223.54559 226.0896 236.0976 242.70959 247.46159 251.43359 253.9776 258.72961 261.5376 271.54559 278.3736 281.2056 286.8576 289.40161 296.22961 302.24161 304.78561 310.55759 313.3656 318.11761 320.9256 327.7536 330.5856 336.5976 339.1416 344.9256 351.5856 358.35361 360.89761 367.4856 374.1456 376.9776 382.62961 385.17361 391.7616 398.3736 402.34561 405.17761 407.9856 414.6456 420.65759 427.30441 429.78839 432.3324 439.1604 441.9924 448.00439 453.78839 458.54041 464.5524 467.09641 472.47241 479.13239 485.7204 492.30841 497.06039 503.07239 505.61639 512.3844 518.39642 525.22443 529.19641 535.85638"
         y="0"
         sodipodi:role="line"
         id="tspan12">Cut from 3/16” clear acrylic. Upper-left letters must simply be visible and only outlined, please choose depth.</tspan></text>
<path
       d="m 235.721,791.247 h -72 v 72 h 72 z"
       style="fill:none;stroke:#2d2d84;stroke-width:0.01;stroke-linecap:butt;stroke-linejoin:miter;stroke-miterlimit:4;stroke-dasharray:none;stroke-opacity:1"
       id="path16"
       inkscape:connector-curvature="0" /><text
       transform="matrix(1,0,0,-1,172.9312,842.377)"
       style="font-variant:normal;font-weight:normal;font-stretch:normal;font-size:12px;font-family:'Myriad Pro';-inkscape-font-specification:MyriadPro-Regular;writing-mode:lr-tb;fill:#000000;fill-opacity:1;fill-rule:nonzero;stroke:none"
       id="text20"><tspan
         x="0 6.1560001 9.3719997 11.916 16.667999 23.424 30.035999 35.82 39.624001 45.636002"
         y="0"
         sodipodi:role="line"
         id="tspan18">1” square </tspan></text>
<g
       id="g22"
       transform="translate(175.7632,842.377)"><path
         d="M 0,0 H 1.02 V 7.8 H 0.12 L -1.584,6.888 -1.38,6.084 -0.024,6.816 H 0 Z"
         style="fill:none;stroke:#2d2d84;stroke-width:0.01;stroke-linecap:butt;stroke-linejoin:miter;stroke-miterlimit:10;stroke-dasharray:none;stroke-opacity:1"
         id="path24"
         inkscape:connector-curvature="0" /></g><g
       id="g26"><g
         id="g28"
         clip-path="url(#clipPath32)"><g
           id="g34"
           transform="translate(180.2031,850.4888)"><path
             d="m 0,0 c -0.132,-0.864 -0.456,-2.112 -0.708,-2.82 l 0.672,0.084 C 0.288,-2.184 0.804,-0.9 1.08,0.108 Z M 1.776,0 C 1.644,-0.864 1.332,-2.112 1.068,-2.82 l 0.672,0.084 c 0.324,0.552 0.84,1.836 1.116,2.844 z"
             style="fill:none;stroke:#2d2d84;stroke-width:0.01;stroke-linecap:butt;stroke-linejoin:miter;stroke-miterlimit:10;stroke-dasharray:none;stroke-opacity:1"
             id="path36"
             inkscape:connector-curvature="0" /></g><g
           id="g38"
           transform="translate(185.3145,842.6528)"><path
             d="m 0,0 c 0.408,-0.24 0.996,-0.396 1.632,-0.396 1.38,0 2.172,0.72 2.172,1.74 0,0.864 -0.516,1.368 -1.524,1.752 C 1.524,3.384 1.176,3.6 1.176,4.08 c 0,0.432 0.348,0.792 0.972,0.792 0.54,0 0.96,-0.192 1.188,-0.336 L 3.6,5.304 C 3.276,5.496 2.76,5.664 2.172,5.664 0.924,5.664 0.168,4.896 0.168,3.96 c 0,-0.696 0.492,-1.272 1.536,-1.644 0.78,-0.288 1.08,-0.564 1.08,-1.068 0,-0.48 -0.36,-0.864 -1.128,-0.864 -0.528,0 -1.08,0.216 -1.392,0.42 z"
             style="fill:none;stroke:#2d2d84;stroke-width:0.01;stroke-linecap:butt;stroke-linejoin:miter;stroke-miterlimit:10;stroke-dasharray:none;stroke-opacity:1"
             id="path40"
             inkscape:connector-curvature="0" /></g><g
           id="g42"
           transform="translate(194.4346,840.001)"><path
             d="m 0,0 h 1.056 v 6.588 c 0,0.6 0.012,1.104 0.036,1.596 H 0.096 L 0.06,7.308 H 0.036 c -0.288,0.564 -0.888,1.008 -1.788,1.008 -1.224,0 -2.628,-0.96 -2.628,-3.132 0,-1.764 1.104,-2.94 2.46,-2.94 0.936,0 1.584,0.456 1.896,1.032 L 0,3.276 Z M 0,4.74 C 0,4.584 -0.036,4.38 -0.084,4.236 -0.324,3.504 -0.912,3.084 -1.596,3.084 c -1.164,0 -1.716,1.008 -1.716,2.16 0,1.308 0.66,2.232 1.752,2.232 0.792,0 1.356,-0.552 1.512,-1.2 C -0.012,6.144 0,5.976 0,5.832 Z"
             style="fill:none;stroke:#2d2d84;stroke-width:0.01;stroke-linecap:butt;stroke-linejoin:miter;stroke-miterlimit:10;stroke-dasharray:none;stroke-opacity:1"
             id="path44"
             inkscape:connector-curvature="0" /></g><g
           id="g46"
           transform="translate(202.0903,848.1851)"><path
             d="m 0,0 h -1.056 v -3.564 c 0,-0.192 -0.036,-0.384 -0.096,-0.54 -0.192,-0.468 -0.684,-0.96 -1.392,-0.96 -0.96,0 -1.296,0.744 -1.296,1.848 V 0 h -1.056 v -3.396 c 0,-2.04 1.092,-2.544 2.004,-2.544 1.032,0 1.644,0.612 1.92,1.08 h 0.024 l 0.06,-0.948 H 0.048 C 0.012,-5.352 0,-4.824 0,-4.224 Z"
             style="fill:none;stroke:#2d2d84;stroke-width:0.01;stroke-linecap:butt;stroke-linejoin:miter;stroke-miterlimit:10;stroke-dasharray:none;stroke-opacity:1"
             id="path48"
             inkscape:connector-curvature="0" /></g><g
           id="g50"
           transform="translate(208.0186,842.377)"><path
             d="m 0,0 c -0.072,0.396 -0.096,0.888 -0.096,1.392 v 2.172 c 0,1.164 -0.432,2.376 -2.208,2.376 -0.732,0 -1.428,-0.204 -1.908,-0.516 l 0.24,-0.696 C -3.564,4.992 -3,5.16 -2.46,5.16 c 1.188,0 1.32,-0.864 1.32,-1.344 v -0.12 c -2.244,0.012 -3.492,-0.756 -3.492,-2.16 0,-0.84 0.6,-1.668 1.776,-1.668 0.828,0 1.452,0.408 1.776,0.864 h 0.036 L -0.96,0 Z M -1.116,1.956 C -1.116,1.848 -1.14,1.728 -1.176,1.62 -1.344,1.128 -1.824,0.648 -2.58,0.648 c -0.54,0 -0.996,0.324 -0.996,1.008 0,1.128 1.308,1.332 2.46,1.308 z"
             style="fill:none;stroke:#2d2d84;stroke-width:0.01;stroke-linecap:butt;stroke-linejoin:miter;stroke-miterlimit:10;stroke-dasharray:none;stroke-opacity:1"
             id="path52"
             inkscape:connector-curvature="0" /></g><g
           id="g54"
           transform="translate(209.626,842.377)"><path
             d="m 0,0 h 1.044 v 3.096 c 0,0.18 0.024,0.348 0.048,0.492 0.144,0.792 0.672,1.356 1.416,1.356 0.144,0 0.252,-0.012 0.36,-0.036 V 5.904 C 2.772,5.928 2.688,5.94 2.568,5.94 1.86,5.94 1.224,5.448 0.96,4.668 H 0.912 L 0.876,5.808 H -0.048 C -0.012,5.268 0,4.68 0,3.996 Z"
             style="fill:none;stroke:#2d2d84;stroke-width:0.01;stroke-linecap:butt;stroke-linejoin:miter;stroke-miterlimit:10;stroke-dasharray:none;stroke-opacity:1"
             id="path56"
             inkscape:connector-curvature="0" /></g><g
           id="g58"
           transform="translate(218.0981,845.0889)"><path
             d="m 0,0 c 0.012,0.108 0.036,0.276 0.036,0.492 0,1.068 -0.504,2.736 -2.4,2.736 -1.692,0 -2.724,-1.38 -2.724,-3.132 0,-1.752 1.068,-2.928 2.856,-2.928 0.924,0 1.56,0.192 1.932,0.36 l -0.18,0.756 c -0.396,-0.168 -0.852,-0.3 -1.608,-0.3 -1.056,0 -1.968,0.588 -1.992,2.016 z m -4.068,0.756 c 0.084,0.732 0.552,1.716 1.62,1.716 1.188,0 1.476,-1.044 1.464,-1.716 z"
             style="fill:none;stroke:#2d2d84;stroke-width:0.01;stroke-linecap:butt;stroke-linejoin:miter;stroke-miterlimit:10;stroke-dasharray:none;stroke-opacity:1"
             id="path60"
             inkscape:connector-curvature="0" /></g></g></g><text
       transform="matrix(1,0,0,-1,172.9312,827.9771)"
       style="font-variant:normal;font-weight:normal;font-stretch:normal;font-size:12px;font-family:'Myriad Pro';-inkscape-font-specification:MyriadPro-Regular;writing-mode:lr-tb;fill:#000000;fill-opacity:1;fill-rule:nonzero;stroke:none"
       id="text64"><tspan
         x="0 3.8039999 9.816 13.164 19.176001 22.981199 28.9932 35.653198 40.957199"
         y="0"
         sodipodi:role="line"
         id="tspan62">reference</tspan></text>
<g
       id="g66"
       style="stroke-width:0.75000002;stroke-miterlimit:4;stroke-dasharray:none"><g
         id="g68"
         clip-path="url(#clipPath72)"
         style="stroke-width:0.75000002;stroke-miterlimit:4;stroke-dasharray:none"><g
           id="g74"
           transform="translate(173.8071,827.9771)"
           style="stroke-width:0.75000002;stroke-miterlimit:4;stroke-dasharray:none"><path
             d="m 0,0 h 1.044 v 3.096 c 0,0.18 0.024,0.348 0.048,0.492 0.144,0.792 0.672,1.356 1.416,1.356 0.144,0 0.252,-0.012 0.36,-0.036 V 5.904 C 2.772,5.928 2.688,5.94 2.568,5.94 1.86,5.94 1.224,5.448 0.96,4.668 H 0.912 L 0.876,5.808 H -0.048 C -0.012,5.268 0,4.68 0,3.996 Z"
             style="fill:none;stroke:#2d2d84;stroke-width:0.75000002;stroke-linecap:butt;stroke-linejoin:miter;stroke-miterlimit:4;stroke-dasharray:none;stroke-opacity:1"
             id="path76"
             inkscape:connector-curvature="0" /></g><g
           id="g78"
           transform="translate(182.2788,830.689)"
           style="stroke-width:0.75000002;stroke-miterlimit:4;stroke-dasharray:none"><path
             d="m 0,0 c 0.012,0.108 0.036,0.276 0.036,0.492 0,1.068 -0.504,2.736 -2.4,2.736 -1.692,0 -2.724,-1.38 -2.724,-3.132 0,-1.752 1.068,-2.928 2.856,-2.928 0.924,0 1.56,0.192 1.932,0.36 l -0.18,0.756 c -0.396,-0.168 -0.852,-0.3 -1.608,-0.3 -1.056,0 -1.968,0.588 -1.992,2.016 z m -4.068,0.756 c 0.084,0.732 0.552,1.716 1.62,1.716 1.188,0 1.476,-1.044 1.464,-1.716 z"
             style="fill:none;stroke:#2d2d84;stroke-width:0.75000002;stroke-linecap:butt;stroke-linejoin:miter;stroke-miterlimit:4;stroke-dasharray:none;stroke-opacity:1"
             id="path80"
             inkscape:connector-curvature="0" /></g><g
           id="g82"
           transform="translate(184.7744,827.9771)"
           style="stroke-width:0.75000002;stroke-miterlimit:4;stroke-dasharray:none"><path
             d="M 0,0 V 5.004 H 1.404 V 5.808 H 0 V 6.12 C 0,7.008 0.228,7.8 1.128,7.8 1.428,7.8 1.644,7.74 1.8,7.668 L 1.944,8.484 C 1.74,8.568 1.416,8.652 1.044,8.652 0.552,8.652 0.024,8.496 -0.372,8.112 -0.864,7.644 -1.044,6.9 -1.044,6.084 V 5.808 H -1.86 V 5.004 h 0.816 V 0 Z"
             style="fill:none;stroke:#2d2d84;stroke-width:0.75000002;stroke-linecap:butt;stroke-linejoin:miter;stroke-miterlimit:4;stroke-dasharray:none;stroke-opacity:1"
             id="path84"
             inkscape:connector-curvature="0" /></g><g
           id="g86"
           transform="translate(191.6387,830.689)"
           style="stroke-width:0.75000002;stroke-miterlimit:4;stroke-dasharray:none"><path
             d="m 0,0 c 0.012,0.108 0.036,0.276 0.036,0.492 0,1.068 -0.504,2.736 -2.4,2.736 -1.692,0 -2.724,-1.38 -2.724,-3.132 0,-1.752 1.068,-2.928 2.856,-2.928 0.924,0 1.56,0.192 1.932,0.36 l -0.18,0.756 c -0.396,-0.168 -0.852,-0.3 -1.608,-0.3 -1.056,0 -1.968,0.588 -1.992,2.016 z m -4.068,0.756 c 0.084,0.732 0.552,1.716 1.62,1.716 1.188,0 1.476,-1.044 1.464,-1.716 z"
             style="fill:none;stroke:#2d2d84;stroke-width:0.75000002;stroke-linecap:butt;stroke-linejoin:miter;stroke-miterlimit:4;stroke-dasharray:none;stroke-opacity:1"
             id="path88"
             inkscape:connector-curvature="0" /></g><g
           id="g90"
           transform="translate(192.9824,827.9771)"
           style="stroke-width:0.75000002;stroke-miterlimit:4;stroke-dasharray:none"><path
             d="m 0,0 h 1.044 v 3.096 c 0,0.18 0.024,0.348 0.048,0.492 0.144,0.792 0.672,1.356 1.416,1.356 0.144,0 0.252,-0.012 0.36,-0.036 V 5.904 C 2.772,5.928 2.688,5.94 2.568,5.94 1.86,5.94 1.224,5.448 0.96,4.668 H 0.912 L 0.876,5.808 H -0.048 C -0.012,5.268 0,4.68 0,3.996 Z"
             style="fill:none;stroke:#2d2d84;stroke-width:0.75000002;stroke-linecap:butt;stroke-linejoin:miter;stroke-miterlimit:4;stroke-dasharray:none;stroke-opacity:1"
             id="path92"
             inkscape:connector-curvature="0" /></g><g
           id="g94"
           transform="translate(201.4546,830.689)"
           style="stroke-width:0.75000002;stroke-miterlimit:4;stroke-dasharray:none"><path
             d="m 0,0 c 0.012,0.108 0.036,0.276 0.036,0.492 0,1.068 -0.504,2.736 -2.4,2.736 -1.692,0 -2.724,-1.38 -2.724,-3.132 0,-1.752 1.068,-2.928 2.856,-2.928 0.924,0 1.56,0.192 1.932,0.36 l -0.18,0.756 c -0.396,-0.168 -0.852,-0.3 -1.608,-0.3 -1.056,0 -1.968,0.588 -1.992,2.016 z m -4.068,0.756 c 0.084,0.732 0.552,1.716 1.62,1.716 1.188,0 1.476,-1.044 1.464,-1.716 z"
             style="fill:none;stroke:#2d2d84;stroke-width:0.75000002;stroke-linecap:butt;stroke-linejoin:miter;stroke-miterlimit:4;stroke-dasharray:none;stroke-opacity:1"
             id="path96"
             inkscape:connector-curvature="0" /></g><g
           id="g98"
           transform="translate(202.7983,827.9771)"
           style="stroke-width:0.75000002;stroke-miterlimit:4;stroke-dasharray:none"><path
             d="m 0,0 h 1.056 v 3.492 c 0,0.18 0.024,0.36 0.072,0.492 0.18,0.588 0.72,1.08 1.416,1.08 0.996,0 1.344,-0.78 1.344,-1.716 V 0 H 4.944 V 3.468 C 4.944,5.46 3.696,5.94 2.892,5.94 1.932,5.94 1.26,5.4 0.972,4.848 H 0.948 l -0.06,0.96 H -0.048 C -0.012,5.328 0,4.836 0,4.236 Z"
             style="fill:none;stroke:#2d2d84;stroke-width:0.75000002;stroke-linecap:butt;stroke-linejoin:miter;stroke-miterlimit:4;stroke-dasharray:none;stroke-opacity:1"
             id="path100"
             inkscape:connector-curvature="0" /></g><g
           id="g102"
           transform="translate(213.418,828.9849)"
           style="stroke-width:0.75000002;stroke-miterlimit:4;stroke-dasharray:none"><path
             d="m 0,0 c -0.3,-0.132 -0.696,-0.288 -1.296,-0.288 -1.152,0 -2.016,0.828 -2.016,2.172 0,1.212 0.72,2.196 2.052,2.196 0.576,0 0.972,-0.132 1.224,-0.276 l 0.24,0.816 c -0.288,0.144 -0.84,0.3 -1.464,0.3 -1.896,0 -3.12,-1.296 -3.12,-3.084 0,-1.776 1.14,-2.964 2.892,-2.964 0.78,0 1.392,0.192 1.668,0.336 z"
             style="fill:none;stroke:#2d2d84;stroke-width:0.75000002;stroke-linecap:butt;stroke-linejoin:miter;stroke-miterlimit:4;stroke-dasharray:none;stroke-opacity:1"
             id="path104"
             inkscape:connector-curvature="0" /></g><g
           id="g106"
           transform="translate(219.4297,830.689)"
           style="stroke-width:0.75000002;stroke-miterlimit:4;stroke-dasharray:none"><path
             d="m 0,0 c 0.012,0.108 0.036,0.276 0.036,0.492 0,1.068 -0.504,2.736 -2.4,2.736 -1.692,0 -2.724,-1.38 -2.724,-3.132 0,-1.752 1.068,-2.928 2.856,-2.928 0.924,0 1.56,0.192 1.932,0.36 l -0.18,0.756 c -0.396,-0.168 -0.852,-0.3 -1.608,-0.3 -1.056,0 -1.968,0.588 -1.992,2.016 z m -4.068,0.756 c 0.084,0.732 0.552,1.716 1.62,1.716 1.188,0 1.476,-1.044 1.464,-1.716 z"
             style="fill:none;stroke:#2d2d84;stroke-width:0.75000002;stroke-linecap:butt;stroke-linejoin:miter;stroke-miterlimit:4;stroke-dasharray:none;stroke-opacity:1"
             id="path108"
             inkscape:connector-curvature="0" /></g><g
           id="g110"
           transform="translate(121.4629,892.3389)"
           style="stroke-width:0.75000002;stroke-miterlimit:4;stroke-dasharray:none"><path
             d="m 0,0 v 8.503 h 4.371 v 3.314 H 0 V 31.225 H -4.564 L -18.495,11.289 V 8.503 h 14.508 l 0,-8.503 z m -14.22,11.817 v 0.097 l 7.638,10.616 c 0.865,1.442 1.634,2.786 2.595,4.612 h 0.144 c -0.096,-1.633 -0.144,-3.267 -0.144,-4.9 V 11.817 Z"
             style="fill:none;stroke:#7c797a;stroke-width:0.75000002;stroke-linecap:butt;stroke-linejoin:miter;stroke-miterlimit:4;stroke-dasharray:none;stroke-opacity:1"
             id="path112"
             inkscape:connector-curvature="0" /></g><g
           id="g114"
           transform="translate(135.0088,892.3389)"
           style="stroke-width:0.75000002;stroke-miterlimit:4;stroke-dasharray:none"><path
             d="m 0,0 v 20.032 h 5.621 v 3.219 H 0 V 24.5 c 0,3.555 0.913,6.725 4.516,6.725 1.201,0 2.065,-0.24 2.69,-0.528 l 0.576,3.266 C 6.966,34.3 5.668,34.636 4.179,34.636 2.21,34.636 0.096,34.012 -1.489,32.474 -3.459,30.601 -4.18,27.623 -4.18,24.356 V 23.251 H -7.446 V 20.032 H -4.18 V 0 Z"
             style="fill:none;stroke:#7c797a;stroke-width:0.75000002;stroke-linecap:butt;stroke-linejoin:miter;stroke-miterlimit:4;stroke-dasharray:none;stroke-opacity:1"
             id="path116"
             inkscape:connector-curvature="0" /></g><g
           id="g118"
           transform="translate(449.9195,873.7742)"
           style="stroke-width:0.75000002;stroke-miterlimit:4;stroke-dasharray:none"><path
             d="m 0,0 c 4.235,0 7.668,-3.434 7.668,-7.669 0,-4.234 -3.433,-7.667 -7.668,-7.667 -4.235,0 -7.668,3.433 -7.668,7.667 C -7.668,-3.434 -4.235,0 0,0 Z"
             style="fill:none;stroke:#42489d;stroke-width:0.75000002;stroke-linecap:round;stroke-linejoin:round;stroke-miterlimit:4;stroke-dasharray:none;stroke-opacity:1"
             id="path120"
             inkscape:connector-curvature="0" /></g><g
           id="g122"
           transform="translate(218.9843,749.2642)"
           style="stroke-width:0.75000002;stroke-miterlimit:4;stroke-dasharray:none"><path
             d="m 0,0 c 0,-3.351 -2.719,-6.068 -6.068,-6.068 -3.35,0 -6.067,2.717 -6.067,6.068 0,3.351 2.717,6.067 6.067,6.067 C -2.719,6.067 0,3.351 0,0 Z"
             style="fill:none;stroke:#42489d;stroke-width:0.75000002;stroke-linecap:round;stroke-linejoin:round;stroke-miterlimit:4;stroke-dasharray:none;stroke-opacity:1"
             id="path124"
             inkscape:connector-curvature="0" /></g><g
           id="g126"
           transform="translate(234.9971,263.9236)"
           style="stroke-width:0.75000002;stroke-miterlimit:4;stroke-dasharray:none"><path
             d="m 0,0 c 0,-3.35 -2.719,-6.066 -6.068,-6.066 -3.35,0 -6.067,2.716 -6.067,6.066 0,3.352 2.717,6.068 6.067,6.068 C -2.719,6.068 0,3.352 0,0 Z"
             style="fill:none;stroke:#42489d;stroke-width:0.75000002;stroke-linecap:round;stroke-linejoin:round;stroke-miterlimit:4;stroke-dasharray:none;stroke-opacity:1"
             id="path128"
             inkscape:connector-curvature="0" /></g><g
           id="g130"
           transform="translate(841.079,749.2642)"
           style="stroke-width:0.75000002;stroke-miterlimit:4;stroke-dasharray:none"><path
             d="m 0,0 c 0,-3.351 -2.718,-6.067 -6.067,-6.067 -3.351,0 -6.068,2.716 -6.068,6.067 0,3.351 2.717,6.066 6.068,6.066 C -2.718,6.066 0,3.351 0,0 Z"
             style="fill:none;stroke:#42489d;stroke-width:0.75000002;stroke-linecap:round;stroke-linejoin:round;stroke-miterlimit:4;stroke-dasharray:none;stroke-opacity:1"
             id="path132"
             inkscape:connector-curvature="0" /></g><g
           id="g134"
           transform="translate(380.4861,863.2468)"
           style="stroke-width:0.75000002;stroke-miterlimit:4;stroke-dasharray:none"><path
             d="m 0,0 c 0,-3.35 -2.719,-6.067 -6.068,-6.067 -3.349,0 -6.067,2.717 -6.067,6.067 0,3.35 2.718,6.067 6.067,6.067 C -2.719,6.067 0,3.35 0,0 Z"
             style="fill:none;stroke:#42489d;stroke-width:0.75000002;stroke-linecap:round;stroke-linejoin:round;stroke-miterlimit:4;stroke-dasharray:none;stroke-opacity:1"
             id="path136"
             inkscape:connector-curvature="0" /></g><g
           id="g138"
           transform="translate(677.8469,860.244)"
           style="stroke-width:0.75000002;stroke-miterlimit:4;stroke-dasharray:none"><path
             d="m 0,0 c 0,-3.284 -2.664,-5.948 -5.948,-5.948 -3.285,0 -5.948,2.664 -5.948,5.948 0,3.284 2.663,5.948 5.948,5.948 C -2.664,5.948 0,3.284 0,0 Z"
             style="fill:none;stroke:#42489d;stroke-width:0.75000002;stroke-linecap:round;stroke-linejoin:round;stroke-miterlimit:4;stroke-dasharray:none;stroke-opacity:1"
             id="path140"
             inkscape:connector-curvature="0" /></g><g
           id="g142"
           transform="translate(381.5844,138.4523)"
           style="stroke-width:0.75000002;stroke-miterlimit:4;stroke-dasharray:none"><path
             d="m 0,0 c 0,-3.351 -2.719,-6.068 -6.068,-6.068 -3.349,0 -6.067,2.717 -6.067,6.068 0,3.35 2.718,6.066 6.067,6.066 C -2.719,6.066 0,3.35 0,0 Z"
             style="fill:none;stroke:#42489d;stroke-width:0.75000002;stroke-linecap:round;stroke-linejoin:round;stroke-miterlimit:4;stroke-dasharray:none;stroke-opacity:1"
             id="path144"
             inkscape:connector-curvature="0" /></g><g
           id="g146"
           transform="translate(679.9991,138.5477)"
           style="stroke-width:0.75000002;stroke-miterlimit:4;stroke-dasharray:none"><path
             d="m 0,0 c 0,-3.351 -2.718,-6.068 -6.068,-6.068 -3.351,0 -6.068,2.717 -6.068,6.068 0,3.35 2.717,6.065 6.068,6.065 C -2.718,6.065 0,3.35 0,0 Z"
             style="fill:none;stroke:#42489d;stroke-width:0.75000002;stroke-linecap:round;stroke-linejoin:round;stroke-miterlimit:4;stroke-dasharray:none;stroke-opacity:1"
             id="path148"
             inkscape:connector-curvature="0" /></g><g
           id="g150"
           transform="translate(822.0809,261.922)"
           style="stroke-width:0.75000002;stroke-miterlimit:4;stroke-dasharray:none"><path
             d="m 0,0 c 0,-3.359 -2.726,-6.082 -6.084,-6.082 -3.361,0 -6.085,2.723 -6.085,6.082 0,3.361 2.724,6.084 6.085,6.084 C -2.726,6.084 0,3.361 0,0 Z"
             style="fill:none;stroke:#42489d;stroke-width:0.75000002;stroke-linecap:round;stroke-linejoin:round;stroke-miterlimit:4;stroke-dasharray:none;stroke-opacity:1"
             id="path152"
             inkscape:connector-curvature="0" /></g><g
           id="g154"
           transform="translate(304.5309,757.2975)"
           style="stroke-width:0.75000002;stroke-miterlimit:4;stroke-dasharray:none"><path
             d="m 0,0 c 0,-1.418 -1.161,-2.566 -2.592,-2.566 -1.432,0 -2.592,1.148 -2.592,2.566 0,1.417 1.16,2.566 2.592,2.566 C -1.161,2.566 0,1.417 0,0 Z"
             style="fill:none;stroke:#42489d;stroke-width:0.75000002;stroke-linecap:round;stroke-linejoin:round;stroke-miterlimit:4;stroke-dasharray:none;stroke-opacity:1"
             id="path156"
             inkscape:connector-curvature="0" /></g><g
           id="g158"
           transform="translate(452.6162,757.0284)"
           style="stroke-width:0.75000002;stroke-miterlimit:4;stroke-dasharray:none"><path
             d="m 0,0 c 0,-1.432 -1.16,-2.592 -2.591,-2.592 -1.432,0 -2.593,1.16 -2.593,2.592 0,1.432 1.161,2.592 2.593,2.592 C -1.16,2.592 0,1.432 0,0 Z"
             style="fill:none;stroke:#42489d;stroke-width:0.75000002;stroke-linecap:round;stroke-linejoin:round;stroke-miterlimit:4;stroke-dasharray:none;stroke-opacity:1"
             id="path160"
             inkscape:connector-curvature="0" /></g><g
           id="g162"
           transform="translate(600.666,757.0284)"
           style="stroke-width:0.75000002;stroke-miterlimit:4;stroke-dasharray:none"><path
             d="m 0,0 c 0,-1.432 -1.16,-2.592 -2.591,-2.592 -1.432,0 -2.593,1.16 -2.593,2.592 0,1.432 1.161,2.592 2.593,2.592 C -1.16,2.592 0,1.432 0,0 Z"
             style="fill:none;stroke:#42489d;stroke-width:0.75000002;stroke-linecap:round;stroke-linejoin:round;stroke-miterlimit:4;stroke-dasharray:none;stroke-opacity:1"
             id="path164"
             inkscape:connector-curvature="0" /></g><g
           id="g166"
           transform="translate(748.7161,757.2713)"
           style="stroke-width:0.75000002;stroke-miterlimit:4;stroke-dasharray:none"><path
             d="m 0,0 c 0,-1.432 -1.16,-2.591 -2.591,-2.591 -1.432,0 -2.593,1.159 -2.593,2.591 0,1.432 1.161,2.592 2.593,2.592 C -1.16,2.592 0,1.432 0,0 Z"
             style="fill:none;stroke:#42489d;stroke-width:0.75000002;stroke-linecap:round;stroke-linejoin:round;stroke-miterlimit:4;stroke-dasharray:none;stroke-opacity:1"
             id="path168"
             inkscape:connector-curvature="0" /></g><g
           id="g170"
           transform="translate(529.9228,757.0821)"
           style="stroke-width:0.75000002;stroke-miterlimit:4;stroke-dasharray:none"><path
             d="m 0,0 c 0,-3.35 -2.719,-6.067 -6.068,-6.067 -3.349,0 -6.067,2.717 -6.067,6.067 0,3.35 2.718,6.067 6.067,6.067 C -2.719,6.067 0,3.35 0,0 Z"
             style="fill:none;stroke:#42489d;stroke-width:0.75000002;stroke-linecap:round;stroke-linejoin:round;stroke-miterlimit:4;stroke-dasharray:none;stroke-opacity:1"
             id="path172"
             inkscape:connector-curvature="0" /></g><g
           id="g174"
           transform="translate(530.0649,250.3322)"
           style="stroke-width:0.75000002;stroke-miterlimit:4;stroke-dasharray:none"><path
             d="m 0,0 c 0,-3.35 -2.719,-6.067 -6.068,-6.067 -3.349,0 -6.067,2.717 -6.067,6.067 0,3.35 2.718,6.067 6.067,6.067 C -2.719,6.067 0,3.35 0,0 Z"
             style="fill:none;stroke:#42489d;stroke-width:0.75000002;stroke-linecap:round;stroke-linejoin:round;stroke-miterlimit:4;stroke-dasharray:none;stroke-opacity:1"
             id="path176"
             inkscape:connector-curvature="0" /></g><g
           id="g178"
           transform="translate(190.6621,597.9637)"
           style="stroke-width:0.75000002;stroke-miterlimit:4;stroke-dasharray:none"><path
             d="m 0,0 c 0,-3.35 -2.719,-6.067 -6.068,-6.067 -3.349,0 -6.067,2.717 -6.067,6.067 0,3.35 2.718,6.067 6.067,6.067 C -2.719,6.067 0,3.35 0,0 Z"
             style="fill:none;stroke:#42489d;stroke-width:0.75000002;stroke-linecap:round;stroke-linejoin:round;stroke-miterlimit:4;stroke-dasharray:none;stroke-opacity:1"
             id="path180"
             inkscape:connector-curvature="0" /></g><g
           id="g182"
           transform="translate(190.7298,405.469)"
           style="stroke-width:0.75000002;stroke-miterlimit:4;stroke-dasharray:none"><path
             d="m 0,0 c 0,-3.35 -2.719,-6.067 -6.068,-6.067 -3.349,0 -6.067,2.717 -6.067,6.067 0,3.35 2.718,6.067 6.067,6.067 C -2.719,6.067 0,3.35 0,0 Z"
             style="fill:none;stroke:#42489d;stroke-width:0.75000002;stroke-linecap:round;stroke-linejoin:round;stroke-miterlimit:4;stroke-dasharray:none;stroke-opacity:1"
             id="path184"
             inkscape:connector-curvature="0" /></g><g
           id="g186"
           transform="translate(869.4178,601.1979)"
           style="stroke-width:0.75000002;stroke-miterlimit:4;stroke-dasharray:none"><path
             d="m 0,0 c 0,-3.35 -2.719,-6.067 -6.068,-6.067 -3.349,0 -6.067,2.717 -6.067,6.067 0,3.35 2.718,6.067 6.067,6.067 C -2.719,6.067 0,3.35 0,0 Z"
             style="fill:none;stroke:#42489d;stroke-width:0.75000002;stroke-linecap:round;stroke-linejoin:round;stroke-miterlimit:4;stroke-dasharray:none;stroke-opacity:1"
             id="path188"
             inkscape:connector-curvature="0" /></g><g
           id="g190"
           transform="translate(866.8772,401.9255)"
           style="stroke-width:0.75000002;stroke-miterlimit:4;stroke-dasharray:none"><path
             d="m 0,0 c 0,-3.35 -2.719,-6.067 -6.068,-6.067 -3.349,0 -6.067,2.717 -6.067,6.067 0,3.35 2.718,6.067 6.067,6.067 C -2.719,6.067 0,3.35 0,0 Z"
             style="fill:none;stroke:#42489d;stroke-width:0.75000002;stroke-linecap:round;stroke-linejoin:round;stroke-miterlimit:4;stroke-dasharray:none;stroke-opacity:1"
             id="path192"
             inkscape:connector-curvature="0" /></g><g
           id="g194"
           transform="translate(301.8781,873.7742)"
           style="stroke-width:0.75000002;stroke-miterlimit:4;stroke-dasharray:none"><path
             d="m 0,0 c 4.235,0 7.669,-3.434 7.669,-7.669 0,-4.234 -3.434,-7.667 -7.669,-7.667 -4.235,0 -7.668,3.433 -7.668,7.667 C -7.668,-3.434 -4.235,0 0,0 Z"
             style="fill:none;stroke:#42489d;stroke-width:0.75000002;stroke-linecap:round;stroke-linejoin:round;stroke-miterlimit:4;stroke-dasharray:none;stroke-opacity:1"
             id="path196"
             inkscape:connector-curvature="0" /></g><g
           id="g198"
           transform="translate(597.9567,873.7742)"
           style="stroke-width:0.75000002;stroke-miterlimit:4;stroke-dasharray:none"><path
             d="m 0,0 c 4.235,0 7.669,-3.434 7.669,-7.669 0,-4.234 -3.434,-7.667 -7.669,-7.667 -4.235,0 -7.668,3.433 -7.668,7.667 C -7.668,-3.434 -4.235,0 0,0 Z"
             style="fill:none;stroke:#42489d;stroke-width:0.75000002;stroke-linecap:round;stroke-linejoin:round;stroke-miterlimit:4;stroke-dasharray:none;stroke-opacity:1"
             id="path200"
             inkscape:connector-curvature="0" /></g><g
           id="g202"
           transform="translate(745.9991,873.7742)"
           style="stroke-width:0.75000002;stroke-miterlimit:4;stroke-dasharray:none"><path
             d="m 0,0 c 4.235,0 7.669,-3.434 7.669,-7.669 0,-4.234 -3.434,-7.667 -7.669,-7.667 -4.235,0 -7.668,3.433 -7.668,7.667 C -7.668,-3.434 -4.235,0 0,0 Z"
             style="fill:none;stroke:#42489d;stroke-width:0.75000002;stroke-linecap:round;stroke-linejoin:round;stroke-miterlimit:4;stroke-dasharray:none;stroke-opacity:1"
             id="path204"
             inkscape:connector-curvature="0" /></g><g
           id="g206"
           transform="translate(450.0241,158.7742)"
           style="stroke-width:0.75000002;stroke-miterlimit:4;stroke-dasharray:none"><path
             d="m 0,0 c 4.235,0 7.669,-3.434 7.669,-7.669 0,-4.234 -3.434,-7.667 -7.669,-7.667 -4.235,0 -7.668,3.433 -7.668,7.667 C -7.668,-3.434 -4.235,0 0,0 Z"
             style="fill:none;stroke:#42489d;stroke-width:0.75000002;stroke-linecap:round;stroke-linejoin:round;stroke-miterlimit:4;stroke-dasharray:none;stroke-opacity:1"
             id="path208"
             inkscape:connector-curvature="0" /></g><g
           id="g210"
           transform="translate(302.0828,158.7742)"
           style="stroke-width:0.75000002;stroke-miterlimit:4;stroke-dasharray:none"><path
             d="m 0,0 c 4.235,0 7.668,-3.434 7.668,-7.669 0,-4.234 -3.433,-7.667 -7.668,-7.667 -4.235,0 -7.668,3.433 -7.668,7.667 C -7.668,-3.434 -4.235,0 0,0 Z"
             style="fill:none;stroke:#42489d;stroke-width:0.75000002;stroke-linecap:round;stroke-linejoin:round;stroke-miterlimit:4;stroke-dasharray:none;stroke-opacity:1"
             id="path212"
             inkscape:connector-curvature="0" /></g><g
           id="g214"
           transform="translate(597.9567,158.7742)"
           style="stroke-width:0.75000002;stroke-miterlimit:4;stroke-dasharray:none"><path
             d="m 0,0 c 4.235,0 7.669,-3.434 7.669,-7.669 0,-4.234 -3.434,-7.667 -7.669,-7.667 -4.235,0 -7.668,3.433 -7.668,7.667 C -7.668,-3.434 -4.235,0 0,0 Z"
             style="fill:none;stroke:#42489d;stroke-width:0.75000002;stroke-linecap:round;stroke-linejoin:round;stroke-miterlimit:4;stroke-dasharray:none;stroke-opacity:1"
             id="path216"
             inkscape:connector-curvature="0" /></g><g
           id="g218"
           transform="translate(745.9991,158.7742)"
           style="stroke-width:0.75000002;stroke-miterlimit:4;stroke-dasharray:none"><path
             d="m 0,0 c 4.235,0 7.669,-3.434 7.669,-7.669 0,-4.234 -3.434,-7.667 -7.669,-7.667 -4.235,0 -7.668,3.433 -7.668,7.667 C -7.668,-3.434 -4.235,0 0,0 Z"
             style="fill:none;stroke:#42489d;stroke-width:0.75000002;stroke-linecap:round;stroke-linejoin:round;stroke-miterlimit:4;stroke-dasharray:none;stroke-opacity:1"
             id="path220"
             inkscape:connector-curvature="0" /></g><g
           id="g222"
           transform="translate(452.5115,840.4004)"
           style="stroke-width:0.75000002;stroke-miterlimit:4;stroke-dasharray:none"><path
             d="m 0,0 c 0,-1.432 -1.16,-2.592 -2.591,-2.592 -1.432,0 -2.593,1.16 -2.593,2.592 0,1.432 1.161,2.592 2.593,2.592 C -1.16,2.592 0,1.432 0,0 Z"
             style="fill:none;stroke:#42489d;stroke-width:0.75000002;stroke-linecap:round;stroke-linejoin:round;stroke-miterlimit:4;stroke-dasharray:none;stroke-opacity:1"
             id="path224"
             inkscape:connector-curvature="0" /></g><g
           id="g226"
           transform="translate(600.5487,840.4004)"
           style="stroke-width:0.75000002;stroke-miterlimit:4;stroke-dasharray:none"><path
             d="m 0,0 c 0,-1.432 -1.16,-2.592 -2.591,-2.592 -1.432,0 -2.593,1.16 -2.593,2.592 0,1.432 1.161,2.592 2.593,2.592 C -1.16,2.592 0,1.432 0,0 Z"
             style="fill:none;stroke:#42489d;stroke-width:0.75000002;stroke-linecap:round;stroke-linejoin:round;stroke-miterlimit:4;stroke-dasharray:none;stroke-opacity:1"
             id="path228"
             inkscape:connector-curvature="0" /></g><g
           id="g230"
           transform="translate(748.5911,840.4004)"
           style="stroke-width:0.75000002;stroke-miterlimit:4;stroke-dasharray:none"><path
             d="m 0,0 c 0,-1.432 -1.16,-2.592 -2.591,-2.592 -1.432,0 -2.593,1.16 -2.593,2.592 0,1.432 1.161,2.592 2.593,2.592 C -1.16,2.592 0,1.432 0,0 Z"
             style="fill:none;stroke:#42489d;stroke-width:0.75000002;stroke-linecap:round;stroke-linejoin:round;stroke-miterlimit:4;stroke-dasharray:none;stroke-opacity:1"
             id="path232"
             inkscape:connector-curvature="0" /></g><g
           id="g234"
           transform="translate(304.8405,840.4004)"
           style="stroke-width:0.75000002;stroke-miterlimit:4;stroke-dasharray:none"><path
             d="m 0,0 c 0,-1.432 -1.16,-2.592 -2.591,-2.592 -1.432,0 -2.593,1.16 -2.593,2.592 0,1.432 1.161,2.592 2.593,2.592 C -1.16,2.592 0,1.432 0,0 Z"
             style="fill:none;stroke:#42489d;stroke-width:0.75000002;stroke-linecap:round;stroke-linejoin:round;stroke-miterlimit:4;stroke-dasharray:none;stroke-opacity:1"
             id="path236"
             inkscape:connector-curvature="0" /></g><g
           id="g238"
           transform="translate(230.5454,504.2655)"
           style="stroke-width:0.75000002;stroke-miterlimit:4;stroke-dasharray:none"><path
             d="m 0,0 c 0,-4.282 -3.475,-7.755 -7.756,-7.755 -4.281,0 -7.754,3.473 -7.754,7.755 0,4.283 3.473,7.755 7.754,7.755 C -3.475,7.755 0,4.283 0,0 Z"
             style="fill:none;stroke:#42489d;stroke-width:0.75000002;stroke-linecap:round;stroke-linejoin:round;stroke-miterlimit:4;stroke-dasharray:none;stroke-opacity:1"
             id="path240"
             inkscape:connector-curvature="0" /></g><g
           id="g242"
           transform="translate(233.6678,303.141)"
           style="stroke-width:0.75000002;stroke-miterlimit:4;stroke-dasharray:none"><path
             d="m 0,0 c 0,-4.282 -3.475,-7.755 -7.756,-7.755 -4.281,0 -7.754,3.473 -7.754,7.755 0,4.283 3.473,7.755 7.754,7.755 C -3.475,7.755 0,4.283 0,0 Z"
             style="fill:none;stroke:#42489d;stroke-width:0.75000002;stroke-linecap:round;stroke-linejoin:round;stroke-miterlimit:4;stroke-dasharray:none;stroke-opacity:1"
             id="path244"
             inkscape:connector-curvature="0" /></g><g
           id="g246"
           transform="translate(383.5384,504.4221)"
           style="stroke-width:0.75000002;stroke-miterlimit:4;stroke-dasharray:none"><path
             d="m 0,0 c 0,-4.282 -3.475,-7.755 -7.756,-7.755 -4.281,0 -7.754,3.473 -7.754,7.755 0,4.283 3.473,7.755 7.754,7.755 C -3.475,7.755 0,4.283 0,0 Z"
             style="fill:none;stroke:#42489d;stroke-width:0.75000002;stroke-linecap:round;stroke-linejoin:round;stroke-miterlimit:4;stroke-dasharray:none;stroke-opacity:1"
             id="path248"
             inkscape:connector-curvature="0" /></g><g
           id="g250"
           transform="translate(532.1008,504)"
           style="stroke-width:0.75000002;stroke-miterlimit:4;stroke-dasharray:none"><path
             d="m 0,0 c 0,-4.282 -3.475,-7.755 -7.756,-7.755 -4.281,0 -7.754,3.473 -7.754,7.755 0,4.283 3.473,7.755 7.754,7.755 C -3.475,7.755 0,4.283 0,0 Z"
             style="fill:none;stroke:#42489d;stroke-width:0.75000002;stroke-linecap:round;stroke-linejoin:round;stroke-miterlimit:4;stroke-dasharray:none;stroke-opacity:1"
             id="path252"
             inkscape:connector-curvature="0" /></g><g
           id="g254"
           transform="translate(532.1092,299.958)"
           style="stroke-width:0.75000002;stroke-miterlimit:4;stroke-dasharray:none"><path
             d="m 0,0 c 0,-4.282 -3.475,-7.755 -7.756,-7.755 -4.281,0 -7.754,3.473 -7.754,7.755 0,4.283 3.473,7.755 7.754,7.755 C -3.475,7.755 0,4.283 0,0 Z"
             style="fill:none;stroke:#42489d;stroke-width:0.75000002;stroke-linecap:round;stroke-linejoin:round;stroke-miterlimit:4;stroke-dasharray:none;stroke-opacity:1"
             id="path256"
             inkscape:connector-curvature="0" /></g><g
           id="g258"
           transform="translate(532.1092,704.928)"
           style="stroke-width:0.75000002;stroke-miterlimit:4;stroke-dasharray:none"><path
             d="m 0,0 c 0,-4.282 -3.475,-7.755 -7.756,-7.755 -4.281,0 -7.754,3.473 -7.754,7.755 0,4.283 3.473,7.755 7.754,7.755 C -3.475,7.755 0,4.283 0,0 Z"
             style="fill:none;stroke:#42489d;stroke-width:0.75000002;stroke-linecap:round;stroke-linejoin:round;stroke-miterlimit:4;stroke-dasharray:none;stroke-opacity:1"
             id="path260"
             inkscape:connector-curvature="0" /></g><g
           id="g262"
           transform="translate(233.6678,702.7513)"
           style="stroke-width:0.75000002;stroke-miterlimit:4;stroke-dasharray:none"><path
             d="m 0,0 c 0,-4.282 -3.475,-7.755 -7.756,-7.755 -4.281,0 -7.754,3.473 -7.754,7.755 0,4.283 3.473,7.755 7.754,7.755 C -3.475,7.755 0,4.283 0,0 Z"
             style="fill:none;stroke:#42489d;stroke-width:0.75000002;stroke-linecap:round;stroke-linejoin:round;stroke-miterlimit:4;stroke-dasharray:none;stroke-opacity:1"
             id="path264"
             inkscape:connector-curvature="0" /></g><g
           id="g266"
           transform="translate(679.5835,504.4059)"
           style="stroke-width:0.75000002;stroke-miterlimit:4;stroke-dasharray:none"><path
             d="m 0,0 c 0,-4.282 -3.475,-7.755 -7.756,-7.755 -4.281,0 -7.754,3.473 -7.754,7.755 0,4.283 3.473,7.755 7.754,7.755 C -3.475,7.755 0,4.283 0,0 Z"
             style="fill:none;stroke:#42489d;stroke-width:0.75000002;stroke-linecap:round;stroke-linejoin:round;stroke-miterlimit:4;stroke-dasharray:none;stroke-opacity:1"
             id="path268"
             inkscape:connector-curvature="0" /></g><g
           id="g270"
           transform="translate(835.0159,504.4059)"
           style="stroke-width:0.75000002;stroke-miterlimit:4;stroke-dasharray:none"><path
             d="m 0,0 c 0,-4.282 -3.475,-7.755 -7.756,-7.755 -4.281,0 -7.754,3.473 -7.754,7.755 0,4.283 3.473,7.755 7.754,7.755 C -3.475,7.755 0,4.283 0,0 Z"
             style="fill:none;stroke:#42489d;stroke-width:0.75000002;stroke-linecap:round;stroke-linejoin:round;stroke-miterlimit:4;stroke-dasharray:none;stroke-opacity:1"
             id="path272"
             inkscape:connector-curvature="0" /></g><g
           id="g274"
           transform="translate(827.261,702.7513)"
           style="stroke-width:0.75000002;stroke-miterlimit:4;stroke-dasharray:none"><path
             d="m 0,0 c 0,-4.282 -3.475,-7.755 -7.756,-7.755 -4.281,0 -7.754,3.473 -7.754,7.755 0,4.283 3.473,7.755 7.754,7.755 C -3.475,7.755 0,4.283 0,0 Z"
             style="fill:none;stroke:#42489d;stroke-width:0.75000002;stroke-linecap:round;stroke-linejoin:round;stroke-miterlimit:4;stroke-dasharray:none;stroke-opacity:1"
             id="path276"
             inkscape:connector-curvature="0" /></g><g
           id="g278"
           transform="translate(829.5315,303.141)"
           style="stroke-width:0.75000002;stroke-miterlimit:4;stroke-dasharray:none"><path
             d="m 0,0 c 0,-4.282 -3.475,-7.755 -7.756,-7.755 -4.281,0 -7.754,3.473 -7.754,7.755 0,4.283 3.473,7.755 7.754,7.755 C -3.475,7.755 0,4.283 0,0 Z"
             style="fill:none;stroke:#42489d;stroke-width:0.75000002;stroke-linecap:round;stroke-linejoin:round;stroke-miterlimit:4;stroke-dasharray:none;stroke-opacity:1"
             id="path280"
             inkscape:connector-curvature="0" /></g><path
           d="m 956.346,72 h -864 v 864 h 864 z"
           style="fill:none;stroke:#42489d;stroke-width:0.75000002;stroke-linecap:round;stroke-linejoin:round;stroke-miterlimit:4;stroke-dasharray:none;stroke-opacity:1"
           id="path282"
           inkscape:connector-curvature="0" /></g></g></g></svg>