<?xml version="1.0" encoding="UTF-8" standalone="no"?>
<!-- Created with Inkscape (http://www.inkscape.org/) -->

<svg
   xmlns:dc="http://purl.org/dc/elements/1.1/"
   xmlns:cc="http://creativecommons.org/ns#"
   xmlns:rdf="http://www.w3.org/1999/02/22-rdf-syntax-ns#"
   xmlns:svg="http://www.w3.org/2000/svg"
   xmlns="http://www.w3.org/2000/svg"
   xmlns:sodipodi="http://sodipodi.sourceforge.net/DTD/sodipodi-0.dtd"
   xmlns:inkscape="http://www.inkscape.org/namespaces/inkscape"
   version="1.1"
   id="svg2"
   xml:space="preserve"
   width="1344"
   height="1344"
   viewBox="0 0 1344 1344"
   sodipodi:docname="4f Wall.svg"
   inkscape:version="0.92.5 (0.92.5+68)"><metadata
     id="metadata8"><rdf:RDF><cc:Work
         rdf:about=""><dc:format>image/svg+xml</dc:format><dc:type
           rdf:resource="http://purl.org/dc/dcmitype/StillImage" /><dc:title></dc:title></cc:Work></rdf:RDF></metadata><defs
     id="defs6"><clipPath
       clipPathUnits="userSpaceOnUse"
       id="clipPath30"><path
         d="M 0,1008 H 1008 V 0 H 0 Z"
         id="path28"
         inkscape:connector-curvature="0" /></clipPath><clipPath
       clipPathUnits="userSpaceOnUse"
       id="clipPath54"><path
         d="M 0,1008 H 1008 V 0 H 0 Z"
         id="path52"
         inkscape:connector-curvature="0" /></clipPath></defs><sodipodi:namedview
     pagecolor="#ffffff"
     bordercolor="#666666"
     borderopacity="1"
     objecttolerance="10"
     gridtolerance="10"
     guidetolerance="10"
     inkscape:pageopacity="0"
     inkscape:pageshadow="2"
     inkscape:window-width="1855"
     inkscape:window-height="1056"
     id="namedview4"
     showgrid="false"
     inkscape:zoom="0.70238095"
     inkscape:cx="622.52146"
     inkscape:cy="587.11771"
     inkscape:window-x="65"
     inkscape:window-y="24"
     inkscape:window-maximized="1"
     inkscape:current-layer="g10" /><g
     id="g10"
     inkscape:groupmode="layer"
     inkscape:label="4f Wall"
     transform="matrix(1.3333333,0,0,-1.3333333,0,1344)"><text
       transform="matrix(1,0,0,-1,93.4736,52.873)"
       style="font-variant:normal;font-weight:normal;font-stretch:normal;font-size:12px;font-family:'Myriad Pro';-inkscape-font-specification:MyriadPro-Regular;writing-mode:lr-tb;fill:#000000;fill-opacity:1;fill-rule:nonzero;stroke:none"
       id="text14"><tspan
         x="0 6.816 13.428 17.4 22.488001 25.992001 29.797199 36.385201 46.3932 48.937199 55.765202 58.597198 64.381203 69.757202 75.385201 77.929199 84.085197 88.201202 94.357201 100.5132 103.7292 106.2732 113.0412 119.0532 121.8852 125.8572 128.66521 135.3252 137.8092 140.3532 148.1172 154.94521 161.77319 167.7852 171.6492 175.33321 178.16521 184.1772 187.8132 191.7852 194.32919 197.16119 203.1732 207.1452 211.0452 217.05721 220.9812 225.7332 228.27721 238.2852 244.8972 249.6492 253.6212 256.16519 260.91721 263.72519 273.73318 280.56119 283.39319 289.0452 291.5892 298.41721 304.4292 306.97321 312.74521 315.55319 320.30521 323.11319 329.94119 332.77319 338.78519 341.32919 347.11319 353.77319 360.5412 363.08521 369.67319 376.33319 379.16519 384.8172 387.36121 393.94919 400.56119 404.5332 407.3652 410.17319 416.83319 422.84521 429.49319 431.9772 434.52121 441.34921 444.18121 450.19321 455.9772 460.72919 466.74121 469.28519 474.66119 481.3212 487.90921 494.49719 499.24921 505.2612 507.80521 514.57318 520.58521 527.41321 531.38519 538.04523"
         y="0"
         sodipodi:role="line"
         id="tspan12">Cut from black 1/32” delrin. Upper-left letters must simply be visible and only outlined, please choose depth.</tspan></text>
<path
       d="m 223.888,799.788 h -72 v 72 h 72 z"
       style="fill:none;stroke:#231f20;stroke-width:1;stroke-linecap:butt;stroke-linejoin:miter;stroke-miterlimit:4;stroke-dasharray:none;stroke-opacity:1"
       id="path16"
       inkscape:connector-curvature="0" /><text
       transform="matrix(1,0,0,-1,161.0986,850.918)"
       style="font-variant:normal;font-weight:normal;font-stretch:normal;font-size:12px;font-family:'Myriad Pro';-inkscape-font-specification:MyriadPro-Regular;writing-mode:lr-tb;fill:#000000;fill-opacity:1;fill-rule:nonzero;stroke:none"
       id="text22"><tspan
         x="0 6.1560001 9.3719997 11.916 16.667999 23.424 30.035999 35.82 39.624001 45.636002"
         y="0"
         sodipodi:role="line"
         id="tspan18">1” square </tspan><tspan
         x="0 3.8039999 9.816 13.164 19.176001 22.981199 28.9932 35.653198 40.957199"
         y="14.4"
         sodipodi:role="line"
         id="tspan20">reference</tspan></text>
<g
       id="g24"><g
         id="g26"
         clip-path="url(#clipPath30)"><g
           id="g32"
           transform="translate(133.2646,887.373)"><path
             d="m 0,0 v 8.503 h 4.371 v 3.314 H 0 V 31.225 H -4.564 L -18.495,11.289 V 8.503 h 14.508 l 0,-8.503 z m -14.22,11.817 v 0.097 l 7.638,10.616 c 0.865,1.442 1.634,2.786 2.595,4.612 h 0.144 c -0.096,-1.633 -0.144,-3.267 -0.144,-4.9 V 11.817 Z"
             style="fill:none;stroke:#7c797a;stroke-width:1;stroke-linecap:butt;stroke-linejoin:miter;stroke-miterlimit:4;stroke-dasharray:none;stroke-opacity:1"
             id="path34"
             inkscape:connector-curvature="0" /></g><g
           id="g36"
           transform="translate(146.8105,887.373)"><path
             d="m 0,0 v 20.032 h 5.621 v 3.219 H 0 V 24.5 c 0,3.555 0.913,6.725 4.516,6.725 1.201,0 2.065,-0.24 2.69,-0.528 l 0.576,3.266 C 6.966,34.3 5.668,34.636 4.179,34.636 2.21,34.636 0.096,34.012 -1.489,32.474 -3.459,30.601 -4.18,27.623 -4.18,24.356 V 23.251 H -7.446 V 20.032 H -4.18 V 0 Z"
             style="fill:none;stroke:#7c797a;stroke-width:1;stroke-linecap:butt;stroke-linejoin:miter;stroke-miterlimit:4;stroke-dasharray:none;stroke-opacity:1"
             id="path38"
             inkscape:connector-curvature="0" /></g></g></g><path
       d="M 368.569,310.318 H 255.64 v 377.389 h 112.929 z"
       style="fill:none;stroke:#4654a4;stroke-width:0.75000002;stroke-linecap:butt;stroke-linejoin:miter;stroke-miterlimit:4;stroke-dasharray:none;stroke-opacity:1"
       id="path40"
       inkscape:connector-curvature="0" /><path
       d="M 516.622,310.827 H 403.703 v 376.88 h 112.919 z"
       style="fill:none;stroke:#4654a4;stroke-width:0.75000002;stroke-linecap:butt;stroke-linejoin:miter;stroke-miterlimit:4;stroke-dasharray:none;stroke-opacity:1"
       id="path42"
       inkscape:connector-curvature="0" /><path
       d="M 664.638,311.018 H 551.785 v 376.689 h 112.853 z"
       style="fill:none;stroke:#4654a4;stroke-width:0.75000002;stroke-linecap:butt;stroke-linejoin:miter;stroke-miterlimit:4;stroke-dasharray:none;stroke-opacity:1"
       id="path44"
       inkscape:connector-curvature="0" /><path
       d="M 812.65,310.769 H 699.874 V 687.707 H 812.65 Z"
       style="fill:none;stroke:#4654a4;stroke-width:0.75000002;stroke-linecap:butt;stroke-linejoin:miter;stroke-miterlimit:4;stroke-dasharray:none;stroke-opacity:1"
       id="path46"
       inkscape:connector-curvature="0" /><g
       id="g48"
       style="stroke-width:0.75000002;stroke-miterlimit:4;stroke-dasharray:none"><g
         id="g50"
         clip-path="url(#clipPath54)"
         style="stroke-width:0.75000002;stroke-miterlimit:4;stroke-dasharray:none"><g
           id="g56"
           transform="translate(229.1147,749.7495)"
           style="stroke-width:0.75000002;stroke-miterlimit:4;stroke-dasharray:none"><path
             d="m 0,0 c 0,-3.351 -2.719,-6.068 -6.068,-6.068 -3.35,0 -6.067,2.717 -6.067,6.068 0,3.351 2.717,6.067 6.067,6.067 C -2.719,6.067 0,3.351 0,0 Z"
             style="fill:none;stroke:#4654a4;stroke-width:0.75000002;stroke-linecap:butt;stroke-linejoin:miter;stroke-miterlimit:4;stroke-dasharray:none;stroke-opacity:1"
             id="path58"
             inkscape:connector-curvature="0" /></g><g
           id="g60"
           transform="translate(245.1275,264.4092)"
           style="stroke-width:0.75000002;stroke-miterlimit:4;stroke-dasharray:none"><path
             d="m 0,0 c 0,-3.351 -2.719,-6.065 -6.068,-6.065 -3.35,0 -6.067,2.714 -6.067,6.065 0,3.352 2.717,6.067 6.067,6.067 C -2.719,6.067 0,3.352 0,0 Z"
             style="fill:none;stroke:#4654a4;stroke-width:0.75000002;stroke-linecap:butt;stroke-linejoin:miter;stroke-miterlimit:4;stroke-dasharray:none;stroke-opacity:1"
             id="path62"
             inkscape:connector-curvature="0" /></g><g
           id="g64"
           transform="translate(851.2095,749.7495)"
           style="stroke-width:0.75000002;stroke-miterlimit:4;stroke-dasharray:none"><path
             d="m 0,0 c 0,-3.351 -2.718,-6.067 -6.067,-6.067 -3.351,0 -6.068,2.716 -6.068,6.067 0,3.351 2.717,6.066 6.068,6.066 C -2.718,6.066 0,3.351 0,0 Z"
             style="fill:none;stroke:#4654a4;stroke-width:0.75000002;stroke-linecap:butt;stroke-linejoin:miter;stroke-miterlimit:4;stroke-dasharray:none;stroke-opacity:1"
             id="path66"
             inkscape:connector-curvature="0" /></g><g
           id="g68"
           transform="translate(390.6165,863.7325)"
           style="stroke-width:0.75000002;stroke-miterlimit:4;stroke-dasharray:none"><path
             d="m 0,0 c 0,-3.351 -2.719,-6.067 -6.068,-6.067 -3.349,0 -6.067,2.716 -6.067,6.067 0,3.35 2.718,6.067 6.067,6.067 C -2.719,6.067 0,3.35 0,0 Z"
             style="fill:none;stroke:#4654a4;stroke-width:0.75000002;stroke-linecap:butt;stroke-linejoin:miter;stroke-miterlimit:4;stroke-dasharray:none;stroke-opacity:1"
             id="path70"
             inkscape:connector-curvature="0" /></g><g
           id="g72"
           transform="translate(687.9773,860.7299)"
           style="stroke-width:0.75000002;stroke-miterlimit:4;stroke-dasharray:none"><path
             d="m 0,0 c 0,-3.285 -2.664,-5.949 -5.947,-5.949 -3.285,0 -5.949,2.664 -5.949,5.949 0,3.286 2.664,5.948 5.949,5.948 C -2.664,5.948 0,3.286 0,0 Z"
             style="fill:none;stroke:#4654a4;stroke-width:0.75000002;stroke-linecap:butt;stroke-linejoin:miter;stroke-miterlimit:4;stroke-dasharray:none;stroke-opacity:1"
             id="path74"
             inkscape:connector-curvature="0" /></g><g
           id="g76"
           transform="translate(391.7149,138.9375)"
           style="stroke-width:0.75000002;stroke-miterlimit:4;stroke-dasharray:none"><path
             d="m 0,0 c 0,-3.351 -2.719,-6.067 -6.068,-6.067 -3.349,0 -6.067,2.716 -6.067,6.067 0,3.35 2.718,6.065 6.067,6.065 C -2.719,6.065 0,3.35 0,0 Z"
             style="fill:none;stroke:#4654a4;stroke-width:0.75000002;stroke-linecap:butt;stroke-linejoin:miter;stroke-miterlimit:4;stroke-dasharray:none;stroke-opacity:1"
             id="path78"
             inkscape:connector-curvature="0" /></g><g
           id="g80"
           transform="translate(690.1296,139.0329)"
           style="stroke-width:0.75000002;stroke-miterlimit:4;stroke-dasharray:none"><path
             d="m 0,0 c 0,-3.351 -2.719,-6.067 -6.068,-6.067 -3.351,0 -6.068,2.716 -6.068,6.067 0,3.35 2.717,6.065 6.068,6.065 C -2.719,6.065 0,3.35 0,0 Z"
             style="fill:none;stroke:#4654a4;stroke-width:0.75000002;stroke-linecap:butt;stroke-linejoin:miter;stroke-miterlimit:4;stroke-dasharray:none;stroke-opacity:1"
             id="path82"
             inkscape:connector-curvature="0" /></g><g
           id="g84"
           transform="translate(832.1943,262.4076)"
           style="stroke-width:0.75000002;stroke-miterlimit:4;stroke-dasharray:none"><path
             d="m 0,0 c 0,-3.35 -2.718,-6.065 -6.067,-6.065 -3.351,0 -6.068,2.715 -6.068,6.065 0,3.352 2.717,6.067 6.068,6.067 C -2.718,6.067 0,3.352 0,0 Z"
             style="fill:none;stroke:#4654a4;stroke-width:0.75000002;stroke-linecap:butt;stroke-linejoin:miter;stroke-miterlimit:4;stroke-dasharray:none;stroke-opacity:1"
             id="path86"
             inkscape:connector-curvature="0" /></g><path
           d="m 255.251,779.057 h 114.261 v 33.042 H 255.251 Z"
           style="fill:none;stroke:#4654a4;stroke-width:0.75000002;stroke-linecap:butt;stroke-linejoin:miter;stroke-miterlimit:4;stroke-dasharray:none;stroke-opacity:1"
           id="path88"
           inkscape:connector-curvature="0" /><g
           id="g90"
           transform="translate(540.0532,757.5681)"
           style="stroke-width:0.75000002;stroke-miterlimit:4;stroke-dasharray:none"><path
             d="m 0,0 c 0,-3.351 -2.719,-6.068 -6.068,-6.068 -3.35,0 -6.067,2.717 -6.067,6.068 0,3.351 2.717,6.067 6.067,6.067 C -2.719,6.067 0,3.351 0,0 Z"
             style="fill:none;stroke:#4654a4;stroke-width:0.75000002;stroke-linecap:butt;stroke-linejoin:miter;stroke-miterlimit:4;stroke-dasharray:none;stroke-opacity:1"
             id="path92"
             inkscape:connector-curvature="0" /></g><g
           id="g94"
           transform="translate(200.7926,598.4496)"
           style="stroke-width:0.75000002;stroke-miterlimit:4;stroke-dasharray:none"><path
             d="m 0,0 c 0,-3.351 -2.719,-6.068 -6.068,-6.068 -3.35,0 -6.067,2.717 -6.067,6.068 0,3.351 2.717,6.067 6.067,6.067 C -2.719,6.067 0,3.351 0,0 Z"
             style="fill:none;stroke:#4654a4;stroke-width:0.75000002;stroke-linecap:butt;stroke-linejoin:miter;stroke-miterlimit:4;stroke-dasharray:none;stroke-opacity:1"
             id="path96"
             inkscape:connector-curvature="0" /></g><g
           id="g98"
           transform="translate(879.5483,601.6839)"
           style="stroke-width:0.75000002;stroke-miterlimit:4;stroke-dasharray:none"><path
             d="m 0,0 c 0,-3.351 -2.719,-6.068 -6.068,-6.068 -3.35,0 -6.067,2.717 -6.067,6.068 0,3.351 2.717,6.067 6.067,6.067 C -2.719,6.067 0,3.351 0,0 Z"
             style="fill:none;stroke:#4654a4;stroke-width:0.75000002;stroke-linecap:butt;stroke-linejoin:miter;stroke-miterlimit:4;stroke-dasharray:none;stroke-opacity:1"
             id="path100"
             inkscape:connector-curvature="0" /></g><g
           id="g102"
           transform="translate(877.0076,402.4115)"
           style="stroke-width:0.75000002;stroke-miterlimit:4;stroke-dasharray:none"><path
             d="m 0,0 c 0,-3.351 -2.719,-6.068 -6.068,-6.068 -3.35,0 -6.067,2.717 -6.067,6.068 0,3.351 2.717,6.067 6.067,6.067 C -2.719,6.067 0,3.351 0,0 Z"
             style="fill:none;stroke:#4654a4;stroke-width:0.75000002;stroke-linecap:butt;stroke-linejoin:miter;stroke-miterlimit:4;stroke-dasharray:none;stroke-opacity:1"
             id="path104"
             inkscape:connector-curvature="0" /></g><g
           id="g106"
           transform="translate(200.8602,405.955)"
           style="stroke-width:0.75000002;stroke-miterlimit:4;stroke-dasharray:none"><path
             d="m 0,0 c 0,-3.351 -2.719,-6.068 -6.068,-6.068 -3.35,0 -6.067,2.717 -6.067,6.068 0,3.351 2.717,6.067 6.067,6.067 C -2.719,6.067 0,3.351 0,0 Z"
             style="fill:none;stroke:#4654a4;stroke-width:0.75000002;stroke-linecap:butt;stroke-linejoin:miter;stroke-miterlimit:4;stroke-dasharray:none;stroke-opacity:1"
             id="path108"
             inkscape:connector-curvature="0" /></g><g
           id="g110"
           transform="translate(540.1954,250.878)"
           style="stroke-width:0.75000002;stroke-miterlimit:4;stroke-dasharray:none"><path
             d="m 0,0 c 0,-3.351 -2.719,-6.068 -6.068,-6.068 -3.35,0 -6.067,2.717 -6.067,6.068 0,3.351 2.717,6.067 6.067,6.067 C -2.719,6.067 0,3.351 0,0 Z"
             style="fill:none;stroke:#4654a4;stroke-width:0.75000002;stroke-linecap:butt;stroke-linejoin:miter;stroke-miterlimit:4;stroke-dasharray:none;stroke-opacity:1"
             id="path112"
             inkscape:connector-curvature="0" /></g><path
           d="m 403.128,779.057 h 114.261 v 33.042 H 403.128 Z"
           style="fill:none;stroke:#4654a4;stroke-width:0.75000002;stroke-linecap:butt;stroke-linejoin:miter;stroke-miterlimit:4;stroke-dasharray:none;stroke-opacity:1"
           id="path114"
           inkscape:connector-curvature="0" /><path
           d="m 551.074,779.057 h 114.261 v 33.042 H 551.074 Z"
           style="fill:none;stroke:#4654a4;stroke-width:0.75000002;stroke-linecap:butt;stroke-linejoin:miter;stroke-miterlimit:4;stroke-dasharray:none;stroke-opacity:1"
           id="path116"
           inkscape:connector-curvature="0" /><path
           d="m 699.156,779.057 h 114.261 v 33.042 H 699.156 Z"
           style="fill:none;stroke:#4654a4;stroke-width:0.75000002;stroke-linecap:butt;stroke-linejoin:miter;stroke-miterlimit:4;stroke-dasharray:none;stroke-opacity:1"
           id="path118"
           inkscape:connector-curvature="0" /><path
           d="m 255.121,190.847 h 114.261 v 33.042 H 255.121 Z"
           style="fill:none;stroke:#4654a4;stroke-width:0.75000002;stroke-linecap:butt;stroke-linejoin:miter;stroke-miterlimit:4;stroke-dasharray:none;stroke-opacity:1"
           id="path120"
           inkscape:connector-curvature="0" /><path
           d="m 403.031,190.847 h 114.261 v 33.042 H 403.031 Z"
           style="fill:none;stroke:#4654a4;stroke-width:0.75000002;stroke-linecap:butt;stroke-linejoin:miter;stroke-miterlimit:4;stroke-dasharray:none;stroke-opacity:1"
           id="path122"
           inkscape:connector-curvature="0" /><path
           d="m 551.078,190.847 h 114.261 v 33.042 H 551.078 Z"
           style="fill:none;stroke:#4654a4;stroke-width:0.75000002;stroke-linecap:butt;stroke-linejoin:miter;stroke-miterlimit:4;stroke-dasharray:none;stroke-opacity:1"
           id="path124"
           inkscape:connector-curvature="0" /><path
           d="m 699.128,190.847 h 114.261 v 33.042 H 699.128 Z"
           style="fill:none;stroke:#4654a4;stroke-width:0.75000002;stroke-linecap:butt;stroke-linejoin:miter;stroke-miterlimit:4;stroke-dasharray:none;stroke-opacity:1"
           id="path126"
           inkscape:connector-curvature="0" /><g
           id="g128"
           transform="translate(240.7717,504.6877)"
           style="stroke-width:0.75000002;stroke-miterlimit:4;stroke-dasharray:none"><path
             d="m 0,0 c 0,-4.282 -3.475,-7.755 -7.756,-7.755 -4.281,0 -7.754,3.473 -7.754,7.755 0,4.283 3.473,7.755 7.754,7.755 C -3.475,7.755 0,4.283 0,0 Z"
             style="fill:none;stroke:#4654a4;stroke-width:0.75000002;stroke-linecap:butt;stroke-linejoin:miter;stroke-miterlimit:4;stroke-dasharray:none;stroke-opacity:1"
             id="path130"
             inkscape:connector-curvature="0" /></g><g
           id="g132"
           transform="translate(393.7646,504.8442)"
           style="stroke-width:0.75000002;stroke-miterlimit:4;stroke-dasharray:none"><path
             d="m 0,0 c 0,-4.282 -3.475,-7.755 -7.756,-7.755 -4.281,0 -7.754,3.473 -7.754,7.755 0,4.283 3.473,7.755 7.754,7.755 C -3.475,7.755 0,4.283 0,0 Z"
             style="fill:none;stroke:#4654a4;stroke-width:0.75000002;stroke-linecap:butt;stroke-linejoin:miter;stroke-miterlimit:4;stroke-dasharray:none;stroke-opacity:1"
             id="path134"
             inkscape:connector-curvature="0" /></g><g
           id="g136"
           transform="translate(542.327,504.4221)"
           style="stroke-width:0.75000002;stroke-miterlimit:4;stroke-dasharray:none"><path
             d="m 0,0 c 0,-4.282 -3.475,-7.755 -7.756,-7.755 -4.281,0 -7.754,3.473 -7.754,7.755 0,4.283 3.473,7.755 7.754,7.755 C -3.475,7.755 0,4.283 0,0 Z"
             style="fill:none;stroke:#4654a4;stroke-width:0.75000002;stroke-linecap:butt;stroke-linejoin:miter;stroke-miterlimit:4;stroke-dasharray:none;stroke-opacity:1"
             id="path138"
             inkscape:connector-curvature="0" /></g><g
           id="g140"
           transform="translate(542.3354,300.3801)"
           style="stroke-width:0.75000002;stroke-miterlimit:4;stroke-dasharray:none"><path
             d="m 0,0 c 0,-4.282 -3.475,-7.755 -7.756,-7.755 -4.281,0 -7.754,3.473 -7.754,7.755 0,4.283 3.473,7.755 7.754,7.755 C -3.475,7.755 0,4.283 0,0 Z"
             style="fill:none;stroke:#4654a4;stroke-width:0.75000002;stroke-linecap:butt;stroke-linejoin:miter;stroke-miterlimit:4;stroke-dasharray:none;stroke-opacity:1"
             id="path142"
             inkscape:connector-curvature="0" /></g><g
           id="g144"
           transform="translate(839.7578,303.5631)"
           style="stroke-width:0.75000002;stroke-miterlimit:4;stroke-dasharray:none"><path
             d="m 0,0 c 0,-4.282 -3.475,-7.755 -7.756,-7.755 -4.281,0 -7.754,3.473 -7.754,7.755 0,4.283 3.473,7.755 7.754,7.755 C -3.475,7.755 0,4.283 0,0 Z"
             style="fill:none;stroke:#4654a4;stroke-width:0.75000002;stroke-linecap:butt;stroke-linejoin:miter;stroke-miterlimit:4;stroke-dasharray:none;stroke-opacity:1"
             id="path146"
             inkscape:connector-curvature="0" /></g><g
           id="g148"
           transform="translate(243.894,303.5631)"
           style="stroke-width:0.75000002;stroke-miterlimit:4;stroke-dasharray:none"><path
             d="m 0,0 c 0,-4.282 -3.475,-7.755 -7.756,-7.755 -4.281,0 -7.754,3.473 -7.754,7.755 0,4.283 3.473,7.755 7.754,7.755 C -3.475,7.755 0,4.283 0,0 Z"
             style="fill:none;stroke:#4654a4;stroke-width:0.75000002;stroke-linecap:butt;stroke-linejoin:miter;stroke-miterlimit:4;stroke-dasharray:none;stroke-opacity:1"
             id="path150"
             inkscape:connector-curvature="0" /></g><g
           id="g152"
           transform="translate(542.3354,705.3502)"
           style="stroke-width:0.75000002;stroke-miterlimit:4;stroke-dasharray:none"><path
             d="m 0,0 c 0,-4.282 -3.475,-7.755 -7.756,-7.755 -4.281,0 -7.754,3.473 -7.754,7.755 0,4.283 3.473,7.755 7.754,7.755 C -3.475,7.755 0,4.283 0,0 Z"
             style="fill:none;stroke:#4654a4;stroke-width:0.75000002;stroke-linecap:butt;stroke-linejoin:miter;stroke-miterlimit:4;stroke-dasharray:none;stroke-opacity:1"
             id="path154"
             inkscape:connector-curvature="0" /></g><g
           id="g156"
           transform="translate(243.894,703.1735)"
           style="stroke-width:0.75000002;stroke-miterlimit:4;stroke-dasharray:none"><path
             d="m 0,0 c 0,-4.282 -3.475,-7.755 -7.756,-7.755 -4.281,0 -7.754,3.473 -7.754,7.755 0,4.282 3.473,7.755 7.754,7.755 C -3.475,7.755 0,4.282 0,0 Z"
             style="fill:none;stroke:#4654a4;stroke-width:0.75000002;stroke-linecap:butt;stroke-linejoin:miter;stroke-miterlimit:4;stroke-dasharray:none;stroke-opacity:1"
             id="path158"
             inkscape:connector-curvature="0" /></g><g
           id="g160"
           transform="translate(689.8097,504.828)"
           style="stroke-width:0.75000002;stroke-miterlimit:4;stroke-dasharray:none"><path
             d="m 0,0 c 0,-4.282 -3.475,-7.755 -7.756,-7.755 -4.281,0 -7.754,3.473 -7.754,7.755 0,4.283 3.473,7.755 7.754,7.755 C -3.475,7.755 0,4.283 0,0 Z"
             style="fill:none;stroke:#4654a4;stroke-width:0.75000002;stroke-linecap:butt;stroke-linejoin:miter;stroke-miterlimit:4;stroke-dasharray:none;stroke-opacity:1"
             id="path162"
             inkscape:connector-curvature="0" /></g><g
           id="g164"
           transform="translate(845.2422,504.828)"
           style="stroke-width:0.75000002;stroke-miterlimit:4;stroke-dasharray:none"><path
             d="m 0,0 c 0,-4.282 -3.475,-7.755 -7.756,-7.755 -4.281,0 -7.754,3.473 -7.754,7.755 0,4.283 3.473,7.755 7.754,7.755 C -3.475,7.755 0,4.283 0,0 Z"
             style="fill:none;stroke:#4654a4;stroke-width:0.75000002;stroke-linecap:butt;stroke-linejoin:miter;stroke-miterlimit:4;stroke-dasharray:none;stroke-opacity:1"
             id="path166"
             inkscape:connector-curvature="0" /></g><g
           id="g168"
           transform="translate(837.4872,703.1735)"
           style="stroke-width:0.75000002;stroke-miterlimit:4;stroke-dasharray:none"><path
             d="m 0,0 c 0,-4.282 -3.475,-7.755 -7.756,-7.755 -4.281,0 -7.754,3.473 -7.754,7.755 0,4.282 3.473,7.755 7.754,7.755 C -3.475,7.755 0,4.282 0,0 Z"
             style="fill:none;stroke:#4654a4;stroke-width:0.75000002;stroke-linecap:butt;stroke-linejoin:miter;stroke-miterlimit:4;stroke-dasharray:none;stroke-opacity:1"
             id="path170"
             inkscape:connector-curvature="0" /></g><path
           d="m 966.572,72.422 h -864 v 864 h 864 z"
           style="fill:none;stroke:#4654a4;stroke-width:0.75000002;stroke-linecap:butt;stroke-linejoin:miter;stroke-miterlimit:4;stroke-dasharray:none;stroke-opacity:1"
           id="path172"
           inkscape:connector-curvature="0" /></g></g></g></svg>