<?xml version="1.0" encoding="UTF-8" standalone="no"?>
<svg
   xmlns:dc="http://purl.org/dc/elements/1.1/"
   xmlns:cc="http://creativecommons.org/ns#"
   xmlns:rdf="http://www.w3.org/1999/02/22-rdf-syntax-ns#"
   xmlns:svg="http://www.w3.org/2000/svg"
   xmlns="http://www.w3.org/2000/svg"
   viewBox="0 0 1344 1344"
   height="1344"
   width="1344"
   xml:space="preserve"
   id="svg2"
   version="1.1"><metadata
     id="metadata8"><rdf:RDF><cc:Work
         rdf:about=""><dc:format>image/svg+xml</dc:format><dc:type
           rdf:resource="http://purl.org/dc/dcmitype/StillImage" /><dc:title></dc:title></cc:Work></rdf:RDF></metadata><defs
     id="defs6"><clipPath
       id="clipPath32"
       clipPathUnits="userSpaceOnUse"><path
         id="path30"
         d="M 0,1008 H 1008 V 0 H 0 Z" /></clipPath><clipPath
       id="clipPath72"
       clipPathUnits="userSpaceOnUse"><path
         id="path70"
         d="M 0,1008 H 1008 V 0 H 0 Z" /></clipPath><clipPath
       id="clipPath126"
       clipPathUnits="userSpaceOnUse"><path
         id="path124"
         d="M 0,1008 H 1008 V 0 H 0 Z" /></clipPath></defs><g
     transform="matrix(1.3333333,0,0,-1.3333333,0,1344)"
     id="g10"><text
       id="text14"
       style="font-variant:normal;font-weight:normal;font-stretch:normal;font-size:12px;font-family:'Myriad Pro';-inkscape-font-specification:MyriadPro-Regular;writing-mode:lr-tb;fill:#000000;fill-opacity:1;fill-rule:nonzero;stroke:none"
       transform="matrix(1,0,0,-1,87.2485,55.5742)"><tspan
         id="tspan12"
         y="0"
         x="0 6.816 13.428 17.4 19.944 23.448 27.252001 33.84 43.848 46.391998 52.548 55.032001 61.188 67.344002 70.5588 73.102798 78.636002 84.648003 87.480003 90.311996 96.816002 105.648 108.192 114.576 120.672 126.312 134.064 136.548 141.636 149.39999 156.228 163.056 169.06799 172.93201 176.616 179.448 185.46001 189.09599 193.06799 195.612 198.444 204.45599 208.42799 212.328 218.34 222.26401 227.01601 229.56 239.56799 246.17999 250.93201 254.90401 257.448 262.20001 265.008 275.01599 281.84399 284.67599 290.328 292.87201 299.70001 305.71201 308.25601 314.02802 316.836 321.58801 324.396 331.224 334.056 340.06799 342.612 348.396 355.056 361.82401 364.36801 370.95599 377.616 380.448 386.10001 388.64401 395.23199 401.84399 405.81601 408.64801 411.45599 418.116 424.12799 430.776 433.26001 435.80399 442.63199 445.46399 451.47601 457.26001 462.01199 468.02399 470.56799 475.944 482.604 489.19199 495.78 500.53201 506.54401 509.08801 515.85602 521.86798 528.69598 532.66803 539.328">Cut from 0.02” yellow PETG. Upper-left letters must simply be visible and only outlined, please choose depth.</tspan></text>
<path
       id="path16"
       style="fill:none;stroke:#231f20;stroke-width:0.75000002;stroke-linecap:butt;stroke-linejoin:miter;stroke-miterlimit:4;stroke-dasharray:none;stroke-opacity:1"
       d="m 215.692,805.432 h -72 v 72 h 72 z" /><text
       id="text20"
       style="font-variant:normal;font-weight:normal;font-stretch:normal;font-size:12px;font-family:'Myriad Pro';-inkscape-font-specification:MyriadPro-Regular;writing-mode:lr-tb;fill:#000000;fill-opacity:1;fill-rule:nonzero;stroke:none;stroke-width:0.75000002;stroke-miterlimit:4;stroke-dasharray:none"
       transform="matrix(1,0,0,-1,152.9023,856.5625)"><tspan
         id="tspan18"
         y="0"
         x="0 6.1560001 9.3719997 11.916 16.667999 23.424 30.035999 35.82 39.624001 45.636002">1” square </tspan></text>
<g
       style="stroke-width:0.75000002;stroke-miterlimit:4;stroke-dasharray:none"
       transform="translate(155.7344,856.5625)"
       id="g22"><path
         id="path24"
         style="fill:none;stroke:#000000;stroke-width:0.75000002;stroke-linecap:butt;stroke-linejoin:miter;stroke-miterlimit:4;stroke-dasharray:none;stroke-opacity:1"
         d="M 0,0 H 1.02 V 7.8 H 0.12 L -1.584,6.888 -1.38,6.084 -0.024,6.816 H 0 Z" /></g><g
       style="stroke-width:0.75000002;stroke-miterlimit:4;stroke-dasharray:none"
       id="g26"><g
         style="stroke-width:0.75000002;stroke-miterlimit:4;stroke-dasharray:none"
         clip-path="url(#clipPath32)"
         id="g28"><g
           style="stroke-width:0.75000002;stroke-miterlimit:4;stroke-dasharray:none"
           transform="translate(160.1743,864.6743)"
           id="g34"><path
             id="path36"
             style="fill:none;stroke:#000000;stroke-width:0.75000002;stroke-linecap:butt;stroke-linejoin:miter;stroke-miterlimit:4;stroke-dasharray:none;stroke-opacity:1"
             d="m 0,0 c -0.132,-0.864 -0.456,-2.112 -0.708,-2.82 l 0.672,0.084 C 0.288,-2.184 0.804,-0.9 1.08,0.108 Z M 1.776,0 C 1.644,-0.864 1.332,-2.112 1.068,-2.82 l 0.672,0.084 c 0.324,0.552 0.84,1.836 1.116,2.844 z" /></g><g
           style="stroke-width:0.75000002;stroke-miterlimit:4;stroke-dasharray:none"
           transform="translate(165.2856,856.8384)"
           id="g38"><path
             id="path40"
             style="fill:none;stroke:#000000;stroke-width:0.75000002;stroke-linecap:butt;stroke-linejoin:miter;stroke-miterlimit:4;stroke-dasharray:none;stroke-opacity:1"
             d="m 0,0 c 0.408,-0.24 0.996,-0.396 1.632,-0.396 1.38,0 2.172,0.72 2.172,1.74 0,0.864 -0.516,1.368 -1.524,1.752 C 1.524,3.384 1.176,3.6 1.176,4.08 c 0,0.432 0.348,0.792 0.972,0.792 0.54,0 0.96,-0.192 1.188,-0.336 L 3.6,5.304 C 3.276,5.496 2.76,5.664 2.172,5.664 0.924,5.664 0.168,4.896 0.168,3.96 c 0,-0.696 0.492,-1.272 1.536,-1.644 0.78,-0.288 1.08,-0.564 1.08,-1.068 0,-0.48 -0.36,-0.864 -1.128,-0.864 -0.528,0 -1.08,0.216 -1.392,0.42 z" /></g><g
           style="stroke-width:0.75000002;stroke-miterlimit:4;stroke-dasharray:none"
           transform="translate(174.4058,854.1865)"
           id="g42"><path
             id="path44"
             style="fill:none;stroke:#000000;stroke-width:0.75000002;stroke-linecap:butt;stroke-linejoin:miter;stroke-miterlimit:4;stroke-dasharray:none;stroke-opacity:1"
             d="m 0,0 h 1.056 v 6.588 c 0,0.6 0.012,1.104 0.036,1.596 H 0.096 L 0.06,7.308 H 0.036 c -0.288,0.564 -0.888,1.008 -1.788,1.008 -1.224,0 -2.628,-0.96 -2.628,-3.132 0,-1.764 1.104,-2.94 2.46,-2.94 0.936,0 1.584,0.456 1.896,1.032 L 0,3.276 Z M 0,4.74 C 0,4.584 -0.036,4.38 -0.084,4.236 -0.324,3.504 -0.912,3.084 -1.596,3.084 c -1.164,0 -1.716,1.008 -1.716,2.16 0,1.308 0.66,2.232 1.752,2.232 0.792,0 1.356,-0.552 1.512,-1.2 C -0.012,6.144 0,5.976 0,5.832 Z" /></g><g
           style="stroke-width:0.75000002;stroke-miterlimit:4;stroke-dasharray:none"
           transform="translate(182.0615,862.3706)"
           id="g46"><path
             id="path48"
             style="fill:none;stroke:#000000;stroke-width:0.75000002;stroke-linecap:butt;stroke-linejoin:miter;stroke-miterlimit:4;stroke-dasharray:none;stroke-opacity:1"
             d="m 0,0 h -1.056 v -3.564 c 0,-0.192 -0.036,-0.384 -0.096,-0.54 -0.192,-0.468 -0.684,-0.96 -1.392,-0.96 -0.96,0 -1.296,0.744 -1.296,1.848 V 0 h -1.056 v -3.396 c 0,-2.04 1.092,-2.544 2.004,-2.544 1.032,0 1.644,0.612 1.92,1.08 h 0.024 l 0.06,-0.948 H 0.048 C 0.012,-5.352 0,-4.824 0,-4.224 Z" /></g><g
           style="stroke-width:0.75000002;stroke-miterlimit:4;stroke-dasharray:none"
           transform="translate(187.9897,856.5625)"
           id="g50"><path
             id="path52"
             style="fill:none;stroke:#000000;stroke-width:0.75000002;stroke-linecap:butt;stroke-linejoin:miter;stroke-miterlimit:4;stroke-dasharray:none;stroke-opacity:1"
             d="m 0,0 c -0.072,0.396 -0.096,0.888 -0.096,1.392 v 2.172 c 0,1.164 -0.432,2.376 -2.208,2.376 -0.732,0 -1.428,-0.204 -1.908,-0.516 l 0.24,-0.696 C -3.564,4.992 -3,5.16 -2.46,5.16 c 1.188,0 1.32,-0.864 1.32,-1.344 v -0.12 c -2.244,0.012 -3.492,-0.756 -3.492,-2.16 0,-0.84 0.6,-1.668 1.776,-1.668 0.828,0 1.452,0.408 1.776,0.864 h 0.036 L -0.96,0 Z M -1.116,1.956 C -1.116,1.848 -1.14,1.728 -1.176,1.62 -1.344,1.128 -1.824,0.648 -2.58,0.648 c -0.54,0 -0.996,0.324 -0.996,1.008 0,1.128 1.308,1.332 2.46,1.308 z" /></g><g
           style="stroke-width:0.75000002;stroke-miterlimit:4;stroke-dasharray:none"
           transform="translate(189.5972,856.5625)"
           id="g54"><path
             id="path56"
             style="fill:none;stroke:#000000;stroke-width:0.75000002;stroke-linecap:butt;stroke-linejoin:miter;stroke-miterlimit:4;stroke-dasharray:none;stroke-opacity:1"
             d="m 0,0 h 1.044 v 3.096 c 0,0.18 0.024,0.348 0.048,0.492 0.144,0.792 0.672,1.356 1.416,1.356 0.144,0 0.252,-0.012 0.36,-0.036 V 5.904 C 2.772,5.928 2.688,5.94 2.568,5.94 1.86,5.94 1.224,5.448 0.96,4.668 H 0.912 L 0.876,5.808 H -0.048 C -0.012,5.268 0,4.68 0,3.996 Z" /></g><g
           style="stroke-width:0.75000002;stroke-miterlimit:4;stroke-dasharray:none"
           transform="translate(198.0693,859.2744)"
           id="g58"><path
             id="path60"
             style="fill:none;stroke:#000000;stroke-width:0.75000002;stroke-linecap:butt;stroke-linejoin:miter;stroke-miterlimit:4;stroke-dasharray:none;stroke-opacity:1"
             d="m 0,0 c 0.012,0.108 0.036,0.276 0.036,0.492 0,1.068 -0.504,2.736 -2.4,2.736 -1.692,0 -2.724,-1.38 -2.724,-3.132 0,-1.752 1.068,-2.928 2.856,-2.928 0.924,0 1.56,0.192 1.932,0.36 l -0.18,0.756 c -0.396,-0.168 -0.852,-0.3 -1.608,-0.3 -1.056,0 -1.968,0.588 -1.992,2.016 z m -4.068,0.756 c 0.084,0.732 0.552,1.716 1.62,1.716 1.188,0 1.476,-1.044 1.464,-1.716 z" /></g></g></g><text
       id="text64"
       style="font-variant:normal;font-weight:normal;font-stretch:normal;font-size:12px;font-family:'Myriad Pro';-inkscape-font-specification:MyriadPro-Regular;writing-mode:lr-tb;fill:#000000;fill-opacity:1;fill-rule:nonzero;stroke:none;stroke-width:0.75000002;stroke-miterlimit:4;stroke-dasharray:none"
       transform="matrix(1,0,0,-1,152.9023,842.1626)"><tspan
         id="tspan62"
         y="0"
         x="0 3.8039999 9.816 13.164 19.176001 22.981199 28.9932 35.653198 40.957199">reference</tspan></text>
<g
       style="stroke-width:0.75000002;stroke-miterlimit:4;stroke-dasharray:none"
       id="g66"><g
         style="stroke-width:0.75000002;stroke-miterlimit:4;stroke-dasharray:none"
         clip-path="url(#clipPath72)"
         id="g68"><g
           style="stroke-width:0.75000002;stroke-miterlimit:4;stroke-dasharray:none"
           transform="translate(153.7783,842.1626)"
           id="g74"><path
             id="path76"
             style="fill:none;stroke:#000000;stroke-width:0.75000002;stroke-linecap:butt;stroke-linejoin:miter;stroke-miterlimit:4;stroke-dasharray:none;stroke-opacity:1"
             d="m 0,0 h 1.044 v 3.096 c 0,0.18 0.024,0.348 0.048,0.492 0.144,0.792 0.672,1.356 1.416,1.356 0.144,0 0.252,-0.012 0.36,-0.036 V 5.904 C 2.772,5.928 2.688,5.94 2.568,5.94 1.86,5.94 1.224,5.448 0.96,4.668 H 0.912 L 0.876,5.808 H -0.048 C -0.012,5.268 0,4.68 0,3.996 Z" /></g><g
           style="stroke-width:0.75000002;stroke-miterlimit:4;stroke-dasharray:none"
           transform="translate(162.25,844.8745)"
           id="g78"><path
             id="path80"
             style="fill:none;stroke:#000000;stroke-width:0.75000002;stroke-linecap:butt;stroke-linejoin:miter;stroke-miterlimit:4;stroke-dasharray:none;stroke-opacity:1"
             d="m 0,0 c 0.012,0.108 0.036,0.276 0.036,0.492 0,1.068 -0.504,2.736 -2.4,2.736 -1.692,0 -2.724,-1.38 -2.724,-3.132 0,-1.752 1.068,-2.928 2.856,-2.928 0.924,0 1.56,0.192 1.932,0.36 l -0.18,0.756 c -0.396,-0.168 -0.852,-0.3 -1.608,-0.3 -1.056,0 -1.968,0.588 -1.992,2.016 z m -4.068,0.756 c 0.084,0.732 0.552,1.716 1.62,1.716 1.188,0 1.476,-1.044 1.464,-1.716 z" /></g><g
           style="stroke-width:0.75000002;stroke-miterlimit:4;stroke-dasharray:none"
           transform="translate(164.7456,842.1626)"
           id="g82"><path
             id="path84"
             style="fill:none;stroke:#000000;stroke-width:0.75000002;stroke-linecap:butt;stroke-linejoin:miter;stroke-miterlimit:4;stroke-dasharray:none;stroke-opacity:1"
             d="M 0,0 V 5.004 H 1.404 V 5.808 H 0 V 6.12 C 0,7.008 0.228,7.8 1.128,7.8 1.428,7.8 1.644,7.74 1.8,7.668 L 1.944,8.484 C 1.74,8.568 1.416,8.652 1.044,8.652 0.552,8.652 0.024,8.496 -0.372,8.112 -0.864,7.644 -1.044,6.9 -1.044,6.084 V 5.808 H -1.86 V 5.004 h 0.816 V 0 Z" /></g><g
           style="stroke-width:0.75000002;stroke-miterlimit:4;stroke-dasharray:none"
           transform="translate(171.6099,844.8745)"
           id="g86"><path
             id="path88"
             style="fill:none;stroke:#000000;stroke-width:0.75000002;stroke-linecap:butt;stroke-linejoin:miter;stroke-miterlimit:4;stroke-dasharray:none;stroke-opacity:1"
             d="m 0,0 c 0.012,0.108 0.036,0.276 0.036,0.492 0,1.068 -0.504,2.736 -2.4,2.736 -1.692,0 -2.724,-1.38 -2.724,-3.132 0,-1.752 1.068,-2.928 2.856,-2.928 0.924,0 1.56,0.192 1.932,0.36 l -0.18,0.756 c -0.396,-0.168 -0.852,-0.3 -1.608,-0.3 -1.056,0 -1.968,0.588 -1.992,2.016 z m -4.068,0.756 c 0.084,0.732 0.552,1.716 1.62,1.716 1.188,0 1.476,-1.044 1.464,-1.716 z" /></g><g
           style="stroke-width:0.75000002;stroke-miterlimit:4;stroke-dasharray:none"
           transform="translate(172.9536,842.1626)"
           id="g90"><path
             id="path92"
             style="fill:none;stroke:#000000;stroke-width:0.75000002;stroke-linecap:butt;stroke-linejoin:miter;stroke-miterlimit:4;stroke-dasharray:none;stroke-opacity:1"
             d="m 0,0 h 1.044 v 3.096 c 0,0.18 0.024,0.348 0.048,0.492 0.144,0.792 0.672,1.356 1.416,1.356 0.144,0 0.252,-0.012 0.36,-0.036 V 5.904 C 2.772,5.928 2.688,5.94 2.568,5.94 1.86,5.94 1.224,5.448 0.96,4.668 H 0.912 L 0.876,5.808 H -0.048 C -0.012,5.268 0,4.68 0,3.996 Z" /></g><g
           style="stroke-width:0.75000002;stroke-miterlimit:4;stroke-dasharray:none"
           transform="translate(181.4258,844.8745)"
           id="g94"><path
             id="path96"
             style="fill:none;stroke:#000000;stroke-width:0.75000002;stroke-linecap:butt;stroke-linejoin:miter;stroke-miterlimit:4;stroke-dasharray:none;stroke-opacity:1"
             d="m 0,0 c 0.012,0.108 0.036,0.276 0.036,0.492 0,1.068 -0.504,2.736 -2.4,2.736 -1.692,0 -2.724,-1.38 -2.724,-3.132 0,-1.752 1.068,-2.928 2.856,-2.928 0.924,0 1.56,0.192 1.932,0.36 l -0.18,0.756 c -0.396,-0.168 -0.852,-0.3 -1.608,-0.3 -1.056,0 -1.968,0.588 -1.992,2.016 z m -4.068,0.756 c 0.084,0.732 0.552,1.716 1.62,1.716 1.188,0 1.476,-1.044 1.464,-1.716 z" /></g><g
           style="stroke-width:0.75000002;stroke-miterlimit:4;stroke-dasharray:none"
           transform="translate(182.7695,842.1626)"
           id="g98"><path
             id="path100"
             style="fill:none;stroke:#000000;stroke-width:0.75000002;stroke-linecap:butt;stroke-linejoin:miter;stroke-miterlimit:4;stroke-dasharray:none;stroke-opacity:1"
             d="m 0,0 h 1.056 v 3.492 c 0,0.18 0.024,0.36 0.072,0.492 0.18,0.588 0.72,1.08 1.416,1.08 0.996,0 1.344,-0.78 1.344,-1.716 V 0 H 4.944 V 3.468 C 4.944,5.46 3.696,5.94 2.892,5.94 1.932,5.94 1.26,5.4 0.972,4.848 H 0.948 l -0.06,0.96 H -0.048 C -0.012,5.328 0,4.836 0,4.236 Z" /></g><g
           style="stroke-width:0.75000002;stroke-miterlimit:4;stroke-dasharray:none"
           transform="translate(193.3892,843.1704)"
           id="g102"><path
             id="path104"
             style="fill:none;stroke:#000000;stroke-width:0.75000002;stroke-linecap:butt;stroke-linejoin:miter;stroke-miterlimit:4;stroke-dasharray:none;stroke-opacity:1"
             d="m 0,0 c -0.3,-0.132 -0.696,-0.288 -1.296,-0.288 -1.152,0 -2.016,0.828 -2.016,2.172 0,1.212 0.72,2.196 2.052,2.196 0.576,0 0.972,-0.132 1.224,-0.276 l 0.24,0.816 c -0.288,0.144 -0.84,0.3 -1.464,0.3 -1.896,0 -3.12,-1.296 -3.12,-3.084 0,-1.776 1.14,-2.964 2.892,-2.964 0.78,0 1.392,0.192 1.668,0.336 z" /></g><g
           style="stroke-width:0.75000002;stroke-miterlimit:4;stroke-dasharray:none"
           transform="translate(199.4009,844.8745)"
           id="g106"><path
             id="path108"
             style="fill:none;stroke:#000000;stroke-width:0.75000002;stroke-linecap:butt;stroke-linejoin:miter;stroke-miterlimit:4;stroke-dasharray:none;stroke-opacity:1"
             d="m 0,0 c 0.012,0.108 0.036,0.276 0.036,0.492 0,1.068 -0.504,2.736 -2.4,2.736 -1.692,0 -2.724,-1.38 -2.724,-3.132 0,-1.752 1.068,-2.928 2.856,-2.928 0.924,0 1.56,0.192 1.932,0.36 l -0.18,0.756 c -0.396,-0.168 -0.852,-0.3 -1.608,-0.3 -1.056,0 -1.968,0.588 -1.992,2.016 z m -4.068,0.756 c 0.084,0.732 0.552,1.716 1.62,1.716 1.188,0 1.476,-1.044 1.464,-1.716 z" /></g><g
           style="stroke-width:0.75000002;stroke-miterlimit:4;stroke-dasharray:none"
           transform="translate(124.3193,893.0176)"
           id="g110"><path
             id="path112"
             style="fill:none;stroke:#6b6869;stroke-width:0.75000002;stroke-linecap:butt;stroke-linejoin:miter;stroke-miterlimit:4;stroke-dasharray:none;stroke-opacity:1"
             d="m 0,0 v 8.503 h 4.371 v 3.314 H 0 V 31.225 H -4.564 L -18.495,11.289 V 8.503 h 14.508 l 0,-8.503 z m -14.22,11.817 v 0.097 l 7.638,10.616 c 0.865,1.442 1.634,2.786 2.595,4.612 h 0.144 c -0.096,-1.633 -0.144,-3.267 -0.144,-4.9 V 11.817 Z" /></g><g
           style="stroke-width:0.75000002;stroke-miterlimit:4;stroke-dasharray:none"
           transform="translate(137.8652,893.0176)"
           id="g114"><path
             id="path116"
             style="fill:none;stroke:#6b6869;stroke-width:0.75000002;stroke-linecap:butt;stroke-linejoin:miter;stroke-miterlimit:4;stroke-dasharray:none;stroke-opacity:1"
             d="m 0,0 v 20.032 h 5.621 v 3.219 H 0 V 24.5 c 0,3.555 0.913,6.725 4.516,6.725 1.201,0 2.065,-0.24 2.69,-0.528 l 0.576,3.266 C 6.966,34.3 5.668,34.636 4.179,34.636 2.21,34.636 0.096,34.012 -1.489,32.474 -3.459,30.601 -4.18,27.623 -4.18,24.356 V 23.251 H -7.446 V 20.032 H -4.18 V 0 Z" /></g></g></g><path
       id="path118"
       style="fill:none;stroke:#3a53a4;stroke-width:0.75000002;stroke-linecap:butt;stroke-linejoin:miter;stroke-miterlimit:4;stroke-dasharray:none;stroke-opacity:1"
       d="m 961.927,72 h -864 v 864 h 864 z" /><g
       style="stroke-width:0.75000002;stroke-miterlimit:4;stroke-dasharray:none"
       id="g120"><g
         style="stroke-width:0.75000002;stroke-miterlimit:4;stroke-dasharray:none"
         clip-path="url(#clipPath126)"
         id="g122"><g
           style="stroke-width:0.75000002;stroke-miterlimit:4;stroke-dasharray:none"
           transform="translate(803.498,789.067)"
           id="g128"><path
             id="path130"
             style="fill:none;stroke:#3a53a4;stroke-width:0.75000002;stroke-linecap:butt;stroke-linejoin:miter;stroke-miterlimit:4;stroke-dasharray:none;stroke-opacity:1"
             d="m 0,0 c -2.485,0 -4.5,-2.042 -4.5,-4.561 v -97.138 h -8.296 v 97.138 c 0,2.519 -2.014,4.561 -4.5,4.561 -2.485,0 -4.5,-2.042 -4.5,-4.561 v -97.138 h -8.296 v 97.138 c 0,2.519 -2.014,4.561 -4.5,4.561 -2.484,0 -4.5,-2.042 -4.5,-4.561 v -97.138 h -8.296 v 97.138 c 0,2.519 -2.014,4.561 -4.5,4.561 -2.485,0 -4.5,-2.042 -4.5,-4.561 v -97.138 h -8.296 v 97.138 c 0,2.519 -2.014,4.561 -4.5,4.561 -2.485,0 -4.5,-2.042 -4.5,-4.561 v -97.138 h -8.296 v 97.138 c 0,2.519 -2.014,4.561 -4.5,4.561 -2.485,0 -4.5,-2.042 -4.5,-4.561 v -97.138 h -8.296 v 97.138 c 0,2.519 -2.014,4.561 -4.5,4.561 -2.485,0 -4.5,-2.042 -4.5,-4.561 v -118.582 -0.001 -329.742 -10e-4 -118.582 c 0,-2.519 2.015,-4.561 4.5,-4.561 2.486,0 4.5,2.042 4.5,4.561 v 92.832 h 8.296 v -92.832 c 0,-2.519 2.015,-4.561 4.5,-4.561 2.486,0 4.5,2.042 4.5,4.561 v 92.832 h 8.296 v -92.832 c 0,-2.519 2.015,-4.561 4.5,-4.561 2.486,0 4.5,2.042 4.5,4.561 v 92.832 h 8.296 v -92.832 c 0,-2.519 2.015,-4.561 4.5,-4.561 2.486,0 4.5,2.042 4.5,4.561 v 92.832 h 8.296 v -92.832 c 0,-2.519 2.016,-4.561 4.5,-4.561 2.486,0 4.5,2.042 4.5,4.561 v 92.832 h 8.296 v -92.832 c 0,-2.519 2.015,-4.561 4.5,-4.561 2.486,0 4.5,2.042 4.5,4.561 v 92.832 H -4.5 v -92.832 c 0,-2.519 2.015,-4.561 4.5,-4.561 2.486,0 4.5,2.042 4.5,4.561 v 118.582 10e-4 329.742 0.001 118.582 C 4.5,-2.042 2.486,0 0,0 Z m -148.012,0 c -2.484,0 -4.5,-2.042 -4.5,-4.561 v -97.221 h -8.309 v 97.221 c 0,2.519 -2.013,4.561 -4.5,4.561 -2.484,0 -4.5,-2.042 -4.5,-4.561 v -97.221 h -8.309 v 97.221 c 0,2.519 -2.013,4.561 -4.5,4.561 -2.484,0 -4.5,-2.042 -4.5,-4.561 v -97.221 h -8.308 v 97.221 c 0,2.519 -2.014,4.561 -4.5,4.561 -2.485,0 -4.5,-2.042 -4.5,-4.561 v -97.221 h -8.309 v 97.221 c 0,2.519 -2.014,4.561 -4.5,4.561 -2.485,0 -4.5,-2.042 -4.5,-4.561 v -97.221 h -8.309 v 97.221 c 0,2.519 -2.014,4.561 -4.5,4.561 -2.485,0 -4.5,-2.042 -4.5,-4.561 v -97.221 h -8.309 v 97.221 c 0,2.519 -2.014,4.561 -4.499,4.561 -2.486,0 -4.501,-2.042 -4.501,-4.561 v -97.221 -376.689 -92.998 c 0,-2.519 2.015,-4.561 4.501,-4.561 2.485,0 4.499,2.042 4.499,4.561 v 92.998 h 8.309 v -92.998 c 0,-2.519 2.015,-4.561 4.5,-4.561 2.486,0 4.5,2.042 4.5,4.561 v 92.998 h 8.309 v -92.998 c 0,-2.519 2.015,-4.561 4.5,-4.561 2.486,0 4.5,2.042 4.5,4.561 v 92.998 h 8.309 v -92.998 c 0,-2.519 2.015,-4.561 4.5,-4.561 2.486,0 4.5,2.042 4.5,4.561 v 92.998 h 8.308 v -92.998 c 0,-2.519 2.016,-4.561 4.5,-4.561 2.487,0 4.5,2.042 4.5,4.561 v 92.998 h 8.309 v -92.998 c 0,-2.519 2.016,-4.561 4.5,-4.561 2.487,0 4.5,2.042 4.5,4.561 v 92.998 h 8.309 v -92.998 c 0,-2.519 2.016,-4.561 4.5,-4.561 2.487,0 4.5,2.042 4.5,4.561 V -4.561 c 0,2.519 -2.013,4.561 -4.5,4.561 z m -296.062,0 c -2.485,0 -4.5,-2.042 -4.5,-4.561 v -97.01 h -8.321 v 97.01 c 0,2.519 -2.015,4.561 -4.5,4.561 -2.485,0 -4.5,-2.042 -4.5,-4.561 v -97.01 h -8.322 v 97.01 c 0,2.519 -2.014,4.561 -4.5,4.561 -2.485,0 -4.5,-2.042 -4.5,-4.561 v -97.01 h -8.321 v 97.01 c 0,2.519 -2.015,4.561 -4.5,4.561 -2.485,0 -4.5,-2.042 -4.5,-4.561 v -97.01 h -8.321 v 97.01 c 0,2.519 -2.015,4.561 -4.5,4.561 -2.486,0 -4.5,-2.042 -4.5,-4.561 v -97.01 h -8.322 v 97.01 c 0,2.519 -2.015,4.561 -4.5,4.561 -2.485,0 -4.5,-2.042 -4.5,-4.561 v -97.01 h -8.321 v 97.01 c 0,2.519 -2.015,4.561 -4.5,4.561 -2.486,0 -4.5,-2.042 -4.5,-4.561 v -566.908 c 0,-2.519 2.014,-4.561 4.5,-4.561 2.485,0 4.5,2.042 4.5,4.561 v 92.509 h 8.321 v -92.509 c 0,-2.519 2.015,-4.561 4.5,-4.561 2.485,0 4.5,2.042 4.5,4.561 v 92.509 h 8.322 v -92.509 c 0,-2.519 2.014,-4.561 4.5,-4.561 2.485,0 4.5,2.042 4.5,4.561 v 92.509 h 8.321 v -92.509 c 0,-2.519 2.015,-4.561 4.5,-4.561 2.485,0 4.5,2.042 4.5,4.561 v 92.509 h 8.321 v -92.509 c 0,-2.519 2.015,-4.561 4.5,-4.561 2.486,0 4.5,2.042 4.5,4.561 v 92.509 h 8.322 v -92.509 c 0,-2.519 2.015,-4.561 4.5,-4.561 2.485,0 4.5,2.042 4.5,4.561 v 92.509 h 8.321 v -92.509 c 0,-2.519 2.015,-4.561 4.5,-4.561 2.486,0 4.5,2.042 4.5,4.561 V -4.561 c 0,2.519 -2.014,4.561 -4.5,4.561 z m 148.046,0 c -2.486,0 -4.5,-2.042 -4.5,-4.561 v -97.221 h -8.32 v 97.221 c 0,2.519 -2.014,4.561 -4.5,4.561 -2.485,0 -4.5,-2.042 -4.5,-4.561 v -97.221 h -8.32 v 97.221 c 0,2.519 -2.015,4.561 -4.5,4.561 -2.486,0 -4.5,-2.042 -4.5,-4.561 v -97.221 h -8.32 v 97.221 c 0,2.519 -2.015,4.561 -4.5,4.561 -2.485,0 -4.5,-2.042 -4.5,-4.561 v -97.221 h -8.32 v 97.221 c 0,2.519 -2.015,4.561 -4.5,4.561 -2.485,0 -4.5,-2.042 -4.5,-4.561 v -97.221 h -8.32 v 97.221 c 0,2.519 -2.014,4.561 -4.5,4.561 -2.485,0 -4.5,-2.042 -4.5,-4.561 v -97.221 h -8.32 v 97.221 c 0,2.519 -2.014,4.561 -4.5,4.561 -2.485,0 -4.5,-2.042 -4.5,-4.561 v -566.908 c 0,-2.519 2.015,-4.561 4.5,-4.561 2.486,0 4.5,2.042 4.5,4.561 v 92.01 h 8.32 v -92.01 c 0,-2.519 2.015,-4.561 4.5,-4.561 2.486,0 4.5,2.042 4.5,4.561 v 92.01 h 8.32 v -92.01 c 0,-2.519 2.015,-4.561 4.5,-4.561 2.485,0 4.5,2.042 4.5,4.561 v 92.01 h 8.32 v -92.01 c 0,-2.519 2.015,-4.561 4.5,-4.561 2.485,0 4.5,2.042 4.5,4.561 v 92.01 h 8.32 v -92.01 c 0,-2.519 2.014,-4.561 4.5,-4.561 2.485,0 4.5,2.042 4.5,4.561 v 92.01 h 8.32 v -92.01 c 0,-2.519 2.015,-4.561 4.5,-4.561 2.486,0 4.5,2.042 4.5,4.561 v 92.01 h 8.32 v -92.01 c 0,-2.519 2.014,-4.561 4.5,-4.561 2.485,0 4.5,2.042 4.5,4.561 V -4.561 c 0,2.519 -2.015,4.561 -4.5,4.561 z" /></g><g
           style="stroke-width:0.75000002;stroke-miterlimit:4;stroke-dasharray:none"
           transform="translate(224.4697,749.3273)"
           id="g132"><path
             id="path134"
             style="fill:none;stroke:#3a53a4;stroke-width:0.75000002;stroke-linecap:butt;stroke-linejoin:miter;stroke-miterlimit:4;stroke-dasharray:none;stroke-opacity:1"
             d="m 0,0 c 0,-3.351 -2.719,-6.068 -6.068,-6.068 -3.35,0 -6.067,2.717 -6.067,6.068 0,3.351 2.717,6.067 6.067,6.067 C -2.719,6.067 0,3.351 0,0 Z" /></g><g
           style="stroke-width:0.75000002;stroke-miterlimit:4;stroke-dasharray:none"
           transform="translate(240.4825,263.9871)"
           id="g136"><path
             id="path138"
             style="fill:none;stroke:#3a53a4;stroke-width:0.75000002;stroke-linecap:butt;stroke-linejoin:miter;stroke-miterlimit:4;stroke-dasharray:none;stroke-opacity:1"
             d="m 0,0 c 0,-3.351 -2.719,-6.065 -6.068,-6.065 -3.35,0 -6.067,2.714 -6.067,6.065 0,3.352 2.717,6.067 6.067,6.067 C -2.719,6.067 0,3.352 0,0 Z" /></g><g
           style="stroke-width:0.75000002;stroke-miterlimit:4;stroke-dasharray:none"
           transform="translate(846.5645,749.3273)"
           id="g140"><path
             id="path142"
             style="fill:none;stroke:#3a53a4;stroke-width:0.75000002;stroke-linecap:butt;stroke-linejoin:miter;stroke-miterlimit:4;stroke-dasharray:none;stroke-opacity:1"
             d="m 0,0 c 0,-3.351 -2.718,-6.067 -6.067,-6.067 -3.351,0 -6.068,2.716 -6.068,6.067 0,3.351 2.717,6.066 6.068,6.066 C -2.718,6.066 0,3.351 0,0 Z" /></g><g
           style="stroke-width:0.75000002;stroke-miterlimit:4;stroke-dasharray:none"
           transform="translate(385.9715,863.3104)"
           id="g144"><path
             id="path146"
             style="fill:none;stroke:#3a53a4;stroke-width:0.75000002;stroke-linecap:butt;stroke-linejoin:miter;stroke-miterlimit:4;stroke-dasharray:none;stroke-opacity:1"
             d="m 0,0 c 0,-3.351 -2.719,-6.067 -6.068,-6.067 -3.349,0 -6.067,2.716 -6.067,6.067 0,3.35 2.718,6.067 6.067,6.067 C -2.719,6.067 0,3.35 0,0 Z" /></g><g
           style="stroke-width:0.75000002;stroke-miterlimit:4;stroke-dasharray:none"
           transform="translate(683.3333,860.3073)"
           id="g148"><path
             id="path150"
             style="fill:none;stroke:#3a53a4;stroke-width:0.75000002;stroke-linecap:butt;stroke-linejoin:miter;stroke-miterlimit:4;stroke-dasharray:none;stroke-opacity:1"
             d="m 0,0 c 0,-3.285 -2.665,-5.948 -5.949,-5.948 -3.285,0 -5.949,2.663 -5.949,5.948 0,3.285 2.664,5.948 5.949,5.948 C -2.665,5.948 0,3.285 0,0 Z" /></g><g
           style="stroke-width:0.75000002;stroke-miterlimit:4;stroke-dasharray:none"
           transform="translate(387.0699,138.5154)"
           id="g152"><path
             id="path154"
             style="fill:none;stroke:#3a53a4;stroke-width:0.75000002;stroke-linecap:butt;stroke-linejoin:miter;stroke-miterlimit:4;stroke-dasharray:none;stroke-opacity:1"
             d="m 0,0 c 0,-3.351 -2.719,-6.067 -6.068,-6.067 -3.349,0 -6.067,2.716 -6.067,6.067 0,3.35 2.718,6.065 6.067,6.065 C -2.719,6.065 0,3.35 0,0 Z" /></g><g
           style="stroke-width:0.75000002;stroke-miterlimit:4;stroke-dasharray:none"
           transform="translate(685.4846,138.6107)"
           id="g156"><path
             id="path158"
             style="fill:none;stroke:#3a53a4;stroke-width:0.75000002;stroke-linecap:butt;stroke-linejoin:miter;stroke-miterlimit:4;stroke-dasharray:none;stroke-opacity:1"
             d="m 0,0 c 0,-3.351 -2.719,-6.067 -6.068,-6.067 -3.351,0 -6.068,2.716 -6.068,6.067 0,3.35 2.717,6.065 6.068,6.065 C -2.719,6.065 0,3.35 0,0 Z" /></g><g
           style="stroke-width:0.75000002;stroke-miterlimit:4;stroke-dasharray:none"
           transform="translate(827.5493,261.9855)"
           id="g160"><path
             id="path162"
             style="fill:none;stroke:#3a53a4;stroke-width:0.75000002;stroke-linecap:butt;stroke-linejoin:miter;stroke-miterlimit:4;stroke-dasharray:none;stroke-opacity:1"
             d="m 0,0 c 0,-3.35 -2.718,-6.065 -6.067,-6.065 -3.351,0 -6.068,2.715 -6.068,6.065 0,3.352 2.717,6.067 6.068,6.067 C -2.718,6.067 0,3.352 0,0 Z" /></g><g
           style="stroke-width:0.75000002;stroke-miterlimit:4;stroke-dasharray:none"
           transform="translate(364.8621,824.9604)"
           id="g164"><path
             id="path166"
             style="fill:none;stroke:#3a53a4;stroke-width:0.75000002;stroke-linecap:butt;stroke-linejoin:miter;stroke-miterlimit:4;stroke-dasharray:none;stroke-opacity:1"
             d="m 0,0 v 3.112 c 0,11.697 -54.69,49.357 -57.128,49.357 -2.438,0 -57.128,-37.66 -57.128,-49.357 V 0 h -0.014 V -21.394 H 0.005 L 0.005,0 Z" /></g><g
           style="stroke-width:0.75000002;stroke-miterlimit:4;stroke-dasharray:none"
           transform="translate(363.9294,197.6597)"
           id="g168"><path
             id="path170"
             style="fill:none;stroke:#3a53a4;stroke-width:0.75000002;stroke-linecap:butt;stroke-linejoin:miter;stroke-miterlimit:4;stroke-dasharray:none;stroke-opacity:1"
             d="m 0,0 h -112.822 v -21.705 h 0.014 v -0.43 c 0,-9.135 53.874,-35.539 56.247,-35.539 2.374,0 56.556,26.404 56.556,35.539 v 0.43 H 0 Z" /></g><g
           style="stroke-width:0.75000002;stroke-miterlimit:4;stroke-dasharray:none"
           transform="translate(535.5504,250.4564)"
           id="g172"><path
             id="path174"
             style="fill:none;stroke:#3a53a4;stroke-width:0.75000002;stroke-linecap:butt;stroke-linejoin:miter;stroke-miterlimit:4;stroke-dasharray:none;stroke-opacity:1"
             d="m 0,0 c 0,-3.351 -2.719,-6.067 -6.068,-6.067 -3.349,0 -6.067,2.716 -6.067,6.067 0,3.35 2.718,6.065 6.067,6.065 C -2.719,6.065 0,3.35 0,0 Z" /></g><g
           style="stroke-width:0.75000002;stroke-miterlimit:4;stroke-dasharray:none"
           transform="translate(196.2152,405.5333)"
           id="g176"><path
             id="path178"
             style="fill:none;stroke:#3a53a4;stroke-width:0.75000002;stroke-linecap:butt;stroke-linejoin:miter;stroke-miterlimit:4;stroke-dasharray:none;stroke-opacity:1"
             d="m 0,0 c 0,-3.351 -2.719,-6.067 -6.068,-6.067 -3.349,0 -6.067,2.716 -6.067,6.067 0,3.35 2.718,6.065 6.067,6.065 C -2.719,6.065 0,3.35 0,0 Z" /></g><g
           style="stroke-width:0.75000002;stroke-miterlimit:4;stroke-dasharray:none"
           transform="translate(872.3627,401.9899)"
           id="g180"><path
             id="path182"
             style="fill:none;stroke:#3a53a4;stroke-width:0.75000002;stroke-linecap:butt;stroke-linejoin:miter;stroke-miterlimit:4;stroke-dasharray:none;stroke-opacity:1"
             d="m 0,0 c 0,-3.351 -2.719,-6.067 -6.068,-6.067 -3.349,0 -6.067,2.716 -6.067,6.067 0,3.35 2.718,6.065 6.067,6.065 C -2.719,6.065 0,3.35 0,0 Z" /></g><g
           style="stroke-width:0.75000002;stroke-miterlimit:4;stroke-dasharray:none"
           transform="translate(874.9033,601.2623)"
           id="g184"><path
             id="path186"
             style="fill:none;stroke:#3a53a4;stroke-width:0.75000002;stroke-linecap:butt;stroke-linejoin:miter;stroke-miterlimit:4;stroke-dasharray:none;stroke-opacity:1"
             d="m 0,0 c 0,-3.351 -2.719,-6.067 -6.068,-6.067 -3.349,0 -6.067,2.716 -6.067,6.067 0,3.35 2.718,6.065 6.067,6.065 C -2.719,6.065 0,3.35 0,0 Z" /></g><g
           style="stroke-width:0.75000002;stroke-miterlimit:4;stroke-dasharray:none"
           transform="translate(196.1476,598.028)"
           id="g188"><path
             id="path190"
             style="fill:none;stroke:#3a53a4;stroke-width:0.75000002;stroke-linecap:butt;stroke-linejoin:miter;stroke-miterlimit:4;stroke-dasharray:none;stroke-opacity:1"
             d="m 0,0 c 0,-3.351 -2.719,-6.067 -6.068,-6.067 -3.349,0 -6.067,2.716 -6.067,6.067 0,3.35 2.718,6.065 6.067,6.065 C -2.719,6.065 0,3.35 0,0 Z" /></g><g
           style="stroke-width:0.75000002;stroke-miterlimit:4;stroke-dasharray:none"
           transform="translate(535.4083,757.1464)"
           id="g192"><path
             id="path194"
             style="fill:none;stroke:#3a53a4;stroke-width:0.75000002;stroke-linecap:butt;stroke-linejoin:miter;stroke-miterlimit:4;stroke-dasharray:none;stroke-opacity:1"
             d="m 0,0 c 0,-3.351 -2.719,-6.067 -6.068,-6.067 -3.349,0 -6.067,2.716 -6.067,6.067 0,3.35 2.718,6.065 6.067,6.065 C -2.719,6.065 0,3.35 0,0 Z" /></g><g
           style="stroke-width:0.75000002;stroke-miterlimit:4;stroke-dasharray:none"
           transform="translate(512.4072,824.9838)"
           id="g196"><path
             id="path198"
             style="fill:none;stroke:#3a53a4;stroke-width:0.75000002;stroke-linecap:butt;stroke-linejoin:miter;stroke-miterlimit:4;stroke-dasharray:none;stroke-opacity:1"
             d="m 0,0 v 3.112 c 0,11.697 -54.569,49.357 -57.002,49.357 -2.433,0 -57.002,-37.66 -57.002,-49.357 V 0 h -0.014 V -21.394 H 0.005 L 0.005,0 Z" /></g><g
           style="stroke-width:0.75000002;stroke-miterlimit:4;stroke-dasharray:none"
           transform="translate(660.4487,824.9838)"
           id="g200"><path
             id="path202"
             style="fill:none;stroke:#3a53a4;stroke-width:0.75000002;stroke-linecap:butt;stroke-linejoin:miter;stroke-miterlimit:4;stroke-dasharray:none;stroke-opacity:1"
             d="m 0,0 v 3.112 c 0,11.697 -54.569,49.357 -57.002,49.357 -2.433,0 -57.002,-37.66 -57.002,-49.357 V 0 h -0.014 V -21.394 H 0.005 L 0.005,0 Z" /></g><g
           style="stroke-width:0.75000002;stroke-miterlimit:4;stroke-dasharray:none"
           transform="translate(808.4911,824.9838)"
           id="g204"><path
             id="path206"
             style="fill:none;stroke:#3a53a4;stroke-width:0.75000002;stroke-linecap:butt;stroke-linejoin:miter;stroke-miterlimit:4;stroke-dasharray:none;stroke-opacity:1"
             d="m 0,0 v 3.112 c 0,11.697 -54.569,49.357 -57.002,49.357 -2.433,0 -57.002,-37.66 -57.002,-49.357 V 0 h -0.014 V -21.394 H 0.005 L 0.005,0 Z" /></g><g
           style="stroke-width:0.75000002;stroke-miterlimit:4;stroke-dasharray:none"
           transform="translate(511.921,197.6412)"
           id="g208"><path
             id="path210"
             style="fill:none;stroke:#3a53a4;stroke-width:0.75000002;stroke-linecap:butt;stroke-linejoin:miter;stroke-miterlimit:4;stroke-dasharray:none;stroke-opacity:1"
             d="m 0,0 h -112.822 v -21.705 h 0.014 v -0.43 c 0,-9.134 53.874,-35.539 56.247,-35.539 2.374,0 56.556,26.405 56.556,35.539 v 0.43 H 0 Z" /></g><g
           style="stroke-width:0.75000002;stroke-miterlimit:4;stroke-dasharray:none"
           transform="translate(659.9706,197.604)"
           id="g212"><path
             id="path214"
             style="fill:none;stroke:#3a53a4;stroke-width:0.75000002;stroke-linecap:butt;stroke-linejoin:miter;stroke-miterlimit:4;stroke-dasharray:none;stroke-opacity:1"
             d="m 0,0 h -112.822 v -21.705 h 0.014 v -0.43 c 0,-9.134 53.874,-35.539 56.247,-35.539 2.374,0 56.556,26.405 56.556,35.539 v 0.43 H 0 Z" /></g><g
           style="stroke-width:0.75000002;stroke-miterlimit:4;stroke-dasharray:none"
           transform="translate(808.0209,197.5855)"
           id="g216"><path
             id="path218"
             style="fill:none;stroke:#3a53a4;stroke-width:0.75000002;stroke-linecap:butt;stroke-linejoin:miter;stroke-miterlimit:4;stroke-dasharray:none;stroke-opacity:1"
             d="m 0,0 h -112.822 v -21.705 h 0.013 v -0.43 c 0,-9.134 53.875,-35.539 56.248,-35.539 2.374,0 56.556,26.405 56.556,35.539 v 0.43 H 0 Z" /></g><g
           style="stroke-width:0.75000002;stroke-miterlimit:4;stroke-dasharray:none"
           transform="translate(236.1267,504.2655)"
           id="g220"><path
             id="path222"
             style="fill:none;stroke:#3a53a4;stroke-width:0.75000002;stroke-linecap:butt;stroke-linejoin:miter;stroke-miterlimit:4;stroke-dasharray:none;stroke-opacity:1"
             d="m 0,0 c 0,-4.282 -3.475,-7.755 -7.756,-7.755 -4.281,0 -7.754,3.473 -7.754,7.755 0,4.283 3.473,7.755 7.754,7.755 C -3.475,7.755 0,4.283 0,0 Z" /></g><g
           style="stroke-width:0.75000002;stroke-miterlimit:4;stroke-dasharray:none"
           transform="translate(239.249,303.141)"
           id="g224"><path
             id="path226"
             style="fill:none;stroke:#3a53a4;stroke-width:0.75000002;stroke-linecap:butt;stroke-linejoin:miter;stroke-miterlimit:4;stroke-dasharray:none;stroke-opacity:1"
             d="m 0,0 c 0,-4.282 -3.475,-7.755 -7.756,-7.755 -4.281,0 -7.754,3.473 -7.754,7.755 0,4.283 3.473,7.755 7.754,7.755 C -3.475,7.755 0,4.283 0,0 Z" /></g><g
           style="stroke-width:0.75000002;stroke-miterlimit:4;stroke-dasharray:none"
           transform="translate(389.1197,504.4221)"
           id="g228"><path
             id="path230"
             style="fill:none;stroke:#3a53a4;stroke-width:0.75000002;stroke-linecap:butt;stroke-linejoin:miter;stroke-miterlimit:4;stroke-dasharray:none;stroke-opacity:1"
             d="m 0,0 c 0,-4.282 -3.475,-7.755 -7.756,-7.755 -4.281,0 -7.754,3.473 -7.754,7.755 0,4.283 3.473,7.755 7.754,7.755 C -3.475,7.755 0,4.283 0,0 Z" /></g><g
           style="stroke-width:0.75000002;stroke-miterlimit:4;stroke-dasharray:none"
           transform="translate(537.6821,504)"
           id="g232"><path
             id="path234"
             style="fill:none;stroke:#3a53a4;stroke-width:0.75000002;stroke-linecap:butt;stroke-linejoin:miter;stroke-miterlimit:4;stroke-dasharray:none;stroke-opacity:1"
             d="m 0,0 c 0,-4.282 -3.475,-7.755 -7.756,-7.755 -4.281,0 -7.754,3.473 -7.754,7.755 0,4.283 3.473,7.755 7.754,7.755 C -3.475,7.755 0,4.283 0,0 Z" /></g><g
           style="stroke-width:0.75000002;stroke-miterlimit:4;stroke-dasharray:none"
           transform="translate(537.6904,299.958)"
           id="g236"><path
             id="path238"
             style="fill:none;stroke:#3a53a4;stroke-width:0.75000002;stroke-linecap:butt;stroke-linejoin:miter;stroke-miterlimit:4;stroke-dasharray:none;stroke-opacity:1"
             d="m 0,0 c 0,-4.282 -3.475,-7.755 -7.756,-7.755 -4.281,0 -7.754,3.473 -7.754,7.755 0,4.283 3.473,7.755 7.754,7.755 C -3.475,7.755 0,4.283 0,0 Z" /></g><g
           style="stroke-width:0.75000002;stroke-miterlimit:4;stroke-dasharray:none"
           transform="translate(835.1128,303.141)"
           id="g240"><path
             id="path242"
             style="fill:none;stroke:#3a53a4;stroke-width:0.75000002;stroke-linecap:butt;stroke-linejoin:miter;stroke-miterlimit:4;stroke-dasharray:none;stroke-opacity:1"
             d="m 0,0 c 0,-4.282 -3.475,-7.755 -7.756,-7.755 -4.281,0 -7.754,3.473 -7.754,7.755 0,4.283 3.473,7.755 7.754,7.755 C -3.475,7.755 0,4.283 0,0 Z" /></g><g
           style="stroke-width:0.75000002;stroke-miterlimit:4;stroke-dasharray:none"
           transform="translate(537.6904,704.928)"
           id="g244"><path
             id="path246"
             style="fill:none;stroke:#3a53a4;stroke-width:0.75000002;stroke-linecap:butt;stroke-linejoin:miter;stroke-miterlimit:4;stroke-dasharray:none;stroke-opacity:1"
             d="m 0,0 c 0,-4.282 -3.475,-7.755 -7.756,-7.755 -4.281,0 -7.754,3.473 -7.754,7.755 0,4.283 3.473,7.755 7.754,7.755 C -3.475,7.755 0,4.283 0,0 Z" /></g><g
           style="stroke-width:0.75000002;stroke-miterlimit:4;stroke-dasharray:none"
           transform="translate(239.249,702.7514)"
           id="g248"><path
             id="path250"
             style="fill:none;stroke:#3a53a4;stroke-width:0.75000002;stroke-linecap:butt;stroke-linejoin:miter;stroke-miterlimit:4;stroke-dasharray:none;stroke-opacity:1"
             d="m 0,0 c 0,-4.282 -3.475,-7.755 -7.756,-7.755 -4.281,0 -7.754,3.473 -7.754,7.755 0,4.282 3.473,7.755 7.754,7.755 C -3.475,7.755 0,4.282 0,0 Z" /></g><g
           style="stroke-width:0.75000002;stroke-miterlimit:4;stroke-dasharray:none"
           transform="translate(685.1647,504.4059)"
           id="g252"><path
             id="path254"
             style="fill:none;stroke:#3a53a4;stroke-width:0.75000002;stroke-linecap:butt;stroke-linejoin:miter;stroke-miterlimit:4;stroke-dasharray:none;stroke-opacity:1"
             d="m 0,0 c 0,-4.282 -3.475,-7.755 -7.756,-7.755 -4.281,0 -7.754,3.473 -7.754,7.755 0,4.283 3.473,7.755 7.754,7.755 C -3.475,7.755 0,4.283 0,0 Z" /></g><g
           style="stroke-width:0.75000002;stroke-miterlimit:4;stroke-dasharray:none"
           transform="translate(840.5972,504.4059)"
           id="g256"><path
             id="path258"
             style="fill:none;stroke:#3a53a4;stroke-width:0.75000002;stroke-linecap:butt;stroke-linejoin:miter;stroke-miterlimit:4;stroke-dasharray:none;stroke-opacity:1"
             d="m 0,0 c 0,-4.282 -3.475,-7.755 -7.756,-7.755 -4.281,0 -7.754,3.473 -7.754,7.755 0,4.283 3.473,7.755 7.754,7.755 C -3.475,7.755 0,4.283 0,0 Z" /></g><g
           style="stroke-width:0.75000002;stroke-miterlimit:4;stroke-dasharray:none"
           transform="translate(832.8422,702.7514)"
           id="g260"><path
             id="path262"
             style="fill:none;stroke:#3a53a4;stroke-width:0.75000002;stroke-linecap:butt;stroke-linejoin:miter;stroke-miterlimit:4;stroke-dasharray:none;stroke-opacity:1"
             d="m 0,0 c 0,-4.282 -3.475,-7.755 -7.756,-7.755 -4.281,0 -7.754,3.473 -7.754,7.755 0,4.282 3.473,7.755 7.754,7.755 C -3.475,7.755 0,4.282 0,0 Z" /></g></g></g></g></svg>