<?xml version="1.0" encoding="UTF-8" standalone="no"?>
<svg
   xmlns:dc="http://purl.org/dc/elements/1.1/"
   xmlns:cc="http://creativecommons.org/ns#"
   xmlns:rdf="http://www.w3.org/1999/02/22-rdf-syntax-ns#"
   xmlns:svg="http://www.w3.org/2000/svg"
   xmlns="http://www.w3.org/2000/svg"
   viewBox="0 0 1344 1344"
   height="1344"
   width="1344"
   xml:space="preserve"
   id="svg2"
   version="1.1"><metadata
     id="metadata8"><rdf:RDF><cc:Work
         rdf:about=""><dc:format>image/svg+xml</dc:format><dc:type
           rdf:resource="http://purl.org/dc/dcmitype/StillImage" /><dc:title></dc:title></cc:Work></rdf:RDF></metadata><defs
     id="defs6"><clipPath
       id="clipPath32"
       clipPathUnits="userSpaceOnUse"><path
         id="path30"
         d="M 0,1008 H 1008 V 0 H 0 Z" /></clipPath><clipPath
       id="clipPath72"
       clipPathUnits="userSpaceOnUse"><path
         id="path70"
         d="M 0,1008 H 1008 V 0 H 0 Z" /></clipPath></defs><g
     transform="matrix(1.3333333,0,0,-1.3333333,0,1344)"
     id="g10"><text
       id="text14"
       style="font-variant:normal;font-weight:normal;font-stretch:normal;font-size:12px;font-family:'Myriad Pro';-inkscape-font-specification:MyriadPro-Regular;writing-mode:lr-tb;fill:#000000;fill-opacity:1;fill-rule:nonzero;stroke:none"
       transform="matrix(1,0,0,-1,85.8965,53.7715)"><tspan
         id="tspan12"
         y="0"
         x="0 6.816 13.428 17.4 19.944 23.448 27.252001 33.84 43.848 46.391998 52.548 56.664001 62.82 68.975998 72.192001 74.736 80.519997 85.896004 90.120003 95.772003 98.603996 101.412 106.668 109.152 111.696 119.46 126.288 133.116 139.12801 142.992 146.67599 149.508 155.52 159.15601 163.12801 165.672 168.504 174.51601 178.48801 182.388 188.39999 192.32401 197.076 199.62 209.62801 216.24001 220.992 224.964 227.508 232.25999 235.06799 245.076 251.90401 254.73599 260.388 262.93201 269.76001 275.772 278.31601 284.08801 286.896 291.64801 294.45599 301.284 304.116 310.12799 312.672 318.45599 325.116 331.884 334.42801 341.01599 347.67599 350.508 356.16 358.70401 365.29199 371.90399 375.87601 378.70801 381.51599 388.17599 394.18799 400.836 403.32001 405.86401 412.69199 415.52399 421.53601 427.32001 432.07199 438.08401 440.62799 446.004 452.664 459.25201 465.84 470.59201 476.604 479.14801 485.91599 491.92801 498.75601 502.728 509.388">Cut from 1/16” acrylic. Upper-left letters must simply be visible and only outlined, please choose depth.</tspan></text>
<path
       id="path16"
       style="fill:none;stroke:#231f20;stroke-width:1;stroke-linecap:butt;stroke-linejoin:miter;stroke-miterlimit:4;stroke-dasharray:none;stroke-opacity:1"
       d="m 227.092,793.162 h -72 v 72 h 72 z" /><text
       id="text20"
       style="font-variant:normal;font-weight:normal;font-stretch:normal;font-size:12px;font-family:'Myriad Pro';-inkscape-font-specification:MyriadPro-Regular;writing-mode:lr-tb;fill:#000000;fill-opacity:1;fill-rule:nonzero;stroke:none"
       transform="matrix(1,0,0,-1,164.3018,844.292)"><tspan
         id="tspan18"
         y="0"
         x="0 6.1560001 9.3719997 11.916 16.667999 23.424 30.035999 35.82 39.624001 45.636002">1” square </tspan></text>
<g
       transform="translate(167.1338,844.292)"
       id="g22"><path
         id="path24"
         style="fill:none;stroke:#231f20;stroke-width:0.01;stroke-linecap:butt;stroke-linejoin:miter;stroke-miterlimit:10;stroke-dasharray:none;stroke-opacity:1"
         d="M 0,0 H 1.02 V 7.8 H 0.12 L -1.584,6.888 -1.38,6.084 -0.024,6.816 H 0 Z" /></g><g
       id="g26"><g
         clip-path="url(#clipPath32)"
         id="g28"><g
           transform="translate(171.5737,852.4038)"
           id="g34"><path
             id="path36"
             style="fill:none;stroke:#231f20;stroke-width:0.01;stroke-linecap:butt;stroke-linejoin:miter;stroke-miterlimit:10;stroke-dasharray:none;stroke-opacity:1"
             d="m 0,0 c -0.132,-0.864 -0.456,-2.112 -0.708,-2.82 l 0.672,0.084 C 0.288,-2.184 0.804,-0.9 1.08,0.108 Z M 1.776,0 C 1.644,-0.864 1.332,-2.112 1.068,-2.82 l 0.672,0.084 c 0.324,0.552 0.84,1.836 1.116,2.844 z" /></g><g
           transform="translate(176.6851,844.5679)"
           id="g38"><path
             id="path40"
             style="fill:none;stroke:#231f20;stroke-width:0.01;stroke-linecap:butt;stroke-linejoin:miter;stroke-miterlimit:10;stroke-dasharray:none;stroke-opacity:1"
             d="m 0,0 c 0.408,-0.24 0.996,-0.396 1.632,-0.396 1.38,0 2.172,0.72 2.172,1.74 0,0.864 -0.516,1.368 -1.524,1.752 C 1.524,3.384 1.176,3.6 1.176,4.08 c 0,0.432 0.348,0.792 0.972,0.792 0.54,0 0.96,-0.192 1.188,-0.336 L 3.6,5.304 C 3.276,5.496 2.76,5.664 2.172,5.664 0.924,5.664 0.168,4.896 0.168,3.96 c 0,-0.696 0.492,-1.272 1.536,-1.644 0.78,-0.288 1.08,-0.564 1.08,-1.068 0,-0.48 -0.36,-0.864 -1.128,-0.864 -0.528,0 -1.08,0.216 -1.392,0.42 z" /></g><g
           transform="translate(185.8052,841.916)"
           id="g42"><path
             id="path44"
             style="fill:none;stroke:#231f20;stroke-width:0.01;stroke-linecap:butt;stroke-linejoin:miter;stroke-miterlimit:10;stroke-dasharray:none;stroke-opacity:1"
             d="m 0,0 h 1.056 v 6.588 c 0,0.6 0.012,1.104 0.036,1.596 H 0.096 L 0.06,7.308 H 0.036 c -0.288,0.564 -0.888,1.008 -1.788,1.008 -1.224,0 -2.628,-0.96 -2.628,-3.132 0,-1.764 1.104,-2.94 2.46,-2.94 0.936,0 1.584,0.456 1.896,1.032 L 0,3.276 Z M 0,4.74 C 0,4.584 -0.036,4.38 -0.084,4.236 -0.324,3.504 -0.912,3.084 -1.596,3.084 c -1.164,0 -1.716,1.008 -1.716,2.16 0,1.308 0.66,2.232 1.752,2.232 0.792,0 1.356,-0.552 1.512,-1.2 C -0.012,6.144 0,5.976 0,5.832 Z" /></g><g
           transform="translate(193.4609,850.1001)"
           id="g46"><path
             id="path48"
             style="fill:none;stroke:#231f20;stroke-width:0.01;stroke-linecap:butt;stroke-linejoin:miter;stroke-miterlimit:10;stroke-dasharray:none;stroke-opacity:1"
             d="m 0,0 h -1.056 v -3.564 c 0,-0.192 -0.036,-0.384 -0.096,-0.54 -0.192,-0.468 -0.684,-0.96 -1.392,-0.96 -0.96,0 -1.296,0.744 -1.296,1.848 V 0 h -1.056 v -3.396 c 0,-2.04 1.092,-2.544 2.004,-2.544 1.032,0 1.644,0.612 1.92,1.08 h 0.024 l 0.06,-0.948 H 0.048 C 0.012,-5.352 0,-4.824 0,-4.224 Z" /></g><g
           transform="translate(199.3892,844.292)"
           id="g50"><path
             id="path52"
             style="fill:none;stroke:#231f20;stroke-width:0.01;stroke-linecap:butt;stroke-linejoin:miter;stroke-miterlimit:10;stroke-dasharray:none;stroke-opacity:1"
             d="m 0,0 c -0.072,0.396 -0.096,0.888 -0.096,1.392 v 2.172 c 0,1.164 -0.432,2.376 -2.208,2.376 -0.732,0 -1.428,-0.204 -1.908,-0.516 l 0.24,-0.696 C -3.564,4.992 -3,5.16 -2.46,5.16 c 1.188,0 1.32,-0.864 1.32,-1.344 v -0.12 c -2.244,0.012 -3.492,-0.756 -3.492,-2.16 0,-0.84 0.6,-1.668 1.776,-1.668 0.828,0 1.452,0.408 1.776,0.864 h 0.036 L -0.96,0 Z M -1.116,1.956 C -1.116,1.848 -1.14,1.728 -1.176,1.62 -1.344,1.128 -1.824,0.648 -2.58,0.648 c -0.54,0 -0.996,0.324 -0.996,1.008 0,1.128 1.308,1.332 2.46,1.308 z" /></g><g
           transform="translate(200.9966,844.292)"
           id="g54"><path
             id="path56"
             style="fill:none;stroke:#231f20;stroke-width:0.01;stroke-linecap:butt;stroke-linejoin:miter;stroke-miterlimit:10;stroke-dasharray:none;stroke-opacity:1"
             d="m 0,0 h 1.044 v 3.096 c 0,0.18 0.024,0.348 0.048,0.492 0.144,0.792 0.672,1.356 1.416,1.356 0.144,0 0.252,-0.012 0.36,-0.036 V 5.904 C 2.772,5.928 2.688,5.94 2.568,5.94 1.86,5.94 1.224,5.448 0.96,4.668 H 0.912 L 0.876,5.808 H -0.048 C -0.012,5.268 0,4.68 0,3.996 Z" /></g><g
           transform="translate(209.4687,847.0039)"
           id="g58"><path
             id="path60"
             style="fill:none;stroke:#231f20;stroke-width:0.01;stroke-linecap:butt;stroke-linejoin:miter;stroke-miterlimit:10;stroke-dasharray:none;stroke-opacity:1"
             d="m 0,0 c 0.012,0.108 0.036,0.276 0.036,0.492 0,1.068 -0.504,2.736 -2.4,2.736 -1.692,0 -2.724,-1.38 -2.724,-3.132 0,-1.752 1.068,-2.928 2.856,-2.928 0.924,0 1.56,0.192 1.932,0.36 l -0.18,0.756 c -0.396,-0.168 -0.852,-0.3 -1.608,-0.3 -1.056,0 -1.968,0.588 -1.992,2.016 z m -4.068,0.756 c 0.084,0.732 0.552,1.716 1.62,1.716 1.188,0 1.476,-1.044 1.464,-1.716 z" /></g></g></g><text
       id="text64"
       style="font-variant:normal;font-weight:normal;font-stretch:normal;font-size:12px;font-family:'Myriad Pro';-inkscape-font-specification:MyriadPro-Regular;writing-mode:lr-tb;fill:#000000;fill-opacity:1;fill-rule:nonzero;stroke:none"
       transform="matrix(1,0,0,-1,164.3018,829.8921)"><tspan
         id="tspan62"
         y="0"
         x="0 3.8039999 9.816 13.164 19.176001 22.981199 28.9932 35.653198 40.957199">reference</tspan></text>
<g
       style="stroke-width:0.75000002;stroke-miterlimit:4;stroke-dasharray:none"
       id="g66"><g
         style="stroke-width:0.75000002;stroke-miterlimit:4;stroke-dasharray:none"
         clip-path="url(#clipPath72)"
         id="g68"><g
           style="stroke-width:0.75000002;stroke-miterlimit:4;stroke-dasharray:none"
           transform="translate(165.1777,829.8921)"
           id="g74"><path
             id="path76"
             style="fill:none;stroke:#231f20;stroke-width:0.75000002;stroke-linecap:butt;stroke-linejoin:miter;stroke-miterlimit:4;stroke-dasharray:none;stroke-opacity:1"
             d="m 0,0 h 1.044 v 3.096 c 0,0.18 0.024,0.348 0.048,0.492 0.144,0.792 0.672,1.356 1.416,1.356 0.144,0 0.252,-0.012 0.36,-0.036 V 5.904 C 2.772,5.928 2.688,5.94 2.568,5.94 1.86,5.94 1.224,5.448 0.96,4.668 H 0.912 L 0.876,5.808 H -0.048 C -0.012,5.268 0,4.68 0,3.996 Z" /></g><g
           style="stroke-width:0.75000002;stroke-miterlimit:4;stroke-dasharray:none"
           transform="translate(173.6494,832.604)"
           id="g78"><path
             id="path80"
             style="fill:none;stroke:#231f20;stroke-width:0.75000002;stroke-linecap:butt;stroke-linejoin:miter;stroke-miterlimit:4;stroke-dasharray:none;stroke-opacity:1"
             d="m 0,0 c 0.012,0.108 0.036,0.276 0.036,0.492 0,1.068 -0.504,2.736 -2.4,2.736 -1.692,0 -2.724,-1.38 -2.724,-3.132 0,-1.752 1.068,-2.928 2.856,-2.928 0.924,0 1.56,0.192 1.932,0.36 l -0.18,0.756 c -0.396,-0.168 -0.852,-0.3 -1.608,-0.3 -1.056,0 -1.968,0.588 -1.992,2.016 z m -4.068,0.756 c 0.084,0.732 0.552,1.716 1.62,1.716 1.188,0 1.476,-1.044 1.464,-1.716 z" /></g><g
           style="stroke-width:0.75000002;stroke-miterlimit:4;stroke-dasharray:none"
           transform="translate(176.145,829.8921)"
           id="g82"><path
             id="path84"
             style="fill:none;stroke:#231f20;stroke-width:0.75000002;stroke-linecap:butt;stroke-linejoin:miter;stroke-miterlimit:4;stroke-dasharray:none;stroke-opacity:1"
             d="M 0,0 V 5.004 H 1.404 V 5.808 H 0 V 6.12 C 0,7.008 0.228,7.8 1.128,7.8 1.428,7.8 1.644,7.74 1.8,7.668 L 1.944,8.484 C 1.74,8.568 1.416,8.652 1.044,8.652 0.552,8.652 0.024,8.496 -0.372,8.112 -0.864,7.644 -1.044,6.9 -1.044,6.084 V 5.808 H -1.86 V 5.004 h 0.816 V 0 Z" /></g><g
           style="stroke-width:0.75000002;stroke-miterlimit:4;stroke-dasharray:none"
           transform="translate(183.0093,832.604)"
           id="g86"><path
             id="path88"
             style="fill:none;stroke:#231f20;stroke-width:0.75000002;stroke-linecap:butt;stroke-linejoin:miter;stroke-miterlimit:4;stroke-dasharray:none;stroke-opacity:1"
             d="m 0,0 c 0.012,0.108 0.036,0.276 0.036,0.492 0,1.068 -0.504,2.736 -2.4,2.736 -1.692,0 -2.724,-1.38 -2.724,-3.132 0,-1.752 1.068,-2.928 2.856,-2.928 0.924,0 1.56,0.192 1.932,0.36 l -0.18,0.756 c -0.396,-0.168 -0.852,-0.3 -1.608,-0.3 -1.056,0 -1.968,0.588 -1.992,2.016 z m -4.068,0.756 c 0.084,0.732 0.552,1.716 1.62,1.716 1.188,0 1.476,-1.044 1.464,-1.716 z" /></g><g
           style="stroke-width:0.75000002;stroke-miterlimit:4;stroke-dasharray:none"
           transform="translate(184.353,829.8921)"
           id="g90"><path
             id="path92"
             style="fill:none;stroke:#231f20;stroke-width:0.75000002;stroke-linecap:butt;stroke-linejoin:miter;stroke-miterlimit:4;stroke-dasharray:none;stroke-opacity:1"
             d="m 0,0 h 1.044 v 3.096 c 0,0.18 0.024,0.348 0.048,0.492 0.144,0.792 0.672,1.356 1.416,1.356 0.144,0 0.252,-0.012 0.36,-0.036 V 5.904 C 2.772,5.928 2.688,5.94 2.568,5.94 1.86,5.94 1.224,5.448 0.96,4.668 H 0.912 L 0.876,5.808 H -0.048 C -0.012,5.268 0,4.68 0,3.996 Z" /></g><g
           style="stroke-width:0.75000002;stroke-miterlimit:4;stroke-dasharray:none"
           transform="translate(192.8252,832.604)"
           id="g94"><path
             id="path96"
             style="fill:none;stroke:#231f20;stroke-width:0.75000002;stroke-linecap:butt;stroke-linejoin:miter;stroke-miterlimit:4;stroke-dasharray:none;stroke-opacity:1"
             d="m 0,0 c 0.012,0.108 0.036,0.276 0.036,0.492 0,1.068 -0.504,2.736 -2.4,2.736 -1.692,0 -2.724,-1.38 -2.724,-3.132 0,-1.752 1.068,-2.928 2.856,-2.928 0.924,0 1.56,0.192 1.932,0.36 l -0.18,0.756 c -0.396,-0.168 -0.852,-0.3 -1.608,-0.3 -1.056,0 -1.968,0.588 -1.992,2.016 z m -4.068,0.756 c 0.084,0.732 0.552,1.716 1.62,1.716 1.188,0 1.476,-1.044 1.464,-1.716 z" /></g><g
           style="stroke-width:0.75000002;stroke-miterlimit:4;stroke-dasharray:none"
           transform="translate(194.1689,829.8921)"
           id="g98"><path
             id="path100"
             style="fill:none;stroke:#231f20;stroke-width:0.75000002;stroke-linecap:butt;stroke-linejoin:miter;stroke-miterlimit:4;stroke-dasharray:none;stroke-opacity:1"
             d="m 0,0 h 1.056 v 3.492 c 0,0.18 0.024,0.36 0.072,0.492 0.18,0.588 0.72,1.08 1.416,1.08 0.996,0 1.344,-0.78 1.344,-1.716 V 0 H 4.944 V 3.468 C 4.944,5.46 3.696,5.94 2.892,5.94 1.932,5.94 1.26,5.4 0.972,4.848 H 0.948 l -0.06,0.96 H -0.048 C -0.012,5.328 0,4.836 0,4.236 Z" /></g><g
           style="stroke-width:0.75000002;stroke-miterlimit:4;stroke-dasharray:none"
           transform="translate(204.7886,830.8999)"
           id="g102"><path
             id="path104"
             style="fill:none;stroke:#231f20;stroke-width:0.75000002;stroke-linecap:butt;stroke-linejoin:miter;stroke-miterlimit:4;stroke-dasharray:none;stroke-opacity:1"
             d="m 0,0 c -0.3,-0.132 -0.696,-0.288 -1.296,-0.288 -1.152,0 -2.016,0.828 -2.016,2.172 0,1.212 0.72,2.196 2.052,2.196 0.576,0 0.972,-0.132 1.224,-0.276 l 0.24,0.816 c -0.288,0.144 -0.84,0.3 -1.464,0.3 -1.896,0 -3.12,-1.296 -3.12,-3.084 0,-1.776 1.14,-2.964 2.892,-2.964 0.78,0 1.392,0.192 1.668,0.336 z" /></g><g
           style="stroke-width:0.75000002;stroke-miterlimit:4;stroke-dasharray:none"
           transform="translate(210.8003,832.604)"
           id="g106"><path
             id="path108"
             style="fill:none;stroke:#231f20;stroke-width:0.75000002;stroke-linecap:butt;stroke-linejoin:miter;stroke-miterlimit:4;stroke-dasharray:none;stroke-opacity:1"
             d="m 0,0 c 0.012,0.108 0.036,0.276 0.036,0.492 0,1.068 -0.504,2.736 -2.4,2.736 -1.692,0 -2.724,-1.38 -2.724,-3.132 0,-1.752 1.068,-2.928 2.856,-2.928 0.924,0 1.56,0.192 1.932,0.36 l -0.18,0.756 c -0.396,-0.168 -0.852,-0.3 -1.608,-0.3 -1.056,0 -1.968,0.588 -1.992,2.016 z m -4.068,0.756 c 0.084,0.732 0.552,1.716 1.62,1.716 1.188,0 1.476,-1.044 1.464,-1.716 z" /></g><g
           style="stroke-width:0.75000002;stroke-miterlimit:4;stroke-dasharray:none"
           transform="translate(118.6289,895.7764)"
           id="g110"><path
             id="path112"
             style="fill:none;stroke:#7c797a;stroke-width:0.75000002;stroke-linecap:butt;stroke-linejoin:miter;stroke-miterlimit:4;stroke-dasharray:none;stroke-opacity:1"
             d="m 0,0 v 8.503 h 4.371 v 3.314 H 0 V 31.225 H -4.564 L -18.495,11.289 V 8.503 h 14.508 l 0,-8.503 z m -14.22,11.817 v 0.097 l 7.638,10.616 c 0.865,1.442 1.634,2.786 2.595,4.612 h 0.144 c -0.096,-1.633 -0.144,-3.267 -0.144,-4.9 V 11.817 Z" /></g><g
           style="stroke-width:0.75000002;stroke-miterlimit:4;stroke-dasharray:none"
           transform="translate(132.1748,895.7764)"
           id="g114"><path
             id="path116"
             style="fill:none;stroke:#7c797a;stroke-width:0.75000002;stroke-linecap:butt;stroke-linejoin:miter;stroke-miterlimit:4;stroke-dasharray:none;stroke-opacity:1"
             d="m 0,0 v 20.032 h 5.621 v 3.219 H 0 V 24.5 c 0,3.555 0.913,6.725 4.516,6.725 1.201,0 2.065,-0.24 2.69,-0.528 l 0.576,3.266 C 6.966,34.3 5.668,34.636 4.179,34.636 2.21,34.636 0.096,34.012 -1.489,32.474 -3.459,30.601 -4.18,27.623 -4.18,24.356 V 23.251 H -7.446 V 20.032 H -4.18 V 0 Z" /></g><g
           style="stroke-width:0.75000002;stroke-miterlimit:4;stroke-dasharray:none"
           transform="translate(443.4793,885.842)"
           id="g118"><path
             id="path120"
             style="fill:none;stroke:#374ea1;stroke-width:0.75000002;stroke-linecap:round;stroke-linejoin:round;stroke-miterlimit:4;stroke-dasharray:none;stroke-opacity:1"
             d="m 0,0 c 5.321,0 9.637,-4.315 9.637,-9.639 0,-5.321 -4.316,-9.636 -9.637,-9.636 -5.323,0 -9.638,4.315 -9.638,9.636 C -9.638,-4.315 -5.323,0 0,0 Z" /></g><g
           style="stroke-width:0.75000002;stroke-miterlimit:4;stroke-dasharray:none"
           transform="translate(443.4865,151.5667)"
           id="g122"><path
             id="path124"
             style="fill:none;stroke:#374ea1;stroke-width:0.75000002;stroke-linecap:round;stroke-linejoin:round;stroke-miterlimit:4;stroke-dasharray:none;stroke-opacity:1"
             d="m 0,0 c 5.321,0 9.637,4.318 9.637,9.64 0,5.322 -4.316,9.635 -9.637,9.635 -5.323,0 -9.638,-4.313 -9.638,-9.635 C -9.638,4.318 -5.323,0 0,0 Z" /></g><g
           style="stroke-width:0.75000002;stroke-miterlimit:4;stroke-dasharray:none"
           transform="translate(212.4391,759.3621)"
           id="g126"><path
             id="path128"
             style="fill:none;stroke:#374ea1;stroke-width:0.75000002;stroke-linecap:round;stroke-linejoin:round;stroke-miterlimit:4;stroke-dasharray:none;stroke-opacity:1"
             d="m 0,0 c 0,-3.351 -2.719,-6.068 -6.068,-6.068 -3.35,0 -6.067,2.717 -6.067,6.068 0,3.351 2.717,6.067 6.067,6.067 C -2.719,6.067 0,3.351 0,0 Z" /></g><g
           style="stroke-width:0.75000002;stroke-miterlimit:4;stroke-dasharray:none"
           transform="translate(228.452,274.0219)"
           id="g130"><path
             id="path132"
             style="fill:none;stroke:#374ea1;stroke-width:0.75000002;stroke-linecap:round;stroke-linejoin:round;stroke-miterlimit:4;stroke-dasharray:none;stroke-opacity:1"
             d="m 0,0 c 0,-3.35 -2.719,-6.065 -6.068,-6.065 -3.35,0 -6.067,2.715 -6.067,6.065 0,3.353 2.717,6.067 6.067,6.067 C -2.719,6.067 0,3.353 0,0 Z" /></g><g
           style="stroke-width:0.75000002;stroke-miterlimit:4;stroke-dasharray:none"
           transform="translate(834.5339,759.3621)"
           id="g134"><path
             id="path136"
             style="fill:none;stroke:#374ea1;stroke-width:0.75000002;stroke-linecap:round;stroke-linejoin:round;stroke-miterlimit:4;stroke-dasharray:none;stroke-opacity:1"
             d="m 0,0 c 0,-3.351 -2.718,-6.067 -6.067,-6.067 -3.35,0 -6.068,2.716 -6.068,6.067 0,3.351 2.718,6.066 6.068,6.066 C -2.718,6.066 0,3.351 0,0 Z" /></g><g
           style="stroke-width:0.75000002;stroke-miterlimit:4;stroke-dasharray:none"
           transform="translate(373.9405,873.3449)"
           id="g138"><path
             id="path140"
             style="fill:none;stroke:#374ea1;stroke-width:0.75000002;stroke-linecap:round;stroke-linejoin:round;stroke-miterlimit:4;stroke-dasharray:none;stroke-opacity:1"
             d="m 0,0 c 0,-3.35 -2.719,-6.067 -6.068,-6.067 -3.35,0 -6.067,2.717 -6.067,6.067 0,3.351 2.717,6.067 6.067,6.067 C -2.719,6.067 0,3.351 0,0 Z" /></g><g
           style="stroke-width:0.75000002;stroke-miterlimit:4;stroke-dasharray:none"
           transform="translate(671.3022,870.3424)"
           id="g142"><path
             id="path144"
             style="fill:none;stroke:#374ea1;stroke-width:0.75000002;stroke-linecap:round;stroke-linejoin:round;stroke-miterlimit:4;stroke-dasharray:none;stroke-opacity:1"
             d="m 0,0 c 0,-3.285 -2.665,-5.948 -5.949,-5.948 -3.283,0 -5.948,2.663 -5.948,5.948 0,3.285 2.665,5.948 5.948,5.948 C -2.665,5.948 0,3.285 0,0 Z" /></g><g
           style="stroke-width:0.75000002;stroke-miterlimit:4;stroke-dasharray:none"
           transform="translate(375.0393,148.5502)"
           id="g146"><path
             id="path148"
             style="fill:none;stroke:#374ea1;stroke-width:0.75000002;stroke-linecap:round;stroke-linejoin:round;stroke-miterlimit:4;stroke-dasharray:none;stroke-opacity:1"
             d="m 0,0 c 0,-3.351 -2.719,-6.067 -6.068,-6.067 -3.349,0 -6.067,2.716 -6.067,6.067 0,3.351 2.718,6.065 6.067,6.065 C -2.719,6.065 0,3.351 0,0 Z" /></g><g
           style="stroke-width:0.75000002;stroke-miterlimit:4;stroke-dasharray:none"
           transform="translate(673.4535,148.6455)"
           id="g150"><path
             id="path152"
             style="fill:none;stroke:#374ea1;stroke-width:0.75000002;stroke-linecap:round;stroke-linejoin:round;stroke-miterlimit:4;stroke-dasharray:none;stroke-opacity:1"
             d="m 0,0 c 0,-3.351 -2.718,-6.067 -6.067,-6.067 -3.35,0 -6.068,2.716 -6.068,6.067 0,3.35 2.718,6.065 6.068,6.065 C -2.718,6.065 0,3.35 0,0 Z" /></g><g
           style="stroke-width:0.75000002;stroke-miterlimit:4;stroke-dasharray:none"
           transform="translate(815.5187,272.0203)"
           id="g154"><path
             id="path156"
             style="fill:none;stroke:#374ea1;stroke-width:0.75000002;stroke-linecap:round;stroke-linejoin:round;stroke-miterlimit:4;stroke-dasharray:none;stroke-opacity:1"
             d="m 0,0 c 0,-3.35 -2.718,-6.065 -6.067,-6.065 -3.35,0 -6.068,2.715 -6.068,6.065 0,3.352 2.718,6.067 6.068,6.067 C -2.718,6.067 0,3.352 0,0 Z" /></g><path
           id="path158"
           style="fill:none;stroke:#374ea1;stroke-width:0.75000002;stroke-linecap:round;stroke-linejoin:round;stroke-miterlimit:4;stroke-dasharray:none;stroke-opacity:1"
           d="m 949.896,82.035 h -864 v 864 h 864 z" /><path
           id="path160"
           style="fill:none;stroke:#374ea1;stroke-width:0.75000002;stroke-linecap:round;stroke-linejoin:round;stroke-miterlimit:4;stroke-dasharray:none;stroke-opacity:1"
           d="m 636.212,847.724 h -90.666 v 5.669 h 90.666 z" /><g
           style="stroke-width:0.75000002;stroke-miterlimit:4;stroke-dasharray:none"
           transform="translate(523.3772,767.1802)"
           id="g162"><path
             id="path164"
             style="fill:none;stroke:#374ea1;stroke-width:0.75000002;stroke-linecap:round;stroke-linejoin:round;stroke-miterlimit:4;stroke-dasharray:none;stroke-opacity:1"
             d="m 0,0 c 0,-3.35 -2.719,-6.067 -6.068,-6.067 -3.349,0 -6.067,2.717 -6.067,6.067 0,3.351 2.718,6.067 6.067,6.067 C -2.719,6.067 0,3.351 0,0 Z" /></g><g
           style="stroke-width:0.75000002;stroke-miterlimit:4;stroke-dasharray:none"
           transform="translate(862.8723,611.2961)"
           id="g166"><path
             id="path168"
             style="fill:none;stroke:#374ea1;stroke-width:0.75000002;stroke-linecap:round;stroke-linejoin:round;stroke-miterlimit:4;stroke-dasharray:none;stroke-opacity:1"
             d="m 0,0 c 0,-3.35 -2.719,-6.067 -6.068,-6.067 -3.35,0 -6.067,2.717 -6.067,6.067 0,3.351 2.717,6.067 6.067,6.067 C -2.719,6.067 0,3.351 0,0 Z" /></g><g
           style="stroke-width:0.75000002;stroke-miterlimit:4;stroke-dasharray:none"
           transform="translate(860.3316,412.0237)"
           id="g170"><path
             id="path172"
             style="fill:none;stroke:#374ea1;stroke-width:0.75000002;stroke-linecap:round;stroke-linejoin:round;stroke-miterlimit:4;stroke-dasharray:none;stroke-opacity:1"
             d="m 0,0 c 0,-3.35 -2.719,-6.067 -6.068,-6.067 -3.35,0 -6.067,2.717 -6.067,6.067 0,3.351 2.717,6.067 6.067,6.067 C -2.719,6.067 0,3.351 0,0 Z" /></g><g
           style="stroke-width:0.75000002;stroke-miterlimit:4;stroke-dasharray:none"
           transform="translate(184.1165,608.0618)"
           id="g174"><path
             id="path176"
             style="fill:none;stroke:#374ea1;stroke-width:0.75000002;stroke-linecap:round;stroke-linejoin:round;stroke-miterlimit:4;stroke-dasharray:none;stroke-opacity:1"
             d="m 0,0 c 0,-3.35 -2.719,-6.067 -6.068,-6.067 -3.35,0 -6.067,2.717 -6.067,6.067 0,3.351 2.717,6.067 6.067,6.067 C -2.719,6.067 0,3.351 0,0 Z" /></g><g
           style="stroke-width:0.75000002;stroke-miterlimit:4;stroke-dasharray:none"
           transform="translate(184.1842,415.5671)"
           id="g178"><path
             id="path180"
             style="fill:none;stroke:#374ea1;stroke-width:0.75000002;stroke-linecap:round;stroke-linejoin:round;stroke-miterlimit:4;stroke-dasharray:none;stroke-opacity:1"
             d="m 0,0 c 0,-3.35 -2.719,-6.067 -6.068,-6.067 -3.35,0 -6.067,2.717 -6.067,6.067 0,3.351 2.717,6.067 6.067,6.067 C -2.719,6.067 0,3.351 0,0 Z" /></g><g
           style="stroke-width:0.75000002;stroke-miterlimit:4;stroke-dasharray:none"
           transform="translate(523.5193,260.4902)"
           id="g182"><path
             id="path184"
             style="fill:none;stroke:#374ea1;stroke-width:0.75000002;stroke-linecap:round;stroke-linejoin:round;stroke-miterlimit:4;stroke-dasharray:none;stroke-opacity:1"
             d="m 0,0 c 0,-3.35 -2.719,-6.067 -6.068,-6.067 -3.349,0 -6.067,2.717 -6.067,6.067 0,3.351 2.718,6.067 6.067,6.067 C -2.719,6.067 0,3.351 0,0 Z" /></g><path
           id="path186"
           style="fill:none;stroke:#374ea1;stroke-width:0.75000002;stroke-linecap:round;stroke-linejoin:round;stroke-miterlimit:4;stroke-dasharray:none;stroke-opacity:1"
           d="m 784.918,847.724 h -90.833 v 5.669 h 90.833 z" /><path
           id="path188"
           style="fill:none;stroke:#374ea1;stroke-width:0.75000002;stroke-linecap:round;stroke-linejoin:round;stroke-miterlimit:4;stroke-dasharray:none;stroke-opacity:1"
           d="m 488.561,847.724 h -90.867 v 5.669 h 90.867 z" /><path
           id="path190"
           style="fill:none;stroke:#374ea1;stroke-width:0.75000002;stroke-linecap:round;stroke-linejoin:round;stroke-miterlimit:4;stroke-dasharray:none;stroke-opacity:1"
           d="m 340.776,847.724 h -90.478 v 5.669 h 90.478 z" /><g
           style="stroke-width:0.75000002;stroke-miterlimit:4;stroke-dasharray:none"
           transform="translate(295.4294,151.5667)"
           id="g192"><path
             id="path194"
             style="fill:none;stroke:#374ea1;stroke-width:0.75000002;stroke-linecap:round;stroke-linejoin:round;stroke-miterlimit:4;stroke-dasharray:none;stroke-opacity:1"
             d="m 0,0 c 5.321,0 9.637,4.318 9.637,9.64 0,5.322 -4.316,9.635 -9.637,9.635 -5.323,0 -9.638,-4.313 -9.638,-9.635 C -9.638,4.318 -5.323,0 0,0 Z" /></g><g
           style="stroke-width:0.75000002;stroke-miterlimit:4;stroke-dasharray:none"
           transform="translate(739.5835,151.5667)"
           id="g196"><path
             id="path198"
             style="fill:none;stroke:#374ea1;stroke-width:0.75000002;stroke-linecap:round;stroke-linejoin:round;stroke-miterlimit:4;stroke-dasharray:none;stroke-opacity:1"
             d="m 0,0 c 5.321,0 9.637,4.318 9.637,9.64 0,5.322 -4.316,9.635 -9.637,9.635 -5.323,0 -9.638,-4.313 -9.638,-9.635 C -9.638,4.318 -5.323,0 0,0 Z" /></g><g
           style="stroke-width:0.75000002;stroke-miterlimit:4;stroke-dasharray:none"
           transform="translate(591.4118,151.5667)"
           id="g200"><path
             id="path202"
             style="fill:none;stroke:#374ea1;stroke-width:0.75000002;stroke-linecap:round;stroke-linejoin:round;stroke-miterlimit:4;stroke-dasharray:none;stroke-opacity:1"
             d="m 0,0 c 5.321,0 9.637,4.318 9.637,9.64 0,5.322 -4.316,9.635 -9.637,9.635 -5.323,0 -9.638,-4.313 -9.638,-9.635 C -9.638,4.318 -5.323,0 0,0 Z" /></g><g
           style="stroke-width:0.75000002;stroke-miterlimit:4;stroke-dasharray:none"
           transform="translate(591.4118,885.842)"
           id="g204"><path
             id="path206"
             style="fill:none;stroke:#374ea1;stroke-width:0.75000002;stroke-linecap:round;stroke-linejoin:round;stroke-miterlimit:4;stroke-dasharray:none;stroke-opacity:1"
             d="m 0,0 c 5.321,0 9.637,-4.315 9.637,-9.639 0,-5.321 -4.316,-9.636 -9.637,-9.636 -5.323,0 -9.638,4.315 -9.638,9.636 C -9.638,-4.315 -5.323,0 0,0 Z" /></g><g
           style="stroke-width:0.75000002;stroke-miterlimit:4;stroke-dasharray:none"
           transform="translate(739.4542,885.842)"
           id="g208"><path
             id="path210"
             style="fill:none;stroke:#374ea1;stroke-width:0.75000002;stroke-linecap:round;stroke-linejoin:round;stroke-miterlimit:4;stroke-dasharray:none;stroke-opacity:1"
             d="m 0,0 c 5.321,0 9.637,-4.315 9.637,-9.639 0,-5.321 -4.316,-9.636 -9.637,-9.636 -5.323,0 -9.638,4.315 -9.638,9.636 C -9.638,-4.315 -5.323,0 0,0 Z" /></g><g
           style="stroke-width:0.75000002;stroke-miterlimit:4;stroke-dasharray:none"
           transform="translate(295.4294,885.842)"
           id="g212"><path
             id="path214"
             style="fill:none;stroke:#374ea1;stroke-width:0.75000002;stroke-linecap:round;stroke-linejoin:round;stroke-miterlimit:4;stroke-dasharray:none;stroke-opacity:1"
             d="m 0,0 c 5.321,0 9.637,-4.315 9.637,-9.639 0,-5.321 -4.316,-9.636 -9.637,-9.636 -5.323,0 -9.638,4.315 -9.638,9.636 C -9.638,-4.315 -5.323,0 0,0 Z" /></g><g
           style="stroke-width:0.75000002;stroke-miterlimit:4;stroke-dasharray:none"
           transform="translate(224.0959,514.3004)"
           id="g216"><path
             id="path218"
             style="fill:none;stroke:#374ea1;stroke-width:0.75000002;stroke-linecap:round;stroke-linejoin:round;stroke-miterlimit:4;stroke-dasharray:none;stroke-opacity:1"
             d="m 0,0 c 0,-4.282 -3.475,-7.755 -7.756,-7.755 -4.281,0 -7.754,3.473 -7.754,7.755 0,4.283 3.473,7.755 7.754,7.755 C -3.475,7.755 0,4.283 0,0 Z" /></g><g
           style="stroke-width:0.75000002;stroke-miterlimit:4;stroke-dasharray:none"
           transform="translate(525.6512,514.0348)"
           id="g220"><path
             id="path222"
             style="fill:none;stroke:#374ea1;stroke-width:0.75000002;stroke-linecap:round;stroke-linejoin:round;stroke-miterlimit:4;stroke-dasharray:none;stroke-opacity:1"
             d="m 0,0 c 0,-4.282 -3.475,-7.755 -7.756,-7.755 -4.281,0 -7.754,3.473 -7.754,7.755 0,4.283 3.473,7.755 7.754,7.755 C -3.475,7.755 0,4.283 0,0 Z" /></g><g
           style="stroke-width:0.75000002;stroke-miterlimit:4;stroke-dasharray:none"
           transform="translate(525.6597,309.9928)"
           id="g224"><path
             id="path226"
             style="fill:none;stroke:#374ea1;stroke-width:0.75000002;stroke-linecap:round;stroke-linejoin:round;stroke-miterlimit:4;stroke-dasharray:none;stroke-opacity:1"
             d="m 0,0 c 0,-4.282 -3.475,-7.755 -7.756,-7.755 -4.281,0 -7.754,3.473 -7.754,7.755 0,4.283 3.473,7.755 7.754,7.755 C -3.475,7.755 0,4.283 0,0 Z" /></g><g
           style="stroke-width:0.75000002;stroke-miterlimit:4;stroke-dasharray:none"
           transform="translate(525.6597,714.9628)"
           id="g228"><path
             id="path230"
             style="fill:none;stroke:#374ea1;stroke-width:0.75000002;stroke-linecap:round;stroke-linejoin:round;stroke-miterlimit:4;stroke-dasharray:none;stroke-opacity:1"
             d="m 0,0 c 0,-4.282 -3.475,-7.755 -7.756,-7.755 -4.281,0 -7.754,3.473 -7.754,7.755 0,4.283 3.473,7.755 7.754,7.755 C -3.475,7.755 0,4.283 0,0 Z" /></g><g
           style="stroke-width:0.75000002;stroke-miterlimit:4;stroke-dasharray:none"
           transform="translate(673.1339,514.4407)"
           id="g232"><path
             id="path234"
             style="fill:none;stroke:#374ea1;stroke-width:0.75000002;stroke-linecap:round;stroke-linejoin:round;stroke-miterlimit:4;stroke-dasharray:none;stroke-opacity:1"
             d="m 0,0 c 0,-4.282 -3.475,-7.755 -7.756,-7.755 -4.281,0 -7.754,3.473 -7.754,7.755 0,4.282 3.473,7.755 7.754,7.755 C -3.475,7.755 0,4.282 0,0 Z" /></g><g
           style="stroke-width:0.75000002;stroke-miterlimit:4;stroke-dasharray:none"
           transform="translate(828.5663,514.4407)"
           id="g236"><path
             id="path238"
             style="fill:none;stroke:#374ea1;stroke-width:0.75000002;stroke-linecap:round;stroke-linejoin:round;stroke-miterlimit:4;stroke-dasharray:none;stroke-opacity:1"
             d="m 0,0 c 0,-4.282 -3.475,-7.755 -7.756,-7.755 -4.281,0 -7.754,3.473 -7.754,7.755 0,4.282 3.473,7.755 7.754,7.755 C -3.475,7.755 0,4.282 0,0 Z" /></g><g
           style="stroke-width:0.75000002;stroke-miterlimit:4;stroke-dasharray:none"
           transform="translate(224.0959,514.3004)"
           id="g240"><path
             id="path242"
             style="fill:none;stroke:#374ea1;stroke-width:0.75000002;stroke-linecap:round;stroke-linejoin:round;stroke-miterlimit:4;stroke-dasharray:none;stroke-opacity:1"
             d="m 0,0 c 0,-4.282 -3.475,-7.755 -7.756,-7.755 -4.281,0 -7.754,3.473 -7.754,7.755 0,4.283 3.473,7.755 7.754,7.755 C -3.475,7.755 0,4.283 0,0 Z" /></g><g
           style="stroke-width:0.75000002;stroke-miterlimit:4;stroke-dasharray:none"
           transform="translate(227.2182,712.7862)"
           id="g244"><path
             id="path246"
             style="fill:none;stroke:#374ea1;stroke-width:0.75000002;stroke-linecap:round;stroke-linejoin:round;stroke-miterlimit:4;stroke-dasharray:none;stroke-opacity:1"
             d="m 0,0 c 0,-4.282 -3.475,-7.755 -7.756,-7.755 -4.281,0 -7.754,3.473 -7.754,7.755 0,4.283 3.473,7.755 7.754,7.755 C -3.475,7.755 0,4.283 0,0 Z" /></g><g
           style="stroke-width:0.75000002;stroke-miterlimit:4;stroke-dasharray:none"
           transform="translate(227.2182,313.1758)"
           id="g248"><path
             id="path250"
             style="fill:none;stroke:#374ea1;stroke-width:0.75000002;stroke-linecap:round;stroke-linejoin:round;stroke-miterlimit:4;stroke-dasharray:none;stroke-opacity:1"
             d="m 0,0 c 0,-4.282 -3.475,-7.755 -7.756,-7.755 -4.281,0 -7.754,3.473 -7.754,7.755 0,4.283 3.473,7.755 7.754,7.755 C -3.475,7.755 0,4.283 0,0 Z" /></g><g
           style="stroke-width:0.75000002;stroke-miterlimit:4;stroke-dasharray:none"
           transform="translate(823.082,313.1758)"
           id="g252"><path
             id="path254"
             style="fill:none;stroke:#374ea1;stroke-width:0.75000002;stroke-linecap:round;stroke-linejoin:round;stroke-miterlimit:4;stroke-dasharray:none;stroke-opacity:1"
             d="m 0,0 c 0,-4.282 -3.475,-7.755 -7.756,-7.755 -4.281,0 -7.754,3.473 -7.754,7.755 0,4.283 3.473,7.755 7.754,7.755 C -3.475,7.755 0,4.283 0,0 Z" /></g><g
           style="stroke-width:0.75000002;stroke-miterlimit:4;stroke-dasharray:none"
           transform="translate(820.8114,712.7862)"
           id="g256"><path
             id="path258"
             style="fill:none;stroke:#374ea1;stroke-width:0.75000002;stroke-linecap:round;stroke-linejoin:round;stroke-miterlimit:4;stroke-dasharray:none;stroke-opacity:1"
             d="m 0,0 c 0,-4.282 -3.475,-7.755 -7.756,-7.755 -4.281,0 -7.754,3.473 -7.754,7.755 0,4.283 3.473,7.755 7.754,7.755 C -3.475,7.755 0,4.283 0,0 Z" /></g><g
           style="stroke-width:0.75000002;stroke-miterlimit:4;stroke-dasharray:none"
           transform="translate(377.0888,514.4569)"
           id="g260"><path
             id="path262"
             style="fill:none;stroke:#374ea1;stroke-width:0.75000002;stroke-linecap:round;stroke-linejoin:round;stroke-miterlimit:4;stroke-dasharray:none;stroke-opacity:1"
             d="m 0,0 c 0,-4.282 -3.475,-7.755 -7.756,-7.755 -4.281,0 -7.754,3.473 -7.754,7.755 0,4.283 3.473,7.755 7.754,7.755 C -3.475,7.755 0,4.283 0,0 Z" /></g></g></g></g></svg>