<?xml version="1.0" encoding="UTF-8" standalone="no"?>
<svg
   xmlns:dc="http://purl.org/dc/elements/1.1/"
   xmlns:cc="http://creativecommons.org/ns#"
   xmlns:rdf="http://www.w3.org/1999/02/22-rdf-syntax-ns#"
   xmlns:svg="http://www.w3.org/2000/svg"
   xmlns="http://www.w3.org/2000/svg"
   viewBox="0 0 1344 1344"
   height="1344"
   width="1344"
   xml:space="preserve"
   id="svg2"
   version="1.1"><metadata
     id="metadata8"><rdf:RDF><cc:Work
         rdf:about=""><dc:format>image/svg+xml</dc:format><dc:type
           rdf:resource="http://purl.org/dc/dcmitype/StillImage" /><dc:title></dc:title></cc:Work></rdf:RDF></metadata><defs
     id="defs6"><clipPath
       id="clipPath30"
       clipPathUnits="userSpaceOnUse"><path
         id="path28"
         d="M 0,1008 H 1008 V 0 H 0 Z" /></clipPath><clipPath
       id="clipPath54"
       clipPathUnits="userSpaceOnUse"><path
         id="path52"
         d="M 0,1008 H 1008 V 0 H 0 Z" /></clipPath></defs><g
     transform="matrix(1.3333333,0,0,-1.3333333,0,1344)"
     id="g10"><text
       id="text14"
       style="font-variant:normal;font-weight:normal;font-stretch:normal;font-size:12px;font-family:'Myriad Pro';-inkscape-font-specification:MyriadPro-Regular;writing-mode:lr-tb;fill:#000000;fill-opacity:1;fill-rule:nonzero;stroke:none"
       transform="matrix(1,0,0,-1,93.4736,52.873)"><tspan
         id="tspan12"
         y="0"
         x="0 6.816 13.428 17.4 22.488001 25.992001 29.797199 36.385201 46.3932 48.937199 55.765202 58.597198 64.381203 69.757202 75.385201 77.929199 84.085197 88.201202 94.357201 100.5132 103.7292 106.2732 113.0412 119.0532 121.8852 125.8572 128.66521 135.3252 137.8092 140.3532 148.1172 154.94521 161.77319 167.7852 171.6492 175.33321 178.16521 184.1772 187.8132 191.7852 194.32919 197.16119 203.1732 207.1452 211.0452 217.05721 220.9812 225.7332 228.27721 238.2852 244.8972 249.6492 253.6212 256.16519 260.91721 263.72519 273.73318 280.56119 283.39319 289.0452 291.5892 298.41721 304.4292 306.97321 312.74521 315.55319 320.30521 323.11319 329.94119 332.77319 338.78519 341.32919 347.11319 353.77319 360.5412 363.08521 369.67319 376.33319 379.16519 384.8172 387.36121 393.94919 400.56119 404.5332 407.3652 410.17319 416.83319 422.84521 429.49319 431.9772 434.52121 441.34921 444.18121 450.19321 455.9772 460.72919 466.74121 469.28519 474.66119 481.3212 487.90921 494.49719 499.24921 505.2612 507.80521 514.57318 520.58521 527.41321 531.38519 538.04523">Cut from black 1/32” delrin. Upper-left letters must simply be visible and only outlined, please choose depth.</tspan></text>
<path
       id="path16"
       style="fill:none;stroke:#231f20;stroke-width:1;stroke-linecap:butt;stroke-linejoin:miter;stroke-miterlimit:4;stroke-dasharray:none;stroke-opacity:1"
       d="m 223.888,799.788 h -72 v 72 h 72 z" /><text
       id="text22"
       style="font-variant:normal;font-weight:normal;font-stretch:normal;font-size:12px;font-family:'Myriad Pro';-inkscape-font-specification:MyriadPro-Regular;writing-mode:lr-tb;fill:#000000;fill-opacity:1;fill-rule:nonzero;stroke:none"
       transform="matrix(1,0,0,-1,161.0986,850.918)"><tspan
         id="tspan18"
         y="0"
         x="0 6.1560001 9.3719997 11.916 16.667999 23.424 30.035999 35.82 39.624001 45.636002">1” square </tspan><tspan
         id="tspan20"
         y="14.4"
         x="0 3.8039999 9.816 13.164 19.176001 22.981199 28.9932 35.653198 40.957199">reference</tspan></text>
<g
       id="g24"><g
         clip-path="url(#clipPath30)"
         id="g26"><g
           transform="translate(133.2646,887.373)"
           id="g32"><path
             id="path34"
             style="fill:none;stroke:#7c797a;stroke-width:1;stroke-linecap:butt;stroke-linejoin:miter;stroke-miterlimit:4;stroke-dasharray:none;stroke-opacity:1"
             d="m 0,0 v 8.503 h 4.371 v 3.314 H 0 V 31.225 H -4.564 L -18.495,11.289 V 8.503 h 14.508 l 0,-8.503 z m -14.22,11.817 v 0.097 l 7.638,10.616 c 0.865,1.442 1.634,2.786 2.595,4.612 h 0.144 c -0.096,-1.633 -0.144,-3.267 -0.144,-4.9 V 11.817 Z" /></g><g
           transform="translate(146.8105,887.373)"
           id="g36"><path
             id="path38"
             style="fill:none;stroke:#7c797a;stroke-width:1;stroke-linecap:butt;stroke-linejoin:miter;stroke-miterlimit:4;stroke-dasharray:none;stroke-opacity:1"
             d="m 0,0 v 20.032 h 5.621 v 3.219 H 0 V 24.5 c 0,3.555 0.913,6.725 4.516,6.725 1.201,0 2.065,-0.24 2.69,-0.528 l 0.576,3.266 C 6.966,34.3 5.668,34.636 4.179,34.636 2.21,34.636 0.096,34.012 -1.489,32.474 -3.459,30.601 -4.18,27.623 -4.18,24.356 V 23.251 H -7.446 V 20.032 H -4.18 V 0 Z" /></g></g></g><path
       id="path40"
       style="fill:none;stroke:#4654a4;stroke-width:0.75000002;stroke-linecap:butt;stroke-linejoin:miter;stroke-miterlimit:4;stroke-dasharray:none;stroke-opacity:1"
       d="M 368.569,310.318 H 255.64 v 377.389 h 112.929 z" /><path
       id="path42"
       style="fill:none;stroke:#4654a4;stroke-width:0.75000002;stroke-linecap:butt;stroke-linejoin:miter;stroke-miterlimit:4;stroke-dasharray:none;stroke-opacity:1"
       d="M 516.622,310.827 H 403.703 v 376.88 h 112.919 z" /><path
       id="path44"
       style="fill:none;stroke:#4654a4;stroke-width:0.75000002;stroke-linecap:butt;stroke-linejoin:miter;stroke-miterlimit:4;stroke-dasharray:none;stroke-opacity:1"
       d="M 664.638,311.018 H 551.785 v 376.689 h 112.853 z" /><path
       id="path46"
       style="fill:none;stroke:#4654a4;stroke-width:0.75000002;stroke-linecap:butt;stroke-linejoin:miter;stroke-miterlimit:4;stroke-dasharray:none;stroke-opacity:1"
       d="M 812.65,310.769 H 699.874 V 687.707 H 812.65 Z" /><g
       style="stroke-width:0.75000002;stroke-miterlimit:4;stroke-dasharray:none"
       id="g48"><g
         style="stroke-width:0.75000002;stroke-miterlimit:4;stroke-dasharray:none"
         clip-path="url(#clipPath54)"
         id="g50"><g
           style="stroke-width:0.75000002;stroke-miterlimit:4;stroke-dasharray:none"
           transform="translate(229.1147,749.7495)"
           id="g56"><path
             id="path58"
             style="fill:none;stroke:#4654a4;stroke-width:0.75000002;stroke-linecap:butt;stroke-linejoin:miter;stroke-miterlimit:4;stroke-dasharray:none;stroke-opacity:1"
             d="m 0,0 c 0,-3.351 -2.719,-6.068 -6.068,-6.068 -3.35,0 -6.067,2.717 -6.067,6.068 0,3.351 2.717,6.067 6.067,6.067 C -2.719,6.067 0,3.351 0,0 Z" /></g><g
           style="stroke-width:0.75000002;stroke-miterlimit:4;stroke-dasharray:none"
           transform="translate(245.1275,264.4092)"
           id="g60"><path
             id="path62"
             style="fill:none;stroke:#4654a4;stroke-width:0.75000002;stroke-linecap:butt;stroke-linejoin:miter;stroke-miterlimit:4;stroke-dasharray:none;stroke-opacity:1"
             d="m 0,0 c 0,-3.351 -2.719,-6.065 -6.068,-6.065 -3.35,0 -6.067,2.714 -6.067,6.065 0,3.352 2.717,6.067 6.067,6.067 C -2.719,6.067 0,3.352 0,0 Z" /></g><g
           style="stroke-width:0.75000002;stroke-miterlimit:4;stroke-dasharray:none"
           transform="translate(851.2095,749.7495)"
           id="g64"><path
             id="path66"
             style="fill:none;stroke:#4654a4;stroke-width:0.75000002;stroke-linecap:butt;stroke-linejoin:miter;stroke-miterlimit:4;stroke-dasharray:none;stroke-opacity:1"
             d="m 0,0 c 0,-3.351 -2.718,-6.067 -6.067,-6.067 -3.351,0 -6.068,2.716 -6.068,6.067 0,3.351 2.717,6.066 6.068,6.066 C -2.718,6.066 0,3.351 0,0 Z" /></g><g
           style="stroke-width:0.75000002;stroke-miterlimit:4;stroke-dasharray:none"
           transform="translate(390.6165,863.7325)"
           id="g68"><path
             id="path70"
             style="fill:none;stroke:#4654a4;stroke-width:0.75000002;stroke-linecap:butt;stroke-linejoin:miter;stroke-miterlimit:4;stroke-dasharray:none;stroke-opacity:1"
             d="m 0,0 c 0,-3.351 -2.719,-6.067 -6.068,-6.067 -3.349,0 -6.067,2.716 -6.067,6.067 0,3.35 2.718,6.067 6.067,6.067 C -2.719,6.067 0,3.35 0,0 Z" /></g><g
           style="stroke-width:0.75000002;stroke-miterlimit:4;stroke-dasharray:none"
           transform="translate(687.9773,860.7299)"
           id="g72"><path
             id="path74"
             style="fill:none;stroke:#4654a4;stroke-width:0.75000002;stroke-linecap:butt;stroke-linejoin:miter;stroke-miterlimit:4;stroke-dasharray:none;stroke-opacity:1"
             d="m 0,0 c 0,-3.285 -2.664,-5.949 -5.947,-5.949 -3.285,0 -5.949,2.664 -5.949,5.949 0,3.286 2.664,5.948 5.949,5.948 C -2.664,5.948 0,3.286 0,0 Z" /></g><g
           style="stroke-width:0.75000002;stroke-miterlimit:4;stroke-dasharray:none"
           transform="translate(391.7149,138.9375)"
           id="g76"><path
             id="path78"
             style="fill:none;stroke:#4654a4;stroke-width:0.75000002;stroke-linecap:butt;stroke-linejoin:miter;stroke-miterlimit:4;stroke-dasharray:none;stroke-opacity:1"
             d="m 0,0 c 0,-3.351 -2.719,-6.067 -6.068,-6.067 -3.349,0 -6.067,2.716 -6.067,6.067 0,3.35 2.718,6.065 6.067,6.065 C -2.719,6.065 0,3.35 0,0 Z" /></g><g
           style="stroke-width:0.75000002;stroke-miterlimit:4;stroke-dasharray:none"
           transform="translate(690.1296,139.0329)"
           id="g80"><path
             id="path82"
             style="fill:none;stroke:#4654a4;stroke-width:0.75000002;stroke-linecap:butt;stroke-linejoin:miter;stroke-miterlimit:4;stroke-dasharray:none;stroke-opacity:1"
             d="m 0,0 c 0,-3.351 -2.719,-6.067 -6.068,-6.067 -3.351,0 -6.068,2.716 -6.068,6.067 0,3.35 2.717,6.065 6.068,6.065 C -2.719,6.065 0,3.35 0,0 Z" /></g><g
           style="stroke-width:0.75000002;stroke-miterlimit:4;stroke-dasharray:none"
           transform="translate(832.1943,262.4076)"
           id="g84"><path
             id="path86"
             style="fill:none;stroke:#4654a4;stroke-width:0.75000002;stroke-linecap:butt;stroke-linejoin:miter;stroke-miterlimit:4;stroke-dasharray:none;stroke-opacity:1"
             d="m 0,0 c 0,-3.35 -2.718,-6.065 -6.067,-6.065 -3.351,0 -6.068,2.715 -6.068,6.065 0,3.352 2.717,6.067 6.068,6.067 C -2.718,6.067 0,3.352 0,0 Z" /></g><path
           id="path88"
           style="fill:none;stroke:#4654a4;stroke-width:0.75000002;stroke-linecap:butt;stroke-linejoin:miter;stroke-miterlimit:4;stroke-dasharray:none;stroke-opacity:1"
           d="m 255.251,779.057 h 114.261 v 33.042 H 255.251 Z" /><g
           style="stroke-width:0.75000002;stroke-miterlimit:4;stroke-dasharray:none"
           transform="translate(540.0532,757.5681)"
           id="g90"><path
             id="path92"
             style="fill:none;stroke:#4654a4;stroke-width:0.75000002;stroke-linecap:butt;stroke-linejoin:miter;stroke-miterlimit:4;stroke-dasharray:none;stroke-opacity:1"
             d="m 0,0 c 0,-3.351 -2.719,-6.068 -6.068,-6.068 -3.35,0 -6.067,2.717 -6.067,6.068 0,3.351 2.717,6.067 6.067,6.067 C -2.719,6.067 0,3.351 0,0 Z" /></g><g
           style="stroke-width:0.75000002;stroke-miterlimit:4;stroke-dasharray:none"
           transform="translate(200.7926,598.4496)"
           id="g94"><path
             id="path96"
             style="fill:none;stroke:#4654a4;stroke-width:0.75000002;stroke-linecap:butt;stroke-linejoin:miter;stroke-miterlimit:4;stroke-dasharray:none;stroke-opacity:1"
             d="m 0,0 c 0,-3.351 -2.719,-6.068 -6.068,-6.068 -3.35,0 -6.067,2.717 -6.067,6.068 0,3.351 2.717,6.067 6.067,6.067 C -2.719,6.067 0,3.351 0,0 Z" /></g><g
           style="stroke-width:0.75000002;stroke-miterlimit:4;stroke-dasharray:none"
           transform="translate(879.5483,601.6839)"
           id="g98"><path
             id="path100"
             style="fill:none;stroke:#4654a4;stroke-width:0.75000002;stroke-linecap:butt;stroke-linejoin:miter;stroke-miterlimit:4;stroke-dasharray:none;stroke-opacity:1"
             d="m 0,0 c 0,-3.351 -2.719,-6.068 -6.068,-6.068 -3.35,0 -6.067,2.717 -6.067,6.068 0,3.351 2.717,6.067 6.067,6.067 C -2.719,6.067 0,3.351 0,0 Z" /></g><g
           style="stroke-width:0.75000002;stroke-miterlimit:4;stroke-dasharray:none"
           transform="translate(877.0076,402.4115)"
           id="g102"><path
             id="path104"
             style="fill:none;stroke:#4654a4;stroke-width:0.75000002;stroke-linecap:butt;stroke-linejoin:miter;stroke-miterlimit:4;stroke-dasharray:none;stroke-opacity:1"
             d="m 0,0 c 0,-3.351 -2.719,-6.068 -6.068,-6.068 -3.35,0 -6.067,2.717 -6.067,6.068 0,3.351 2.717,6.067 6.067,6.067 C -2.719,6.067 0,3.351 0,0 Z" /></g><g
           style="stroke-width:0.75000002;stroke-miterlimit:4;stroke-dasharray:none"
           transform="translate(200.8602,405.955)"
           id="g106"><path
             id="path108"
             style="fill:none;stroke:#4654a4;stroke-width:0.75000002;stroke-linecap:butt;stroke-linejoin:miter;stroke-miterlimit:4;stroke-dasharray:none;stroke-opacity:1"
             d="m 0,0 c 0,-3.351 -2.719,-6.068 -6.068,-6.068 -3.35,0 -6.067,2.717 -6.067,6.068 0,3.351 2.717,6.067 6.067,6.067 C -2.719,6.067 0,3.351 0,0 Z" /></g><g
           style="stroke-width:0.75000002;stroke-miterlimit:4;stroke-dasharray:none"
           transform="translate(540.1954,250.878)"
           id="g110"><path
             id="path112"
             style="fill:none;stroke:#4654a4;stroke-width:0.75000002;stroke-linecap:butt;stroke-linejoin:miter;stroke-miterlimit:4;stroke-dasharray:none;stroke-opacity:1"
             d="m 0,0 c 0,-3.351 -2.719,-6.068 -6.068,-6.068 -3.35,0 -6.067,2.717 -6.067,6.068 0,3.351 2.717,6.067 6.067,6.067 C -2.719,6.067 0,3.351 0,0 Z" /></g><path
           id="path114"
           style="fill:none;stroke:#4654a4;stroke-width:0.75000002;stroke-linecap:butt;stroke-linejoin:miter;stroke-miterlimit:4;stroke-dasharray:none;stroke-opacity:1"
           d="m 403.128,779.057 h 114.261 v 33.042 H 403.128 Z" /><path
           id="path116"
           style="fill:none;stroke:#4654a4;stroke-width:0.75000002;stroke-linecap:butt;stroke-linejoin:miter;stroke-miterlimit:4;stroke-dasharray:none;stroke-opacity:1"
           d="m 551.074,779.057 h 114.261 v 33.042 H 551.074 Z" /><path
           id="path118"
           style="fill:none;stroke:#4654a4;stroke-width:0.75000002;stroke-linecap:butt;stroke-linejoin:miter;stroke-miterlimit:4;stroke-dasharray:none;stroke-opacity:1"
           d="m 699.156,779.057 h 114.261 v 33.042 H 699.156 Z" /><path
           id="path120"
           style="fill:none;stroke:#4654a4;stroke-width:0.75000002;stroke-linecap:butt;stroke-linejoin:miter;stroke-miterlimit:4;stroke-dasharray:none;stroke-opacity:1"
           d="m 255.121,190.847 h 114.261 v 33.042 H 255.121 Z" /><path
           id="path122"
           style="fill:none;stroke:#4654a4;stroke-width:0.75000002;stroke-linecap:butt;stroke-linejoin:miter;stroke-miterlimit:4;stroke-dasharray:none;stroke-opacity:1"
           d="m 403.031,190.847 h 114.261 v 33.042 H 403.031 Z" /><path
           id="path124"
           style="fill:none;stroke:#4654a4;stroke-width:0.75000002;stroke-linecap:butt;stroke-linejoin:miter;stroke-miterlimit:4;stroke-dasharray:none;stroke-opacity:1"
           d="m 551.078,190.847 h 114.261 v 33.042 H 551.078 Z" /><path
           id="path126"
           style="fill:none;stroke:#4654a4;stroke-width:0.75000002;stroke-linecap:butt;stroke-linejoin:miter;stroke-miterlimit:4;stroke-dasharray:none;stroke-opacity:1"
           d="m 699.128,190.847 h 114.261 v 33.042 H 699.128 Z" /><g
           style="stroke-width:0.75000002;stroke-miterlimit:4;stroke-dasharray:none"
           transform="translate(240.7717,504.6877)"
           id="g128"><path
             id="path130"
             style="fill:none;stroke:#4654a4;stroke-width:0.75000002;stroke-linecap:butt;stroke-linejoin:miter;stroke-miterlimit:4;stroke-dasharray:none;stroke-opacity:1"
             d="m 0,0 c 0,-4.282 -3.475,-7.755 -7.756,-7.755 -4.281,0 -7.754,3.473 -7.754,7.755 0,4.283 3.473,7.755 7.754,7.755 C -3.475,7.755 0,4.283 0,0 Z" /></g><g
           style="stroke-width:0.75000002;stroke-miterlimit:4;stroke-dasharray:none"
           transform="translate(393.7646,504.8442)"
           id="g132"><path
             id="path134"
             style="fill:none;stroke:#4654a4;stroke-width:0.75000002;stroke-linecap:butt;stroke-linejoin:miter;stroke-miterlimit:4;stroke-dasharray:none;stroke-opacity:1"
             d="m 0,0 c 0,-4.282 -3.475,-7.755 -7.756,-7.755 -4.281,0 -7.754,3.473 -7.754,7.755 0,4.283 3.473,7.755 7.754,7.755 C -3.475,7.755 0,4.283 0,0 Z" /></g><g
           style="stroke-width:0.75000002;stroke-miterlimit:4;stroke-dasharray:none"
           transform="translate(542.327,504.4221)"
           id="g136"><path
             id="path138"
             style="fill:none;stroke:#4654a4;stroke-width:0.75000002;stroke-linecap:butt;stroke-linejoin:miter;stroke-miterlimit:4;stroke-dasharray:none;stroke-opacity:1"
             d="m 0,0 c 0,-4.282 -3.475,-7.755 -7.756,-7.755 -4.281,0 -7.754,3.473 -7.754,7.755 0,4.283 3.473,7.755 7.754,7.755 C -3.475,7.755 0,4.283 0,0 Z" /></g><g
           style="stroke-width:0.75000002;stroke-miterlimit:4;stroke-dasharray:none"
           transform="translate(542.3354,300.3801)"
           id="g140"><path
             id="path142"
             style="fill:none;stroke:#4654a4;stroke-width:0.75000002;stroke-linecap:butt;stroke-linejoin:miter;stroke-miterlimit:4;stroke-dasharray:none;stroke-opacity:1"
             d="m 0,0 c 0,-4.282 -3.475,-7.755 -7.756,-7.755 -4.281,0 -7.754,3.473 -7.754,7.755 0,4.283 3.473,7.755 7.754,7.755 C -3.475,7.755 0,4.283 0,0 Z" /></g><g
           style="stroke-width:0.75000002;stroke-miterlimit:4;stroke-dasharray:none"
           transform="translate(839.7578,303.5631)"
           id="g144"><path
             id="path146"
             style="fill:none;stroke:#4654a4;stroke-width:0.75000002;stroke-linecap:butt;stroke-linejoin:miter;stroke-miterlimit:4;stroke-dasharray:none;stroke-opacity:1"
             d="m 0,0 c 0,-4.282 -3.475,-7.755 -7.756,-7.755 -4.281,0 -7.754,3.473 -7.754,7.755 0,4.283 3.473,7.755 7.754,7.755 C -3.475,7.755 0,4.283 0,0 Z" /></g><g
           style="stroke-width:0.75000002;stroke-miterlimit:4;stroke-dasharray:none"
           transform="translate(243.894,303.5631)"
           id="g148"><path
             id="path150"
             style="fill:none;stroke:#4654a4;stroke-width:0.75000002;stroke-linecap:butt;stroke-linejoin:miter;stroke-miterlimit:4;stroke-dasharray:none;stroke-opacity:1"
             d="m 0,0 c 0,-4.282 -3.475,-7.755 -7.756,-7.755 -4.281,0 -7.754,3.473 -7.754,7.755 0,4.283 3.473,7.755 7.754,7.755 C -3.475,7.755 0,4.283 0,0 Z" /></g><g
           style="stroke-width:0.75000002;stroke-miterlimit:4;stroke-dasharray:none"
           transform="translate(542.3354,705.3502)"
           id="g152"><path
             id="path154"
             style="fill:none;stroke:#4654a4;stroke-width:0.75000002;stroke-linecap:butt;stroke-linejoin:miter;stroke-miterlimit:4;stroke-dasharray:none;stroke-opacity:1"
             d="m 0,0 c 0,-4.282 -3.475,-7.755 -7.756,-7.755 -4.281,0 -7.754,3.473 -7.754,7.755 0,4.283 3.473,7.755 7.754,7.755 C -3.475,7.755 0,4.283 0,0 Z" /></g><g
           style="stroke-width:0.75000002;stroke-miterlimit:4;stroke-dasharray:none"
           transform="translate(243.894,703.1735)"
           id="g156"><path
             id="path158"
             style="fill:none;stroke:#4654a4;stroke-width:0.75000002;stroke-linecap:butt;stroke-linejoin:miter;stroke-miterlimit:4;stroke-dasharray:none;stroke-opacity:1"
             d="m 0,0 c 0,-4.282 -3.475,-7.755 -7.756,-7.755 -4.281,0 -7.754,3.473 -7.754,7.755 0,4.282 3.473,7.755 7.754,7.755 C -3.475,7.755 0,4.282 0,0 Z" /></g><g
           style="stroke-width:0.75000002;stroke-miterlimit:4;stroke-dasharray:none"
           transform="translate(689.8097,504.828)"
           id="g160"><path
             id="path162"
             style="fill:none;stroke:#4654a4;stroke-width:0.75000002;stroke-linecap:butt;stroke-linejoin:miter;stroke-miterlimit:4;stroke-dasharray:none;stroke-opacity:1"
             d="m 0,0 c 0,-4.282 -3.475,-7.755 -7.756,-7.755 -4.281,0 -7.754,3.473 -7.754,7.755 0,4.283 3.473,7.755 7.754,7.755 C -3.475,7.755 0,4.283 0,0 Z" /></g><g
           style="stroke-width:0.75000002;stroke-miterlimit:4;stroke-dasharray:none"
           transform="translate(845.2422,504.828)"
           id="g164"><path
             id="path166"
             style="fill:none;stroke:#4654a4;stroke-width:0.75000002;stroke-linecap:butt;stroke-linejoin:miter;stroke-miterlimit:4;stroke-dasharray:none;stroke-opacity:1"
             d="m 0,0 c 0,-4.282 -3.475,-7.755 -7.756,-7.755 -4.281,0 -7.754,3.473 -7.754,7.755 0,4.283 3.473,7.755 7.754,7.755 C -3.475,7.755 0,4.283 0,0 Z" /></g><g
           style="stroke-width:0.75000002;stroke-miterlimit:4;stroke-dasharray:none"
           transform="translate(837.4872,703.1735)"
           id="g168"><path
             id="path170"
             style="fill:none;stroke:#4654a4;stroke-width:0.75000002;stroke-linecap:butt;stroke-linejoin:miter;stroke-miterlimit:4;stroke-dasharray:none;stroke-opacity:1"
             d="m 0,0 c 0,-4.282 -3.475,-7.755 -7.756,-7.755 -4.281,0 -7.754,3.473 -7.754,7.755 0,4.282 3.473,7.755 7.754,7.755 C -3.475,7.755 0,4.282 0,0 Z" /></g><path
           id="path172"
           style="fill:none;stroke:#4654a4;stroke-width:0.75000002;stroke-linecap:butt;stroke-linejoin:miter;stroke-miterlimit:4;stroke-dasharray:none;stroke-opacity:1"
           d="m 966.572,72.422 h -864 v 864 h 864 z" /></g></g></g></svg>