<?xml version="1.0" encoding="UTF-8" standalone="no"?>
<svg
   xmlns:dc="http://purl.org/dc/elements/1.1/"
   xmlns:cc="http://creativecommons.org/ns#"
   xmlns:rdf="http://www.w3.org/1999/02/22-rdf-syntax-ns#"
   xmlns:svg="http://www.w3.org/2000/svg"
   xmlns="http://www.w3.org/2000/svg"
   viewBox="0 0 1440 1440"
   height="1440"
   width="1440"
   xml:space="preserve"
   id="svg2"
   version="1.1"><metadata
     id="metadata8"><rdf:RDF><cc:Work
         rdf:about=""><dc:format>image/svg+xml</dc:format><dc:type
           rdf:resource="http://purl.org/dc/dcmitype/StillImage" /><dc:title></dc:title></cc:Work></rdf:RDF></metadata><defs
     id="defs6"><clipPath
       id="clipPath30"
       clipPathUnits="userSpaceOnUse"><path
         id="path28"
         d="M 0,1080 H 1080 V 0 H 0 Z" /></clipPath></defs><g
     transform="matrix(1.3333333,0,0,-1.3333333,0,1440)"
     id="g10"><text
       id="text14"
       style="font-variant:normal;font-weight:normal;font-stretch:normal;font-size:12px;font-family:'Myriad Pro';-inkscape-font-specification:MyriadPro-Regular;writing-mode:lr-tb;fill:#000000;fill-opacity:1;fill-rule:nonzero;stroke:none;stroke-width:0.075;stroke-miterlimit:4;stroke-dasharray:none"
       transform="matrix(1,0,0,-1,205.1851,302.8223)"><tspan
         id="tspan12"
         y="0"
         x="0 6.816 13.428 17.4 19.944 23.448 27.252001 33.84 43.848 46.391998 53.220001 57.023998 63.528 69.300003 72.108002 78.875999 84.888 91.655998 94.199997 101.028 103.86 110.472 116.484 119.028 123.78 126.588 129.42 132.228 137.532 144.12 150.78 156.64799 159.132 161.67599 168 170.832 176.84399 182.62801 187.38 193.392 195.936 199.74001 205.752 209.724 216.336 220.308 226.968 229.51199 235.48801 240.864 246.168 252.17999 256.93201 261.68399 264.228 274.23599 279.97079 283.87079 289.88281 293.8548 296.66281 302.44681 305.15881 307.64279">Cut from provided blue silicone. Please return excess material. </tspan></text>
<g
       style="stroke-width:0.75000002;stroke-miterlimit:4;stroke-dasharray:none"
       id="g4665"><path
         d="M 344.729,341.74 H 222.766 v 387.936 h 121.963 z"
         style="fill:none;stroke:#2b318d;stroke-width:0.75000002;stroke-linecap:butt;stroke-linejoin:miter;stroke-miterlimit:4;stroke-dasharray:none;stroke-opacity:1"
         id="path16" /><path
         d="M 492.829,341.74 H 370.866 v 387.936 h 121.963 z"
         style="fill:none;stroke:#2b318d;stroke-width:0.75000002;stroke-linecap:butt;stroke-linejoin:miter;stroke-miterlimit:4;stroke-dasharray:none;stroke-opacity:1"
         id="path18" /><path
         d="M 640.997,341.74 H 519.034 v 387.936 h 121.963 z"
         style="fill:none;stroke:#2b318d;stroke-width:0.75000002;stroke-linecap:butt;stroke-linejoin:miter;stroke-miterlimit:4;stroke-dasharray:none;stroke-opacity:1"
         id="path20" /><path
         d="M 788.929,341.74 H 666.966 v 387.936 h 121.963 z"
         style="fill:none;stroke:#2b318d;stroke-width:0.75000002;stroke-linecap:butt;stroke-linejoin:miter;stroke-miterlimit:4;stroke-dasharray:none;stroke-opacity:1"
         id="path22" /><g
         id="g32"
         transform="matrix(0.71392034,0,0,0.71395316,349.92963,541.4495)"
         style="stroke-width:1.05051325;stroke-miterlimit:4;stroke-dasharray:none"><path
           d="m 0,0 c 0,-6.007 4.87,-10.877 10.877,-10.877 6.008,0 10.878,4.87 10.878,10.877 0,6.007 -4.87,10.877 -10.878,10.877 C 4.87,10.877 0,6.007 0,0 Z"
           style="fill:none;stroke:#2b318d;stroke-width:1.05051325;stroke-linecap:butt;stroke-linejoin:miter;stroke-miterlimit:4;stroke-dasharray:none;stroke-opacity:1"
           id="path34" /></g><g
         id="g36"
         transform="translate(495.3802,541.0274)"
         style="stroke-width:0.75000002;stroke-miterlimit:4;stroke-dasharray:none"><path
           d="m 3.1118315,0 c 0,-4.2887166 3.4767921,-7.7656685 7.7653115,-7.7656685 4.289233,0 7.766026,3.4769519 7.766026,7.7656685 0,4.2887166 -3.476793,7.7656685 -7.766026,7.7656685 C 6.5886236,7.7656685 3.1118315,4.2887166 3.1118315,0 Z"
           style="fill:none;stroke:#2b318d;stroke-width:0.75000002;stroke-linecap:butt;stroke-linejoin:miter;stroke-miterlimit:4;stroke-dasharray:none;stroke-opacity:1"
           id="path38" /></g><g
         id="g40"
         transform="matrix(0.71392034,0,0,0.71395316,498.50043,336.9854)"
         style="stroke-width:1.05051325;stroke-miterlimit:4;stroke-dasharray:none"><path
           d="m 0,0 c 0,-6.007 4.87,-10.877 10.877,-10.877 6.008,0 10.878,4.87 10.878,10.877 0,6.007 -4.87,10.877 -10.878,10.877 C 4.87,10.877 0,6.007 0,0 Z"
           style="fill:none;stroke:#2b318d;stroke-width:1.05051325;stroke-linecap:butt;stroke-linejoin:miter;stroke-miterlimit:4;stroke-dasharray:none;stroke-opacity:1"
           id="path42" /></g><g
         id="g44"
         transform="matrix(0.71392034,0,0,0.71395316,498.50043,741.9554)"
         style="stroke-width:1.05051325;stroke-miterlimit:4;stroke-dasharray:none"><path
           d="m 0,0 c 0,-6.007 4.87,-10.877 10.877,-10.877 6.008,0 10.878,4.87 10.878,10.877 0,6.007 -4.87,10.877 -10.878,10.877 C 4.87,10.877 0,6.007 0,0 Z"
           style="fill:none;stroke:#2b318d;stroke-width:1.05051325;stroke-linecap:butt;stroke-linejoin:miter;stroke-miterlimit:4;stroke-dasharray:none;stroke-opacity:1"
           id="path46" /></g><g
         id="g48"
         transform="matrix(0.71392034,0,0,0.71395316,200.05903,739.7788)"
         style="stroke-width:1.05051325;stroke-miterlimit:4;stroke-dasharray:none"><path
           d="m 0,0 c 0,-6.007 4.87,-10.877 10.877,-10.877 6.008,0 10.878,4.87 10.878,10.877 0,6.007 -4.87,10.877 -10.878,10.877 C 4.87,10.877 0,6.007 0,0 Z"
           style="fill:none;stroke:#2b318d;stroke-width:1.05051325;stroke-linecap:butt;stroke-linejoin:miter;stroke-miterlimit:4;stroke-dasharray:none;stroke-opacity:1"
           id="path50" /></g><g
         id="g52"
         transform="matrix(0.71392034,0,0,0.71395316,645.97473,541.4332)"
         style="stroke-width:1.05051325;stroke-miterlimit:4;stroke-dasharray:none"><path
           d="m 0,0 c 0,-6.007 4.87,-10.877 10.877,-10.877 6.008,0 10.878,4.87 10.878,10.877 0,6.007 -4.87,10.877 -10.878,10.877 C 4.87,10.877 0,6.007 0,0 Z"
           style="fill:none;stroke:#2b318d;stroke-width:1.05051325;stroke-linecap:butt;stroke-linejoin:miter;stroke-miterlimit:4;stroke-dasharray:none;stroke-opacity:1"
           id="path54" /></g><g
         id="g56"
         transform="matrix(0.71392034,0,0,0.71395316,801.40713,541.4332)"
         style="stroke-width:1.05051325;stroke-miterlimit:4;stroke-dasharray:none"><path
           d="m 0,0 c 0,-6.007 4.87,-10.877 10.877,-10.877 6.008,0 10.878,4.87 10.878,10.877 0,6.007 -4.87,10.877 -10.878,10.877 C 4.87,10.877 0,6.007 0,0 Z"
           style="fill:none;stroke:#2b318d;stroke-width:1.05051325;stroke-linecap:butt;stroke-linejoin:miter;stroke-miterlimit:4;stroke-dasharray:none;stroke-opacity:1"
           id="path58" /></g><g
         id="g60"
         transform="matrix(0.71392034,0,0,0.71395316,793.65223,739.7788)"
         style="stroke-width:1.05051325;stroke-miterlimit:4;stroke-dasharray:none"><path
           d="m 0,0 c 0,-6.007 4.87,-10.877 10.877,-10.877 6.008,0 10.878,4.87 10.878,10.877 0,6.007 -4.87,10.877 -10.878,10.877 C 4.87,10.877 0,6.007 0,0 Z"
           style="fill:none;stroke:#2b318d;stroke-width:1.05051325;stroke-linecap:butt;stroke-linejoin:miter;stroke-miterlimit:4;stroke-dasharray:none;stroke-opacity:1"
           id="path62" /></g><g
         id="g64"
         transform="matrix(0.71392034,0,0,0.71395316,796.22713,340.1684)"
         style="stroke-width:1.05051325;stroke-miterlimit:4;stroke-dasharray:none"><path
           d="m 0,0 c 0,-6.007 4.87,-10.877 10.877,-10.877 6.008,0 10.878,4.87 10.878,10.877 0,6.007 -4.87,10.877 -10.878,10.877 C 4.87,10.877 0,6.007 0,0 Z"
           style="fill:none;stroke:#2b318d;stroke-width:1.05051325;stroke-linecap:butt;stroke-linejoin:miter;stroke-miterlimit:4;stroke-dasharray:none;stroke-opacity:1"
           id="path66" /></g><g
         id="g68"
         transform="matrix(0.71392034,0,0,0.71395316,196.93673,541.293)"
         style="stroke-width:1.05051325;stroke-miterlimit:4;stroke-dasharray:none"><path
           d="m 0,0 c 0,-6.007 4.87,-10.877 10.877,-10.877 6.008,0 10.878,4.87 10.878,10.877 0,6.007 -4.87,10.877 -10.878,10.877 C 4.87,10.877 0,6.007 0,0 Z"
           style="fill:none;stroke:#2b318d;stroke-width:1.05051325;stroke-linecap:butt;stroke-linejoin:miter;stroke-miterlimit:4;stroke-dasharray:none;stroke-opacity:1"
           id="path70" /></g><g
         id="g72"
         transform="matrix(0.71392034,0,0,0.71395316,200.05903,340.1684)"
         style="stroke-width:1.05051325;stroke-miterlimit:4;stroke-dasharray:none"><path
           d="m 0,0 c 0,-6.007 4.87,-10.877 10.877,-10.877 6.008,0 10.878,4.87 10.878,10.877 0,6.007 -4.87,10.877 -10.878,10.877 C 4.87,10.877 0,6.007 0,0 Z"
           style="fill:none;stroke:#2b318d;stroke-width:1.05051325;stroke-linecap:butt;stroke-linejoin:miter;stroke-miterlimit:4;stroke-dasharray:none;stroke-opacity:1"
           id="path74" /></g><g
         id="g76"
         transform="translate(821.2023,346.1747)"
         style="stroke-width:0.75000002;stroke-miterlimit:4;stroke-dasharray:none"><path
           d="m 0,0 c 0,-12.027 -10.642,-21.777 -23.769,-21.777 h -583.525 c -13.127,0 -23.768,9.75 -23.768,21.777 v 387.65 c 0,12.027 10.641,21.778 23.768,21.778 H -26.769 C -13.642,409.428 0,397.707 0,385.679 Z"
           style="fill:none;stroke:#2b318d;stroke-width:0.75000002;stroke-linecap:butt;stroke-linejoin:miter;stroke-miterlimit:4;stroke-dasharray:none;stroke-opacity:1"
           id="path78" /></g></g></g></svg>